<?xml version="1.0" encoding="UTF-8"?><svg xmlns="http://www.w3.org/2000/svg" viewBox="0 0 164.41 255.12"><defs><style>.h{fill:#040504;}.i{fill:#010101;}.j{fill:#020303;}.k{fill:#e9e9e9;}.l{fill:#fff;}.m{fill:#fcf3e7;}.n{fill:#b5a8a9;}.o{fill:#125278;}.p{fill:#111110;}.q{fill:#368952;}.r{fill:#a36b3e;}.s{fill:#1d1d1b;font-family:DINAlternate-Bold, DIN Alternate;font-size:18px;}</style></defs><g id="a"/><g id="b"/><g id="c"><g><path class="k" d="M13.62,.5H150.79c7.24,0,13.12,5.88,13.12,13.12V241.5c0,7.24-5.88,13.12-13.12,13.12H13.62c-7.24,0-13.12-5.88-13.12-13.12V13.62C.5,6.38,6.38,.5,13.62,.5Z"/><path class="h" d="M150.79,1c6.96,0,12.62,5.66,12.62,12.62V241.5c0,6.96-5.66,12.62-12.62,12.62H13.62c-6.96,0-12.62-5.66-12.62-12.62V13.62C1,6.66,6.66,1,13.62,1H150.79M150.79,0H13.62C6.1,0,0,6.1,0,13.62V241.5C0,249.02,6.1,255.12,13.62,255.12H150.79c7.52,0,13.62-6.1,13.62-13.62V13.62C164.41,6.1,158.31,0,150.79,0h0Z"/></g></g><g id="d"><text class="s" transform="translate(3.48 22.5)"><tspan x="0" y="0" xml:space="preserve">10    R</tspan></text><text class="s" transform="translate(160.93 232.62) rotate(-180)"><tspan x="0" y="0" xml:space="preserve">10    R</tspan></text></g><g id="e"><path class="i" d="M32.51,14.71c-.19,0-.39,.02-.6,.05,.37-.67,.6-1.43,.6-2.09,0-1.64-1.36-2.98-3.04-2.98s-3.04,1.33-3.04,2.98c0,.66,.22,1.42,.6,2.09-.2-.03-.4-.05-.6-.05-1.68,0-3.04,1.33-3.04,2.98s1.36,2.98,3.04,2.98c.65,0,1.4-.2,2.07-.54-.3,.6-.85,1.38-1.84,2.38h5.63c-.99-1.01-1.54-1.79-1.84-2.38,.67,.34,1.41,.54,2.07,.54,1.68,0,3.04-1.33,3.04-2.98s-1.36-2.98-3.04-2.98Z"/><path class="i" d="M131.9,240.41c.19,0,.39-.02,.6-.05-.37,.67-.6,1.43-.6,2.09,0,1.64,1.36,2.98,3.04,2.98s3.04-1.33,3.04-2.98c0-.66-.22-1.42-.6-2.09,.2,.03,.4,.05,.6,.05,1.68,0,3.04-1.33,3.04-2.98,0-1.64-1.36-2.98-3.04-2.98-.65,0-1.4,.2-2.07,.54,.3-.6,.85-1.38,1.84-2.38h-5.63c.99,1.01,1.54,1.79,1.84,2.38-.67-.34-1.41-.54-2.07-.54-1.68,0-3.04,1.33-3.04,2.98s1.36,2.98,3.04,2.98Z"/></g><g id="f"><g><path class="j" d="M61.12,102.22s-6.82-15-2.73-17.72c0,0,5.45-8.18,21.81-5.45,16.36,2.73,17.72,4.09,21.81,13.63l-1.36,9.54H61.12Z"/><path class="i" d="M100.75,102.33H61.04l-.03-.07c-.28-.62-6.79-15.07-2.7-17.85,.15-.21,1.58-2.16,4.8-3.77,3.12-1.56,8.63-3.13,17.11-1.71,16.3,2.72,17.78,4.1,21.9,13.7v.06l-1.37,9.64Zm-39.56-.23h39.36l1.34-9.41c-4.06-9.47-5.55-10.84-21.71-13.54-8.41-1.4-13.86,.14-16.96,1.69-3.35,1.67-4.73,3.7-4.74,3.72l-.03,.03c-3.83,2.55,2.25,16.42,2.74,17.51Z"/><path class="o" d="M65.94,134.07c-3.09,1.73-5.42,4.17-10.28,4.95-2.37,.38-4.14,.18-6.82,1.36-2.66,1.17-4.3,2.87-5.45,4.09-1.14,1.21-4.19,4.49-5.45,9.54-1.27,5.08,.52,6.87-1.36,10.91-.43,.91-1.15,2.17-1.36,4.09-.19,1.72,0,4.06,0,4.09,0,0,44.99,8.18,94.07,0-.06-2.33-.52-4.64-1.36-6.82-1-2.57-1.79-3.01-2.73-5.45-1.41-3.67-.47-4.93-1.36-8.18-1.02-3.72-3.34-6.05-5.45-8.18-3.67-3.7-7.49-5.34-10.91-6.82-4.72-2.03-10.5-3.59-10.5-3.59,0,0-18.95-6.77-31.03,0Z"/><path class="r" d="M61.09,101.73s-10.88,7.3-4.07,15.48c6.82,8.18-9.54,2.73-4.09,9.54,5.45,6.82,6.82-4.09,10.91,4.09,4.09,8.18,20.45,20.45,32.72,4.09,0-.27,.21-5.8,4.46-8.01,1.27-.64,2.7-.93,4.12-.82,.38,2.28,1.55,3.76,2.47,3.71,1.11-.06,2.17-2.37,1.65-4.12-.3-1.02-1.07-1.62-1.65-2.06-2.1-1.6-3.93-1.03-4.52-2.05-.35-.61-.23-1.77,1.63-4.13-.6-1.8,.37-3.74,2.17-4.34,1.51-.51,3.18,.1,4.01,1.46,.24-1.96-.05-3.95-.82-5.77-2.17-4.96-7.32-6.39-8.07-6.58l-40.92-.48Z"/><path class="m" d="M61.12,102.22s-1.36,29.99,16.36,34.08,27.27-23.18,23.18-34.08H61.12Z"/><path class="i" d="M72.13,128.15l-.22-.07s1.47-4.17,8.31-2.8l-.04,.22c-6.64-1.33-8.04,2.61-8.05,2.65Z"/><path class="i" d="M91,128.15c-1.32-3.95-7.98-2.66-8.05-2.65l-.04-.22c.07-.01,6.93-1.34,8.31,2.8l-.22,.07Z"/><ellipse class="p" cx="72.02" cy="112.44" rx="2.73" ry="2.04"/><ellipse class="p" cx="89.75" cy="112.44" rx="2.73" ry="2.04"/><path class="i" d="M81.49,122.75c-2.73-2.73-1.45-13.28-1.4-13.73l.23,.03c-.01,.11-1.33,10.88,1.33,13.54l-.16,.16Z"/><polygon class="q" points="78.84 85.18 81.04 89.64 85.96 90.36 82.4 93.83 83.24 98.73 78.84 96.42 74.44 98.73 75.28 93.83 71.72 90.36 76.64 89.64 78.84 85.18"/><rect class="i" x="53.82" y="139.33" width=".91" height="36.17" transform="translate(-20.98 8.88) rotate(-7.85)"/><rect class="i" x="90.73" y="157.36" width="36.24" height=".91" transform="translate(-63.33 242.13) rotate(-81.49)"/><path class="l" d="M87.42,171.7c-4.18,0-7.46-4.92-7.46-11.19s3.27-11.19,7.46-11.19,7.46,4.92,7.46,11.19-3.27,11.19-7.46,11.19Zm0-17.83c-1.15,0-2.9,2.65-2.9,6.63s1.74,6.63,2.9,6.63,2.9-2.65,2.9-6.63-1.74-6.63-2.9-6.63Z"/><path class="l" d="M78.07,150.07h-3.14s-1.24,3.49-5.93,5.09v3.63s2.96-.71,5.18-3.01v15.04h3.89v-20.75Z"/></g></g><g id="g"><path class="n" d="M76.27,243.31c2.31,1.56,3.64-4.44,5-5.64,.89-1.05,2.18-.74,2.21,.7,.07,1.13-1.02,1.8-2.06,1.7-1.35-.08-2.1-1.45-2.21-2.65-.11-1.21,.41-2.4,1.3-3.19,2.19-1.9,4.45,.27,5.78,2.07,1.34,1.84,2.31,4.22,1.59,6.51-.69,2.14-2.88,2.41-4.51,1.09-.64-.42-1.1-1.23-1.89-1.38-.2-.06-.44-.07-.62,.08-.46,.45-.55,1.58-.04,2.07,1.88,.99,1.28-7.14,1.36-8.14,.66,2.2,.48,4.54,.17,6.79-.06,.76-.71,2.33-1.74,1.61-.92-.88-.48-2.99,.94-3.01,.99,.04,1.47,.98,2.2,1.49,1.34,1.11,3.07,1.03,3.72-.75,.92-2.66-.53-5.61-2.47-7.46-.76-.76-1.7-1.52-2.83-1.38-1.63,.21-2.72,2.02-2.54,3.56,.13,.99,.79,2.04,1.85,2.09,.44,.03,.97-.09,1.24-.45,.23-.34,.22-.94-.01-1.24-1.07-.94-2.87,3.88-3.54,4.63-.5,.92-2.07,2.16-2.89,.91h0Z"/></g></svg>