<?xml version="1.0" encoding="UTF-8"?><svg xmlns="http://www.w3.org/2000/svg" viewBox="0 0 164.41 255.12"><defs><style>.h{fill:#040504;}.i{fill:#010101;}.j{fill:#e9e9e9;}.k{fill:#b5a8a9;}.l{fill:#1d1d1b;font-family:DINAlternate-Bold, DIN Alternate;font-size:18px;}</style></defs><g id="a"/><g id="b"/><g id="c"><g><path class="j" d="M13.62,.5H150.79c7.24,0,13.12,5.88,13.12,13.12V241.5c0,7.24-5.88,13.12-13.12,13.12H13.62c-7.24,0-13.12-5.88-13.12-13.12V13.62C.5,6.38,6.38,.5,13.62,.5Z"/><path class="h" d="M150.79,1c6.96,0,12.62,5.66,12.62,12.62V241.5c0,6.96-5.66,12.62-12.62,12.62H13.62c-6.96,0-12.62-5.66-12.62-12.62V13.62C1,6.66,6.66,1,13.62,1H150.79M150.79,0H13.62C6.1,0,0,6.1,0,13.62V241.5C0,249.02,6.1,255.12,13.62,255.12H150.79c7.52,0,13.62-6.1,13.62-13.62V13.62C164.41,6.1,158.31,0,150.79,0h0Z"/></g></g><g id="d"><text class="l" transform="translate(9.69 22.5)"><tspan x="0" y="0">6</tspan></text><text class="l" transform="translate(154.73 232.62) rotate(-180)"><tspan x="0" y="0">6</tspan></text></g><g id="e"><path class="i" d="M32.51,14.71c-.19,0-.39,.02-.6,.05,.37-.67,.6-1.43,.6-2.09,0-1.64-1.36-2.98-3.04-2.98s-3.04,1.33-3.04,2.98c0,.66,.22,1.42,.6,2.09-.2-.03-.4-.05-.6-.05-1.68,0-3.04,1.33-3.04,2.98s1.36,2.98,3.04,2.98c.65,0,1.4-.2,2.07-.54-.3,.6-.85,1.38-1.84,2.38h5.63c-.99-1.01-1.54-1.79-1.84-2.38,.67,.34,1.41,.54,2.07,.54,1.68,0,3.04-1.33,3.04-2.98s-1.36-2.98-3.04-2.98Z"/><path class="i" d="M131.9,240.41c.19,0,.39-.02,.6-.05-.37,.67-.6,1.43-.6,2.09,0,1.64,1.36,2.98,3.04,2.98s3.04-1.33,3.04-2.98c0-.66-.22-1.42-.6-2.09,.2,.03,.4,.05,.6,.05,1.68,0,3.04-1.33,3.04-2.98,0-1.64-1.36-2.98-3.04-2.98-.65,0-1.4,.2-2.07,.54,.3-.6,.85-1.38,1.84-2.38h-5.63c.99,1.01,1.54,1.79,1.84,2.38-.67-.34-1.41-.54-2.07-.54-1.68,0-3.04,1.33-3.04,2.98s1.36,2.98,3.04,2.98Z"/><path class="i" d="M123.25,42.71c-.39,0-.81,.04-1.22,.11,.77-1.38,1.22-2.94,1.22-4.3,0-3.38-2.8-6.11-6.25-6.11s-6.25,2.74-6.25,6.11c0,1.36,.45,2.92,1.22,4.3-.42-.07-.83-.11-1.22-.11-3.45,0-6.25,2.74-6.25,6.11s2.8,6.11,6.25,6.11c1.34,0,2.87-.41,4.24-1.12-.61,1.22-1.74,2.83-3.77,4.89h11.56c-2.03-2.07-3.17-3.67-3.77-4.89,1.37,.7,2.9,1.12,4.24,1.12,3.45,0,6.25-2.74,6.25-6.11s-2.8-6.11-6.25-6.11Z"/><path class="i" d="M110.75,212.4c.39,0,.81-.04,1.22-.11-.77,1.38-1.22,2.94-1.22,4.3,0,3.38,2.8,6.11,6.25,6.11s6.25-2.74,6.25-6.11c0-1.36-.45-2.92-1.22-4.3,.42,.07,.83,.11,1.22,.11,3.45,0,6.25-2.74,6.25-6.11s-2.8-6.11-6.25-6.11c-1.34,0-2.87,.41-4.24,1.12,.61-1.22,1.74-2.83,3.77-4.89h-11.56c2.03,2.07,3.17,3.67,3.77,4.89-1.37-.7-2.9-1.12-4.24-1.12-3.45,0-6.25,2.74-6.25,6.11s2.8,6.11,6.25,6.11Z"/><path class="i" d="M123.25,124.71c-.39,0-.81,.04-1.22,.11,.77-1.38,1.22-2.94,1.22-4.3,0-3.38-2.8-6.11-6.25-6.11s-6.25,2.74-6.25,6.11c0,1.36,.45,2.92,1.22,4.3-.42-.07-.83-.11-1.22-.11-3.45,0-6.25,2.74-6.25,6.11s2.8,6.11,6.25,6.11c1.34,0,2.87-.41,4.24-1.12-.61,1.22-1.74,2.83-3.77,4.89h11.56c-2.03-2.07-3.17-3.67-3.77-4.89,1.37,.7,2.9,1.12,4.24,1.12,3.45,0,6.25-2.74,6.25-6.11s-2.8-6.11-6.25-6.11Z"/><path class="i" d="M53.66,124.71c-.39,0-.81,.04-1.22,.11,.77-1.38,1.22-2.94,1.22-4.3,0-3.38-2.8-6.11-6.25-6.11s-6.25,2.74-6.25,6.11c0,1.36,.45,2.92,1.22,4.3-.42-.07-.83-.11-1.22-.11-3.45,0-6.25,2.74-6.25,6.11s2.8,6.11,6.25,6.11c1.34,0,2.87-.41,4.24-1.12-.61,1.22-1.74,2.83-3.77,4.89h11.56c-2.03-2.07-3.17-3.67-3.77-4.89,1.37,.7,2.9,1.12,4.24,1.12,3.45,0,6.25-2.74,6.25-6.11s-2.8-6.11-6.25-6.11Z"/><path class="i" d="M53.66,42.71c-.39,0-.81,.04-1.22,.11,.77-1.38,1.22-2.94,1.22-4.3,0-3.38-2.8-6.11-6.25-6.11s-6.25,2.74-6.25,6.11c0,1.36,.45,2.92,1.22,4.3-.42-.07-.83-.11-1.22-.11-3.45,0-6.25,2.74-6.25,6.11s2.8,6.11,6.25,6.11c1.34,0,2.87-.41,4.24-1.12-.61,1.22-1.74,2.83-3.77,4.89h11.56c-2.03-2.07-3.17-3.67-3.77-4.89,1.37,.7,2.9,1.12,4.24,1.12,3.45,0,6.25-2.74,6.25-6.11s-2.8-6.11-6.25-6.11Z"/><path class="i" d="M41.16,212.4c.39,0,.81-.04,1.22-.11-.77,1.38-1.22,2.94-1.22,4.3,0,3.38,2.8,6.11,6.25,6.11s6.25-2.74,6.25-6.11c0-1.36-.45-2.92-1.22-4.3,.42,.07,.83,.11,1.22,.11,3.45,0,6.25-2.74,6.25-6.11s-2.8-6.11-6.25-6.11c-1.34,0-2.87,.41-4.24,1.12,.61-1.22,1.74-2.83,3.77-4.89h-11.56c2.03,2.07,3.17,3.67,3.77,4.89-1.37-.7-2.9-1.12-4.24-1.12-3.45,0-6.25,2.74-6.25,6.11s2.8,6.11,6.25,6.11Z"/></g><g id="f"/><g id="g"><path class="k" d="M76.27,243.31c2.31,1.56,3.64-4.44,5-5.64,.89-1.05,2.18-.74,2.21,.7,.07,1.13-1.02,1.8-2.06,1.7-1.35-.08-2.1-1.45-2.21-2.65-.11-1.21,.41-2.4,1.3-3.19,2.19-1.9,4.45,.27,5.78,2.07,1.34,1.84,2.31,4.22,1.59,6.51-.69,2.14-2.88,2.41-4.51,1.09-.64-.42-1.1-1.23-1.89-1.38-.2-.06-.44-.07-.62,.08-.46,.45-.55,1.58-.04,2.07,1.88,.99,1.28-7.14,1.36-8.14,.66,2.2,.48,4.54,.17,6.79-.06,.76-.71,2.33-1.74,1.61-.92-.88-.48-2.99,.94-3.01,.99,.04,1.47,.98,2.2,1.49,1.34,1.11,3.07,1.03,3.72-.75,.92-2.66-.53-5.61-2.47-7.46-.76-.76-1.7-1.52-2.83-1.38-1.63,.21-2.72,2.02-2.54,3.56,.13,.99,.79,2.04,1.85,2.09,.44,.03,.97-.09,1.24-.45,.23-.34,.22-.94-.01-1.24-1.07-.94-2.87,3.88-3.54,4.63-.5,.92-2.07,2.16-2.89,.91h0Z"/></g></svg>