<?xml version="1.0" encoding="UTF-8"?><svg xmlns="http://www.w3.org/2000/svg" viewBox="0 0 164.41 255.12"><defs><style>.h{fill:#040504;}.i{fill:#010101;}.j{fill:#e9e9e9;}.k{fill:#b5a8a9;}.l{fill:#1d1d1b;font-family:DINAlternate-Bold, DIN Alternate;font-size:18px;}</style></defs><g id="a"/><g id="b"/><g id="c"><g><path class="j" d="M13.62,.5H150.79c7.24,0,13.12,5.88,13.12,13.12V241.5c0,7.24-5.88,13.12-13.12,13.12H13.62c-7.24,0-13.12-5.88-13.12-13.12V13.62C.5,6.38,6.38,.5,13.62,.5Z"/><path class="h" d="M150.79,1c6.96,0,12.62,5.66,12.62,12.62V241.5c0,6.96-5.66,12.62-12.62,12.62H13.62c-6.96,0-12.62-5.66-12.62-12.62V13.62C1,6.66,6.66,1,13.62,1H150.79M150.79,0H13.62C6.1,0,0,6.1,0,13.62V241.5C0,249.02,6.1,255.12,13.62,255.12H150.79c7.52,0,13.62-6.1,13.62-13.62V13.62C164.41,6.1,158.31,0,150.79,0h0Z"/></g></g><g id="d"><text class="l" transform="translate(9.69 22.5)"><tspan x="0" y="0">6</tspan></text><text class="l" transform="translate(154.73 232.62) rotate(-180)"><tspan x="0" y="0">6</tspan></text></g><g id="e"><path class="i" d="M35.65,17.04c0-.9-.24-1.66-.57-2.27-.29-.55-.66-.98-.97-1.29-.39-.38-.7-.58-.73-.6h0l-3.91-3.19-3.91,3.19h0s-.34,.21-.73,.6c-.32,.31-.68,.74-.97,1.29-.33,.61-.57,1.36-.57,2.27,0,1.89,1.05,3.34,3.19,3.34,.84,0,1.48-.33,1.95-.72-.32,.7-.94,1.63-2.11,2.84h6.31c-1.17-1.22-1.8-2.15-2.11-2.84,.47,.4,1.11,.72,1.95,.72,2.14,0,3.19-1.45,3.19-3.34Z"/><path class="i" d="M128.76,238.08c0,.9,.24,1.66,.57,2.27,.29,.55,.66,.98,.97,1.29,.39,.38,.7,.58,.73,.6h0l3.91,3.19,3.91-3.19h0s.34-.21,.73-.6c.32-.31,.68-.74,.97-1.29,.33-.61,.57-1.36,.57-2.27,0-1.89-1.05-3.34-3.19-3.34-.84,0-1.48,.33-1.95,.72,.32-.7,.94-1.63,2.11-2.84h-6.31c1.17,1.22,1.8,2.15,2.11,2.84-.47-.4-1.11-.72-1.95-.72-2.14,0-3.19,1.45-3.19,3.34Z"/><path class="i" d="M59.77,47.5c0-1.85-.49-3.4-1.16-4.65-.6-1.13-1.35-2.02-2-2.66-.8-.78-1.44-1.19-1.5-1.22h0l-8.02-6.56-8.02,6.55h0s-.69,.44-1.5,1.23c-.65,.64-1.39,1.52-1.99,2.65-.67,1.25-1.16,2.8-1.16,4.65,0,3.88,2.15,6.86,6.55,6.86,1.72,0,3.03-.67,4-1.49-.65,1.43-1.93,3.34-4.34,5.84h12.95c-2.4-2.5-3.69-4.41-4.34-5.84,.96,.82,2.27,1.49,4,1.49,4.4,0,6.55-2.98,6.55-6.86Z"/><path class="i" d="M59.77,129.5c0-1.85-.49-3.4-1.16-4.65-.6-1.13-1.35-2.02-2-2.66-.8-.78-1.44-1.19-1.5-1.22h0l-8.02-6.56-8.02,6.55h0s-.69,.44-1.5,1.23c-.65,.64-1.39,1.52-1.99,2.65-.67,1.25-1.16,2.8-1.16,4.65,0,3.88,2.15,6.86,6.55,6.86,1.72,0,3.03-.67,4-1.49-.65,1.43-1.93,3.34-4.34,5.84h12.95c-2.4-2.5-3.69-4.41-4.34-5.84,.96,.82,2.27,1.49,4,1.49,4.4,0,6.55-2.98,6.55-6.86Z"/><path class="i" d="M34.41,207.62c0,1.85,.49,3.4,1.16,4.65,.6,1.13,1.35,2.02,2,2.66,.8,.78,1.44,1.19,1.5,1.22h0l8.02,6.56,8.02-6.55h0s.69-.44,1.5-1.23c.65-.64,1.39-1.52,1.99-2.65,.67-1.25,1.16-2.8,1.16-4.65,0-3.88-2.15-6.86-6.55-6.86-1.72,0-3.03,.67-4,1.49,.65-1.43,1.93-3.34,4.34-5.84h-12.95c2.4,2.5,3.69,4.41,4.34,5.84-.96-.82-2.27-1.49-4-1.49-4.4,0-6.55,2.98-6.55,6.86Z"/><path class="i" d="M130,47.5c0-1.85-.49-3.4-1.16-4.65-.6-1.13-1.35-2.02-2-2.66-.8-.78-1.44-1.19-1.5-1.22h0l-8.02-6.56-8.02,6.55h0s-.69,.44-1.5,1.23c-.65,.64-1.39,1.52-1.99,2.65-.67,1.25-1.16,2.8-1.16,4.65,0,3.88,2.15,6.86,6.55,6.86,1.72,0,3.03-.67,4-1.49-.65,1.43-1.93,3.34-4.34,5.84h12.95c-2.4-2.5-3.69-4.41-4.34-5.84,.96,.82,2.27,1.49,4,1.49,4.4,0,6.55-2.98,6.55-6.86Z"/><path class="i" d="M130,129.5c0-1.85-.49-3.4-1.16-4.65-.6-1.13-1.35-2.02-2-2.66-.8-.78-1.44-1.19-1.5-1.22h0l-8.02-6.56-8.02,6.55h0s-.69,.44-1.5,1.23c-.65,.64-1.39,1.52-1.99,2.65-.67,1.25-1.16,2.8-1.16,4.65,0,3.88,2.15,6.86,6.55,6.86,1.72,0,3.03-.67,4-1.49-.65,1.43-1.93,3.34-4.34,5.84h12.95c-2.4-2.5-3.69-4.41-4.34-5.84,.96,.82,2.27,1.49,4,1.49,4.4,0,6.55-2.98,6.55-6.86Z"/><path class="i" d="M104.64,207.62c0,1.85,.49,3.4,1.16,4.65,.6,1.13,1.35,2.02,2,2.66,.8,.78,1.44,1.19,1.5,1.22h0l8.02,6.56,8.02-6.55h0s.69-.44,1.5-1.23c.65-.64,1.39-1.52,1.99-2.65,.67-1.25,1.16-2.8,1.16-4.65,0-3.88-2.15-6.86-6.55-6.86-1.72,0-3.03,.67-4,1.49,.65-1.43,1.93-3.34,4.34-5.84h-12.95c2.4,2.5,3.69,4.41,4.34,5.84-.96-.82-2.27-1.49-4-1.49-4.4,0-6.55,2.98-6.55,6.86Z"/></g><g id="f"/><g id="g"><path class="k" d="M76.27,243.31c2.31,1.56,3.64-4.44,5-5.64,.89-1.05,2.18-.74,2.21,.7,.07,1.13-1.02,1.8-2.06,1.7-1.35-.08-2.1-1.45-2.21-2.65-.11-1.21,.41-2.4,1.3-3.19,2.19-1.9,4.45,.27,5.78,2.07,1.34,1.84,2.31,4.22,1.59,6.51-.69,2.14-2.88,2.41-4.51,1.09-.64-.42-1.1-1.23-1.89-1.38-.2-.06-.44-.07-.62,.08-.46,.45-.55,1.58-.04,2.07,1.88,.99,1.28-7.14,1.36-8.14,.66,2.2,.48,4.54,.17,6.79-.06,.76-.71,2.33-1.74,1.61-.92-.88-.48-2.99,.94-3.01,.99,.04,1.47,.98,2.2,1.49,1.34,1.11,3.07,1.03,3.72-.75,.92-2.66-.53-5.61-2.47-7.46-.76-.76-1.7-1.52-2.83-1.38-1.63,.21-2.72,2.02-2.54,3.56,.13,.99,.79,2.04,1.85,2.09,.44,.03,.97-.09,1.24-.45,.23-.34,.22-.94-.01-1.24-1.07-.94-2.87,3.88-3.54,4.63-.5,.92-2.07,2.16-2.89,.91h0Z"/></g></svg>