<?xml version="1.0" encoding="UTF-8"?><svg xmlns="http://www.w3.org/2000/svg" viewBox="0 0 164.41 255.12"><defs><style>.h{fill:#040504;}.i{fill:#040506;}.j{fill:#010101;}.k{fill:#060708;}.l{fill:#f59e57;}.m{fill:#e9e9e9;}.n{fill:#e8ecec;}.o{fill:#e5cb33;}.p{fill:#fcf3e7;}.q{fill:#b5a8a9;}.r{fill:#2f8868;}.s{fill:#aecd59;}.t{fill:#ca1517;}.u{fill:#e1d8ce;}.v{fill:#0a0b0b;}.w{fill:#845f23;}.x{fill:none;stroke:#010101;stroke-linecap:round;stroke-miterlimit:10;stroke-width:.5px;}.y{fill:#1d1d1b;font-family:DINAlternate-Bold, DIN Alternate;font-size:18px;}</style></defs><g id="a"/><g id="b"/><g id="c"><g><path class="m" d="M13.62,.5H150.79c7.24,0,13.12,5.88,13.12,13.12V241.5c0,7.24-5.88,13.12-13.12,13.12H13.62c-7.24,0-13.12-5.88-13.12-13.12V13.62C.5,6.38,6.38,.5,13.62,.5Z"/><path class="h" d="M150.79,1c6.96,0,12.62,5.66,12.62,12.62V241.5c0,6.96-5.66,12.62-12.62,12.62H13.62c-6.96,0-12.62-5.66-12.62-12.62V13.62C1,6.66,6.66,1,13.62,1H150.79M150.79,0H13.62C6.1,0,0,6.1,0,13.62V241.5C0,249.02,6.1,255.12,13.62,255.12H150.79c7.52,0,13.62-6.1,13.62-13.62V13.62C164.41,6.1,158.31,0,150.79,0h0Z"/></g></g><g id="d"><text class="y" transform="translate(9.69 22.5)"><tspan x="0" y="0">7</tspan></text><text class="y" transform="translate(154.73 232.62) rotate(-180)"><tspan x="0" y="0">7</tspan></text></g><g id="e"><path class="t" d="M34.95,16.06c-2.07-1.92-3.88-4.05-5.45-6.38h-.06c-1.57,2.33-3.38,4.46-5.45,6.38v.06c2.07,1.92,3.88,4.05,5.45,6.38h.06c1.57-2.33,3.38-4.46,5.45-6.38v-.06Z"/><path class="t" d="M129.46,239.05c2.07,1.92,3.88,4.05,5.45,6.38h.06c1.57-2.33,3.38-4.46,5.45-6.38v-.06c-2.07-1.92-3.88-4.05-5.45-6.38h-.06c-1.57,2.33-3.38,4.46-5.45,6.38v.06Z"/></g><g id="f"><g><path class="r" d="M69.33,148.5s-15.39,14.37-27.39,16.21c-12,1.85-9.23,12-9.23,12h99.25s.46-11.54-4.15-12-22.7-14.09-29.82-17.9l-28.66,1.68Z"/><polygon class="u" points="69.33 148.5 69.33 150.88 75.91 161.04 99 159.19 97.99 146.82 69.33 148.5"/><path class="p" d="M63.09,115.56s-2.68,32.99,13.48,38.53c16.16,5.54,28.16-5.9,28.16-41.96,0,0-24.18,6.44-41.64,3.43Z"/><ellipse class="v" cx="92.49" cy="122.7" rx="2.54" ry="1.85"/><ellipse class="v" cx="73.57" cy="123.17" rx="2.43" ry="1.85"/><path class="j" d="M83.69,142.55c3.68,0,6.66-1.09,6.66-.61s-2.98,2.35-6.66,2.35-6.66-2-6.66-2.48,2.98,.73,6.66,.73Z"/><path class="l" d="M83.03,136.09c-.6-.65-1.33-1.16-2.14-1.5-2.9-1.21-5.73,.33-6.17,.58,0,0-1.85,.92-3.23,0,0,0,0,4.15,4.15,4.62s6.92-1.85,8.77-1.38c2.87,1.8,6.27,2,8.77,.46,1.22-.78,2.19-1.9,2.77-3.23-.78,.33-1.63,.42-2.46,.25-.94-.21-1.33-.7-2.62-1.17-.6-.22-1.22-.37-1.85-.46-.46-.07-.93-.07-1.38,0-.48,.08-.95,.24-1.38,.46-.5,.24-.97,.55-1.38,.92-.53,.38-1.19,.55-1.85,.46h0Z"/><path class="w" d="M59.59,110.65c-5.74-1.93-8.81-2.49-9.22-1.69-.28,.55,.69,1.75,2.92,3.6,1.77,.94,3.63,1.71,5.54,2.31,4.51,1.41,8.26,1.52,12.14,1.49,5.95-.05,11.89-.11,20.64-1.49,5.61-.89,11.16-2.12,16.62-3.69,1.55-.66,2.95-1.6,4.15-2.77,.32-.32,2.49-2.44,2.13-2.95-.28-.4-2.2,.09-9.79,4.32l-2.77-28.16s0-3.23-7.39-3.23c0,0-21.7-.46-31.39,2.31-.86,.23-1.65,.67-2.29,1.29-1.7,1.7-1.59,4.26-1.52,6.09,.17,4.56,.04,9.12,.23,13.68,.08,2.01,.15,5.08,0,8.89Z"/><path class="i" d="M59.7,105.49c7.08,.72,14.21,.99,21.32,.83,7.76-.18,15.49-.89,23.15-2.12,.18,1.85,.37,3.69,.55,5.54-6.46,.98-12.98,1.59-19.51,1.83-8.55,.32-17.12,.01-25.63-.92,.04-1.72,.07-3.44,.11-5.16Z"/><path class="o" d="M85.45,113.81h-8.99v-11.76h8.99v11.76Zm-8.31-.68h7.63v-10.4h-7.63v10.4Z"/><path class="n" d="M69.4,148.49c2.59,7.3,9.44,11.72,15.98,10.93,8.09-.98,12.99-9.61,12.51-11.84-.02-.1-.15-.61,0-.68,.28-.14,1.33,1.31,2.28,2.74,2.43,5.5,2.24,9.35,1.6,11.85-.58,2.26-1.98,5.26-2.28,8.66-.19,2.19-.23,4.56-.23,4.56-.01,.85,0,1.56,0,2.05h-26.67c.21-1.13,.28-2.27,.23-3.42-.1-1.72-.48-3.42-1.14-5.02-2.41-6.21-3.62-9.32-3.84-10.75-.32-2.02-.3-5.06,1.56-9.08Z"/><polygon class="j" points="79.26 164.69 81.45 164.69 81.45 162.77 86.67 162.77 80.63 175.39 83.37 175.39 89.68 162.77 89.68 160.57 79.26 160.57 79.26 164.69"/><path class="s" d="M82.38,101.46l.16-.25s-4.02-2.44-1.25-9h-.26s-2.83,6.35,1.34,9.25Z"/><path class="s" d="M82.15,88.01c-.1-.08-.22-.14-.34-.17-.39-.12-.59,.05-.92-.1-.09-.04-.09-.06-.31-.18,0,0-.19-.1-.37-.18-.37-.15-.77-.26-1.17-.31-.29-.04-.59-.06-.88-.04-.03,0-.05,0-.08,0-.3-.04-.46-.5-.54-.73-.14-.41-.18-.84-.12-1.26,0,0,.35-1.64,2.17-1.29,.05-.33,.2-.64,.41-.9,.47-.54,1.19-.78,1.89-.64,.46,.09,.87,.34,1.15,.72,.3,.45,.39,1,.25,1.52-.2,.46-.37,.98-.56,1.54-.27,.81-.54,1.7-.48,2.03,.11-.17,.18-.37,.21-.57,0-.22,0-.44,.03-.66,.02-.08,.04-.17,.07-.25,.54-1.63,.53-1.62,.59-1.74,.07-.14,.13-.28,.16-.43,.03-.16,.04-.33,.04-.49,.07-.39,.78-.69,1.36-.7,.79,0,1.5,.46,1.79,1.19,.12,.35,.14,.73,.04,1.09,.38,.08,.73,.27,1,.55,.61,.67,.71,1.67,.23,2.44-.3,.42-.86,.76-1.15,.64-.19-.1-.37-.21-.53-.35-.03-.02-.05-.04-.08-.06-.09-.05-.2-.09-.31-.1-.09-.02-.21-.04-.37-.08-.32-.08-.65-.15-.98-.18-.15-.01-.3-.02-.45-.02-.1,0-.21,0-.31,.02-.08,.01-.09,.02-.12,.02-.15,0-.29-.05-.41-.14-.22-.12-.47-.16-.72-.1,.13,.1,.27,.18,.43,.23,.23,.06,.47,.07,.7,.02,.53-.08,.98,0,1.89,.16,.26,.02,.52,.1,.74,.25,.12,.1,.25,.19,.38,.27,.08,.05,.13,.08,.14,.08,.27,.15,.91,1.48,.25,2.54-.44,.7-1.3,1.03-1.64,.9-.05-.02-.39-.16-.39-.16h0c-.19,.58-.61,1.06-1.17,1.31-.07,.03-1.07,.44-1.78-.08-.33-.27-.56-.64-.68-1.05,0-.02-.03-.1-.05-.2-.06-.37-.04-.75,.05-1.11,.08-.39,.21-.77,.39-1.13,0,0,.76-1.52,.64-1.97-.04,.08-.07,.16-.1,.25-.07,.23-.1,.46-.1,.7-.01,.18-.05,.15-.43,1.03-.13,.28-.24,.57-.33,.86-.05,.18-.08,.37-.1,.55-.04,.22-.05,.44-.02,.66,.02,.05,.03,.11,.02,.16-.03,.15-.19,.25-.4,.35-.29,.16-.61,.25-.94,.27-1.6,.06-2.05-1.23-1.93-2.26-.49-.18-.91-.53-1.17-.98-.31-.56-.47-1.44-.02-2.05,.61-.84,1.96-.65,2.32-.59,.54,.07,1.06,.24,1.54,.49,.35,.31,.8,.48,1.27,.49,.1,0,.2-.01,.3-.03Z"/><path class="k" d="M82.78,93.9c-.33,0-.65-.09-.92-.28-.34-.28-.58-.65-.7-1.08v-.05c-.11,.1-.23,.17-.36,.22-.3,.16-.62,.25-.96,.27-.56,.06-1.11-.14-1.5-.54-.4-.48-.58-1.11-.49-1.73-.49-.19-.9-.54-1.16-.99-.34-.6-.47-1.49-.02-2.11,.29-.37,.72-.6,1.18-.64-.18-.19-.31-.42-.38-.67-.14-.41-.18-.86-.12-1.29,.23-.97,1.2-1.58,2.17-1.35h.01c.06-.32,.2-.62,.41-.87,.48-.56,1.22-.81,1.94-.66,.48,.08,.9,.35,1.18,.75,.16,.23,.26,.49,.3,.76,.23-.31,.82-.53,1.32-.54h.02c.8,0,1.52,.49,1.83,1.23,.12,.34,.14,.71,.06,1.06,.37,.09,.71,.28,.98,.56,.63,.69,.73,1.72,.23,2.51-.25,.36-.69,.67-1.03,.69,.16,.23,.28,.49,.35,.76,.17,.58,.09,1.21-.22,1.73-.46,.73-1.35,1.06-1.71,.93-.03-.01-.23-.1-.33-.14-.2,.57-.63,1.04-1.18,1.29-.29,.12-.61,.19-.93,.19Zm-1.55-1.56c.02,.08,.03,.14,.04,.17,.11,.4,.34,.75,.66,1.02,.7,.51,1.69,.09,1.73,.08,.54-.25,.95-.71,1.14-1.28l.02-.06,.06,.02s.34,.15,.39,.16c.29,.11,1.13-.18,1.57-.88,.29-.5,.36-1.09,.2-1.64-.06-.31-.21-.6-.43-.82-.19-.1-.38-.22-.54-.36,0,0-.02-.02-.04-.04-.07-.04-.14-.07-.22-.1-.03,0-.05-.01-.08-.02h-.02c-.12-.03-.24-.05-.37-.09h-.05c-.84-.16-1.27-.23-1.77-.17h-.06c-.23,.05-.47,.04-.69-.02-.16-.05-.32-.13-.45-.24h-.01c.06,.21-.06,.63-.21,1.03-.02,.1-.06,.2-.11,.29v.02c-.16,.35-.3,.63-.32,.67-.12,.28-.19,.45-.24,.58-.04,.13-.08,.26-.11,.4-.02,.11-.05,.25-.07,.42-.02,.16-.03,.29-.04,.39,0,.05,0,.09,0,.14,0,.04,0,.08,.02,.11v.04s.03,.1,.02,.15h0Zm-3.17-5.27c-.59,.05-1.02,.25-1.29,.61-.42,.58-.28,1.44,.02,1.99,.26,.44,.66,.78,1.14,.96l.04,.02v.04c-.1,.6,.07,1.21,.45,1.69,.37,.37,.89,.56,1.41,.51,.32-.02,.63-.11,.92-.26,.16-.07,.32-.16,.36-.28h0c-.02-.1-.03-.2-.03-.29,0-.05,0-.11,0-.16,0-.23,.03-.46,.08-.68,0-.05,.02-.09,.03-.14,.01-.05,.02-.1,.03-.13,.02-.09,.05-.19,.09-.28,.07-.2,.15-.4,.25-.59,.14-.33,.24-.53,.3-.66,.04-.1,.08-.2,.12-.31v-.04s0-.07,0-.11c0-.3,.07-.59,.21-.86h0v-.04h-.04c-.1,.03-.2,.04-.31,.04h-.02c-.47-.01-.93-.19-1.28-.5-.02,0-.07-.04-.14-.08-.43-.2-.89-.34-1.37-.41-.29-.04-.58-.06-.87-.04-.03,0-.06,0-.09,0h-.01Zm8.6,1.94c.25,.11,.78-.2,1.08-.62,.47-.75,.38-1.72-.22-2.37-.26-.27-.6-.46-.98-.54h-.06v-.07c.11-.35,.1-.71-.02-1.05-.29-.7-.97-1.15-1.72-1.15h-.02c-.54,0-1.23,.28-1.31,.64,0,.12,0,.24-.02,.36,0,.04-.01,.09-.03,.15v.04l-.02,.04h0c-.03,.12-.08,.23-.13,.33-.07,.17-.13,.35-.19,.52l-.08,.23c-.08,.24-.19,.56-.34,1.01-.03,.08-.05,.16-.07,.24-.03,.14-.04,.28-.03,.42,0,.08,0,.15,0,.23-.02,.21-.09,.4-.2,.58h.03c.26-.06,.52-.02,.76,.11l.03,.02c.1,.08,.22,.12,.35,.12h.04s.04-.01,.08-.02c.1-.01,.21-.02,.32-.02,.15,0,.31,0,.46,.02,.32,.04,.63,.09,.94,.17h.07c.15,.04,.31,.07,.45,.11,.08,.02,.16,.05,.22,.09,.01,0,.03,.02,.04,.03,.02,.01,.04,.02,.05,.04h.01c.12,.1,.24,.19,.36,.26,.07,.04,.12,.07,.14,.08h0Zm-4.48-.58c-.02,.07-.04,.14-.05,.21,.02-.08,.04-.15,.05-.21h0Zm.33-.33c.09,.05,.19,.1,.29,.13,.11,.03,.23,.05,.35,.05h0s-.06-.04-.09-.05l-.02-.02c-.16-.09-.34-.13-.53-.11h0Zm-1.3-.24c.21,.08,.43,.13,.65,.12,.05,0,.09,0,.14,0-.06-.04-.13-.06-.2-.09-.14-.04-.29-.06-.44-.04-.05,0-.1,0-.15,0Zm.3-.13c.11,0,.22,.02,.33,.05,.13,.04,.25,.1,.35,.18-.02-.31,.14-.98,.49-2.01,.07-.22,.15-.45,.24-.69,.05-.17,.11-.34,.18-.51v-.02h.01c.04-.11,.08-.22,.13-.32,0-.02,.01-.05,.02-.07,0-.04,.02-.1,.03-.17,0-.06,0-.12,0-.17,0-.05,0-.1,0-.15,0-.32-.11-.64-.3-.91-.26-.37-.66-.62-1.11-.7-.68-.14-1.38,.1-1.83,.62-.21,.25-.34,.55-.4,.88v.06h-.07c-1.75-.35-2.09,1.17-2.11,1.24-.06,.41-.02,.84,.12,1.23,.07,.21,.22,.63,.47,.69,.33-.02,.66,0,.98,.04,.41,.05,.81,.16,1.18,.31,.07,.03,.15,.07,.21,.1,.1,.05,.15,.08,.16,.08,.07,.04,.15,.08,.21,.13,.03,.02,.06,.04,.09,.05,.14,.06,.29,.08,.43,.06,.05,0,.1,0,.16,0h0Zm.89-.46c-.04,.16-.07,.33-.09,.5,.05-.11,.08-.23,.09-.35,0-.05,0-.1,0-.15h0Z"/><path class="x" d="M68.29,120.86s3.67-4.25,8.22-1.43"/><path class="x" d="M97.53,120.86s-3.67-4.25-8.22-1.43"/></g></g><g id="g"><path class="q" d="M76.27,243.4c2.31,1.56,3.64-4.44,5-5.64,.89-1.05,2.18-.74,2.21,.7,.07,1.13-1.02,1.8-2.06,1.7-1.35-.08-2.1-1.45-2.21-2.65-.11-1.21,.41-2.4,1.3-3.19,2.19-1.9,4.45,.27,5.78,2.07,1.34,1.84,2.31,4.22,1.59,6.51-.69,2.14-2.88,2.41-4.51,1.09-.64-.42-1.1-1.23-1.89-1.38-.2-.06-.44-.07-.62,.08-.46,.45-.55,1.58-.04,2.07,1.88,.99,1.28-7.14,1.36-8.14,.66,2.2,.48,4.54,.17,6.79-.06,.76-.71,2.33-1.74,1.61-.92-.88-.48-2.99,.94-3.01,.99,.04,1.47,.98,2.2,1.49,1.34,1.11,3.07,1.03,3.72-.75,.92-2.66-.53-5.61-2.47-7.46-.76-.76-1.7-1.52-2.83-1.38-1.63,.21-2.72,2.02-2.54,3.56,.13,.99,.79,2.04,1.85,2.09,.44,.03,.97-.09,1.24-.45,.23-.34,.22-.94-.01-1.24-1.07-.94-2.87,3.88-3.54,4.63-.5,.92-2.07,2.16-2.89,.91h0Z"/></g></svg>