<?xml version="1.0" encoding="UTF-8"?><svg xmlns="http://www.w3.org/2000/svg" viewBox="0 0 164.41 255.12"><defs><style>.h{fill:#010101;}.i{fill:#020303;}.j{fill:#fff;}.k{fill:#e52522;}</style></defs><g id="a"/><g id="b"><g><path class="j" d="M13.62,.5H150.79c7.24,0,13.12,5.88,13.12,13.12V241.5c0,7.24-5.88,13.12-13.12,13.12H13.62c-7.24,0-13.12-5.88-13.12-13.12V13.62C.5,6.38,6.38,.5,13.62,.5Z"/><path class="i" d="M150.79,1c6.96,0,12.62,5.66,12.62,12.62V241.5c0,6.96-5.66,12.62-12.62,12.62H13.62c-6.96,0-12.62-5.66-12.62-12.62V13.62C1,6.66,6.66,1,13.62,1H150.79M150.79,0H13.62C6.1,0,0,6.1,0,13.62V241.5C0,249.02,6.1,255.12,13.62,255.12H150.79c7.52,0,13.62-6.1,13.62-13.62V13.62C164.41,6.1,158.31,0,150.79,0h0Z"/></g><g><g><path class="j" d="M57.78,80.67c-.07,.09-.14,.17-.21,.25-.52,.59-.94,.89-.97,.91h0l-2.6,2.45c1.05-1.41,2.33-2.63,3.78-3.62Z"/><path class="h" d="M57.53,80.3l-.06,.04h0c-1.45,1-2.72,2.21-3.78,3.62l-.05,.06,.67,.59,.03-.02,2.44-2.31,.27-.23c.19-.15,.5-.43,.85-.83,.07-.07,.13-.14,.19-.22,.01-.02,.03-.03,.04-.05l1.46-1.83-2.06,1.18Z"/></g><g><path class="k" d="M150.85,10.47c-3.25,0-5.32,2.2-6.45,3.96-.76,1.18-1.1,2.16-1.1,2.16,0,0-.34-.98-1.1-2.16-1.14-1.76-3.2-3.96-6.45-3.96-5.42,0-8.07,4.16-8.07,9.58,0,2.59,.61,4.75,1.43,6.5,.75,1.58,1.66,2.82,2.46,3.71,.98,1.09,1.78,1.66,1.84,1.71h0l9.88,9.15,9.88-9.15h0s.86-.61,1.85-1.71c.8-.89,1.71-2.12,2.46-3.7,.82-1.74,1.43-3.91,1.43-6.5,0-5.42-2.65-9.58-8.07-9.58Z"/><path class="h" d="M151.29,226.02c-.5,0-1.03,.05-1.57,.14,.98-1.8,1.56-3.84,1.56-5.62,0-4.42-3.58-7.99-7.99-7.99s-7.99,3.58-7.99,7.99c0,1.78,.58,3.82,1.56,5.62-.54-.09-1.06-.14-1.57-.14-4.42,0-7.99,3.58-7.99,7.99s3.58,7.99,7.99,7.99c1.71,0,3.67-.54,5.42-1.46-.78,1.6-2.23,3.7-4.83,6.4h14.8c-2.59-2.7-4.05-4.8-4.83-6.4,1.75,.92,3.71,1.46,5.42,1.46,4.42,0,7.99-3.58,7.99-7.99s-3.58-7.99-7.99-7.99Z"/><path class="h" d="M35.1,25.41c0-2.12-.56-3.89-1.33-5.32-.69-1.3-1.54-2.31-2.29-3.03-.91-.89-1.65-1.36-1.71-1.4h0l-9.17-7.49-9.17,7.49h0s-.79,.5-1.71,1.4c-.74,.73-1.59,1.74-2.28,3.03-.76,1.43-1.33,3.2-1.33,5.32,0,4.44,2.45,7.84,7.48,7.84,1.97,0,3.47-.77,4.57-1.7-.74,1.63-2.21,3.81-4.96,6.67h14.8c-2.75-2.86-4.22-5.04-4.96-6.67,1.1,.93,2.6,1.7,4.57,1.7,5.03,0,7.48-3.41,7.48-7.84Z"/><path class="k" d="M35.32,229.67c-5.56-5.15-10.42-10.87-14.64-17.12h-.16c-4.21,6.25-9.08,11.97-14.64,17.12v.15c5.56,5.15,10.42,10.87,14.64,17.12h.16c4.21-6.25,9.08-11.97,14.64-17.12v-.15Z"/></g><path class="h" d="M77.27,80.79c-.09-.2-.2-.4-.3-.61l-.06-.11-.09,.09c-.1,.1-.19,.21-.29,.31l-.07,.09,.1,.05c.2,.1,.4,.2,.59,.3l.24,.12-.12-.24Zm-.52-.29s.08-.08,.12-.13c.04,.09,.08,.17,.12,.26-.08-.04-.16-.09-.24-.13Zm-23.66,23.06s-.08-.07-.12-.1l-.23-.2-.07-.06,.03,.08,.13,.29,.06,.12,.04,.08,.08-.04s.03-.01,.05-.02l.17-.04-.14-.11Zm46.83,1.25c-.74-1.05-1.35-2.2-1.84-3.41l-.02-.04-.12-.03-.03,.04c-.92,.92-1.93,1.74-3.01,2.42l-.04,.02-.02,.1,.03,.03c.73,1.05,1.34,2.19,1.83,3.4l.02,.05,.12,.02,.03-.03c.92-.93,1.93-1.74,3.01-2.42l.04-.02,.02-.1-.02-.03Zm-3.1,2.36c-.47-1.16-1.07-2.26-1.77-3.27,1.04-.66,2.02-1.44,2.91-2.33,.47,1.16,1.06,2.26,1.77,3.28-1.04,.66-2.02,1.44-2.91,2.32Zm-11.25,15.54l-.15-.06c-.75-.3-1.6-.63-1.83-3.78l-.92-12.43c-.02-.38-.04-.73-.04-1.04,0-2.22,.69-2.62,1.3-2.97l.14-.08-.04-.49-5.43,.4,.03,.49,.15,.06c.75,.29,1.61,.63,1.84,3.78l.81,11.04-7.7-15.01-5.13,.38,.03,.49,.15,.06c.64,.25,1.3,.51,1.65,2.33,.08,.41,.14,.88,.19,1.45l.91,12.43c.03,.38,.04,.72,.04,1.03,0,2.23-.68,2.62-1.29,2.98l-.14,.08,.03,.49,5.44-.4-.04-.49-.15-.06c-.75-.3-1.6-.63-1.83-3.78l-.79-10.75,6.85,13.23,.77,1.49,5.19-.38-.04-.49Zm-12.16-3.09c.24,3.26,1.15,3.62,1.95,3.94h.04l.02,.21-5.08,.38-.02-.2,.05-.03c.65-.37,1.38-.8,1.38-3.13,0-.31,0-.66-.04-1.04l-.92-12.43c-.04-.58-.1-1.06-.18-1.47-.37-1.92-1.11-2.21-1.76-2.47l-.05-.02v-.19l4.83-.36,8.05,15.69-.88-11.92c-.24-3.26-1.15-3.62-1.95-3.94l-.04-.02-.02-.19,5.08-.38v.2l-.03,.02c-.65,.38-1.39,.81-1.39,3.13,0,.31,.02,.66,.05,1.05l.91,12.43c.24,3.26,1.15,3.62,1.95,3.94h.04l.02,.21-4.89,.36-7.98-15.39,.86,11.62Zm20.47-11.65l-.08,.39,.11,.09c.35,.26,.73,.55,.74,1.56,0,.39-.06,.88-.2,1.53l-1.97,9.17c-.5,2.32-1.18,2.48-1.78,2.63l-.13,.03-.08,.4,5.37,1.08,.08-.39-.11-.09c-.35-.26-.73-.55-.74-1.56,0-.39,.06-.88,.2-1.52l1.98-9.18c.06-.28,.12-.52,.18-.74,.47-1.61,1.04-1.75,1.59-1.88l.13-.04,.09-.39-5.38-1.09Zm5.14,1.34h-.03c-.57,.14-1.21,.3-1.71,2.01-.07,.22-.13,.47-.19,.75l-1.98,9.18c-.14,.65-.2,1.17-.2,1.57,0,1.09,.43,1.41,.81,1.7h.02l-.02,.12-5.02-1.01,.02-.11h.02c.65-.17,1.39-.35,1.91-2.77l1.89-8.77,.09-.4c.14-.66,.2-1.18,.2-1.58,0-1.09-.43-1.41-.81-1.7h-.02l.02-.12,5.02,1.02-.02,.11Zm11.6-2.24l-1.58-.79-5.22,8.03,.61,.31,.05-.06c3.48-4.17,6.66-5.83,8.94-4.68l.16,.08-7.05,14.01c-1.42,2.82-2.34,2.8-3.15,2.79h-.16l-.22,.44,6.31,3.17,.22-.43-.1-.13c-.25-.33-.53-.69-.53-1.36,0-.61,.23-1.48,.91-2.83l7.05-14,.21,.1c1.48,.75,2.24,2.47,2.24,5.05,0,.69-.05,1.44-.16,2.24-.05,.34-.1,.67-.15,.98-.1,.55-.23,1.13-.37,1.7v.07l.6,.31,3.32-8.89,.03-.08-11.96-6.03Zm8.2,14.59c.14-.55,.26-1.1,.35-1.64,.06-.31,.11-.64,.15-.98,.11-.82,.17-1.57,.17-2.27,0-2.65-.79-4.43-2.34-5.21l-.37-.18-6.32,12.56c-.08-.11-.17-.21-.25-.31-.59-.74-1.2-1.46-1.83-2.15-.08-.1-.16-.19-.25-.29l4.97-9.87,.72-1.43-.32-.17c-2.39-1.2-5.54,.41-9.11,4.67l-.31-.15,5.02-7.73,13.25,6.68-3.22,8.63-.31-.16Zm-10.1,6.79c0,.72,.3,1.11,.57,1.47l.03,.04-.09,.17-5.99-3.01,.09-.18h.05c.86,.01,1.84,.03,3.31-2.89l1.35-2.69c.09,.09,.17,.19,.26,.29,.62,.69,1.24,1.42,1.82,2.16,.09,.1,.17,.21,.25,.31l-.72,1.42c-.69,1.38-.93,2.28-.93,2.91Zm-45.45-5.74l-5.03-11.73c-.54-1.27-.73-2.12-.73-2.72,0-.77,.32-1.14,.62-1.48l.1-.13-.19-.45-5.01,2.15,.19,.45h.17c.8,.04,1.71,.09,2.96,2.99l4.96,11.56c.11,.28,.17,.55,.17,.82,0,1.39-1.41,2.71-3.06,3.42-1.71,.73-3.34,.71-4.17-.06-.19-.17-.34-.38-.45-.63l-5.07-11.85c-.22-.5-.39-.96-.51-1.36-.16-.56-.23-1-.23-1.35,0-.77,.31-1.13,.62-1.49l.11-.12-.19-.45-6.47,2.77,.19,.45h.16c.81,.05,1.72,.09,2.96,2.99l5.03,11.73c.67,1.55,2.19,2.16,3.95,2.16,1.36,0,2.86-.37,4.22-.95,.41-.17,.8-.37,1.16-.57,.71-.4,1.35-.84,1.89-1.33,1.27-1.12,1.93-2.34,1.93-3.52,0-.44-.09-.88-.28-1.3Zm-12.7,5.44l-5.03-11.73c-1.29-3-2.26-3.05-3.12-3.09h-.05l-.08-.18,6.14-2.63,.08,.18-.03,.04c-.32,.36-.67,.76-.67,1.59,0,.38,.07,.83,.24,1.41,.12,.41,.29,.87,.51,1.38l5.08,11.85c.12,.27,.28,.5,.49,.7,.88,.81,2.59,.84,4.36,.08,1.71-.73,3.17-2.12,3.17-3.58,0-.29-.06-.59-.19-.89l-4.96-11.56c-1.29-3.01-2.26-3.05-3.12-3.09h-.04l-.08-.19,4.68-2,.07,.18-.03,.04c-.32,.37-.66,.76-.66,1.59,0,.63,.19,1.5,.75,2.8l5.03,11.73c.17,.4,.25,.81,.25,1.22,0,1.14-.63,2.31-1.86,3.4-.53,.48-1.15,.91-1.85,1.3-.36,.2-.75,.39-1.15,.57-3.03,1.3-6.81,1.5-7.93-1.12Zm-14.87,4.25l-.09-.2h0l-.23-.54-.61-1.41-.29-.68-.09-.21h0l-.84-1.95-.21-.5-.1-.22-.76-1.78-.21-.48-.09-.22h-.01l-.7-1.64-.21-.49-.09-.22h-.01l-.64-1.51-.21-.48-.09-.21h0l-.54-1.26-.22-.51-.09,.08s-.04,.04-.06,.05l-.1,.09,.16,.37,.5,1.17,.29,.66,.09,.22h.01l.56,1.32,.29,.67,.1,.22h0l.62,1.46,.29,.66,.1,.23h0l.69,1.6,.29,.68,.09,.21h.01l.75,1.77,.29,.66,.1,.24,.84,1.94,.23,.54h.33l-.14-.33Zm99.44-14.4l-.06-.06-.02-.02h-.14l-.74,1.73v.02l-.1,.2-.18,.43-.67,1.55v.02l-.1,.22-.18,.41-.73,1.7v.02l-.09,.19-.19,.44-.79,1.84v.02l-.1,.22-.18,.42-.86,2v.02l-.1,.21-.18,.42-.94,2.19v.02l-.1,.21-.18,.42-1.03,2.4v.02l-.1,.21-.13,.3h.4l.23-.53,.92-2.15h.01l.09-.23,.29-.67,.83-1.94h.01l.09-.23,.29-.67,.76-1.76h0l.09-.22,.29-.68,.69-1.59h0l.09-.22,.29-.68,.63-1.45h0l.09-.22,.29-.68,.57-1.31h0l.09-.22,.29-.67,.67-1.56-.11-.09Zm-7.61,17.59h-.01l.07-.16,.08-.19,.97-2.25,.05-.12,.21-.49,.08-.19,.88-2.04,.05-.12,.21-.49,.08-.19,.8-1.86,.05-.12,.21-.49,.08-.19,.73-1.69,.06-.14,.2-.47,.08-.19,.66-1.54,.06-.13,.21-.49,.08-.19,.6-1.4,.06-.13,.21-.49,.08-.18,.65-1.52h.01l-.65,1.52-.09,.21-.21,.49-.05,.11-.59,1.39-.1,.22-.21,.49-.05,.11-.65,1.53-.1,.22-.2,.47-.05,.12-.72,1.68-.1,.22-.21,.49-.04,.1-.8,1.85-.09,.21-.21,.49-.05,.11-.87,2.03-.09,.21-.21,.49-.05,.11-.96,2.24-.09,.21-.06,.14Zm-45.29,32.65c-.07-.19-.11-.29-.11-.29l-.05-.13-.04-.1-.03,.1h-.01l-.04,.13s-.04,.1-.12,.29l-.06,.13h.21c.06-.01,.11-.01,.16,0h.15l-.06-.13Z"/><path class="h" d="M34.75,129.62l-1.14-2.64v-.02l-.12-.27H-1.71v3.56H35.02l-.27-.63Zm-35.56-.27v-1.76H32.9l.76,1.76H-.81Z"/><path class="h" d="M113.74,90.77c-.26-1.48-.73-2.91-1.4-4.26-.38-.77-.83-1.52-1.33-2.22-.18-.25-.36-.5-.54-.72-1.43-1.79-3.26-3.28-5.29-4.31-1.9-.96-3.94-1.53-6.07-1.69-.4-.03-.81-.05-1.22-.05-2.97,0-6.4,.83-9.6,2.31,1.43-2.6,3.58-5.5,6.39-8.66,.74-.83,1.53-1.69,2.36-2.56l.73-.75h-31.08l.73,.75c1.12,1.17,2.18,2.33,3.13,3.44,2.43,2.81,4.32,5.42,5.62,7.78-3.22-1.49-6.61-2.31-9.6-2.31-.3,0-.6,.01-.87,.03-2.13,.11-4.21,.64-6.11,1.57-.71,.33-1.4,.73-2.06,1.18l-.06,.04h0l-.04,.05c-.06,.08-.13,.16-.2,.23-.34,.39-.63,.65-.78,.77h-.03l-.1,.1-.16,.11v.04l-2.47,2.32-.05,.06c-1.56,2.1-2.59,4.57-2.99,7.15-.12,.81-.18,1.63-.18,2.46,0,2.4,.51,4.7,1.52,6.85l.18,.39,.4-.16c2.16-.87,4.39-1.65,6.6-2.31,1.57-.47,3.15-.9,4.69-1.26,5.25-1.24,10.67-1.95,16.09-2.1,3.19-.09,6.41,0,9.59,.3,2.21,.2,4.43,.5,6.59,.88,3.45,.6,6.89,1.45,10.23,2.5,1.86,.59,3.72,1.25,5.54,1.98l.39,.16,.18-.38c1.01-2.16,1.53-4.46,1.53-6.85,0-.96-.09-1.92-.26-2.86Zm-1.91,8.94c-1.71-.67-3.45-1.29-5.2-1.84-3.38-1.07-6.86-1.92-10.34-2.53-2.19-.39-4.44-.69-6.67-.89-3.21-.3-6.47-.4-9.7-.3-5.48,.15-10.95,.87-16.26,2.12-1.57,.36-3.16,.79-4.75,1.27-2.1,.63-4.21,1.36-6.28,2.18-.84-1.92-1.27-3.97-1.27-6.09,0-.78,.06-1.56,.18-2.33,.37-2.41,1.34-4.74,2.8-6.71l2.44-2.31,.27-.23c.19-.15,.5-.43,.85-.83,.07-.07,.13-.14,.19-.22,2.27-1.53,4.92-2.41,7.66-2.56,.26-.01,.53-.02,.82-.02,3.05,0,6.55,.89,9.83,2.51,.2,.1,.39,.2,.59,.3l1.19,.62-.58-1.21c-.1-.21-.21-.42-.32-.63-1.33-2.56-3.36-5.44-6.05-8.55-.76-.88-1.58-1.79-2.44-2.71h26.89c-.58,.62-1.14,1.23-1.67,1.82-3.31,3.72-5.72,7.11-7.15,10.07l-.59,1.22,1.2-.63c3.41-1.79,7.21-2.81,10.42-2.81,.39,0,.78,.01,1.15,.04,2.01,.15,3.94,.69,5.73,1.6,1.92,.98,3.65,2.38,5,4.07,.17,.21,.34,.44,.51,.68,.47,.66,.9,1.36,1.26,2.1,.62,1.27,1.07,2.62,1.32,4.02,.16,.88,.24,1.79,.24,2.7,0,2.11-.43,4.16-1.27,6.08Z"/><path class="h" d="M133.63,122.75l-.54,1.28,.55-1.28h-.01Zm32.04-.9h-32.35s-.07,0-.1,.02c-.03,.01-.06,.02-.09,.04-.09,.04-.16,.12-.2,.22l-1.01,2.34c-.05,.13-.04,.27,.02,.38,0,.02,.01,.03,.02,.04,.01,.02,.02,.04,.04,.05,.02,.03,.04,.05,.07,.06,0,0,0,.01,.01,.01,.01,.02,.03,.03,.05,.04,0,0,.01,.01,.02,.01l.09,.03s.06,.01,.09,.01h33.34c.25,0,.45-.21,.45-.45v-2.35c0-.24-.2-.45-.45-.45Zm-32.66,2.35l.08-.17,.55-1.28h31.59v1.45h-32.22Z"/><path class="h" d="M132.62,125.1l-.58,1.35,.59-1.35h-.01Zm33.05-.9h-33.35s-.08,.01-.11,.02c-.03,0-.05,.02-.08,.03-.09,.04-.17,.12-.21,.22l-1.07,2.5-.03,.08c-.02,.1-.01,.21,.05,.3,0,0,.01,.03,.02,.04,.01,.02,.02,.03,.04,.04,.01,.03,.04,.05,.07,.06,0,0,0,.02,.01,.01,0,.02,.02,.03,.04,.03,.01,.01,.02,.02,.04,.02,.02,.02,.05,.02,.08,.03s.06,.01,.09,.01h34.41c.25,0,.45-.2,.45-.45v-2.49c0-.25-.2-.45-.45-.45Zm-33.73,2.49l.1-.24,.59-1.35h32.6v1.59h-33.29Z"/><path class="h" d="M130.41,130.25l-.83,1.94,.84-1.94h-.01Zm35.26-.9h-35.57s-.07,0-.1,.02c-.03,.01-.06,.02-.09,.04-.09,.04-.16,.12-.2,.21l-1.22,2.85-.03,.08c-.02,.1-.01,.2,.05,.29,0,.02,0,.03,.02,.05s.02,.03,.04,.04c.01,.03,.04,.05,.07,.06h0s.03,.04,.05,.04c.01,.01,.02,.02,.03,.02l.09,.03s.06,.01,.09,.01h36.77c.25,0,.45-.2,.45-.45v-2.84c0-.25-.2-.45-.45-.45Zm-36.09,2.84l.84-1.94h34.81v1.94h-35.65Z"/><path class="h" d="M165.67,132.19h-36.79s-.07,.01-.1,.02-.06,.02-.09,.04c-.09,.04-.16,.12-.2,.22l-.03,.08-1.28,2.96c-.06,.14-.04,.29,.04,.42,0,.01,.02,.03,.03,.04,.03,.05,.08,.08,.13,.11,.01,0,.02,.01,.03,.01,.05,.03,.12,.04,.18,.04h38.08c.25,0,.45-.2,.45-.45v-3.04c0-.25-.2-.45-.45-.45Zm-37.4,3.05l.92-2.15h36.04v2.15h-36.96Z"/><g><path class="j" d="M135.14,118.12l-.85,1.98-.95,2.21-1.01,2.34-1.07,2.5-.2,.46-.95,2.2-1.22,2.84-1.31,3.04-1.4,3.26-1.51,3.51-1.63,3.79h-.16v-.18s.01,.02,.02,.03l1.56-3.64,1.51-3.51,1.4-3.26h0l1.31-3.04,1.22-2.84,.95-2.2,.2-.46,1.07-2.5,1.01-2.34,.95-2.21h0l.89-2.08h.04s.08,.07,.12,.11Z"/><path class="h" d="M123.05,146.7h-.16c-.25,0-.45-.2-.45-.45v-.18c0-.12,.05-.23,.12-.31l4.41-10.26s.01-.02,.02-.03l6.68-15.56s.01-.02,.02-.03l.88-2.05c.07-.16,.23-.27,.41-.27h.04c.11,0,.22,.04,.3,.12l.05,.05s.04,.04,.07,.06c.14,.13,.19,.33,.11,.51l-12.09,28.14c-.07,.16-.23,.27-.41,.27Z"/></g><path class="h" d="M165.67,142.01h-41.01c-.07,0-.13,.02-.19,.06-.09,.04-.16,.12-.2,.21l-1.59,3.72-.04,.08c-.06,.12-.05,.27,.03,.39,0,.01,0,.02,.01,.03,.08,.13,.22,.2,.37,.2h42.62c.25,0,.45-.2,.45-.45v-3.79c0-.25-.2-.45-.45-.45Zm-.44,3.79h-41.5l1.24-2.89h40.26v2.89Z"/><path class="h" d="M165.67,138.5h-39.5c-.07,0-.13,.02-.19,.05-.09,.05-.16,.13-.2,.22l-1.51,3.51c-.06,.14-.05,.3,.04,.43,.01,.02,.02,.03,.04,.04,.03,.04,.07,.08,.12,.1,0,0,.02,.02,.03,.02,.05,.03,.12,.04,.18,.04h40.99c.25,0,.45-.2,.45-.45v-3.51c0-.25-.2-.45-.45-.45Zm-40.31,3.51l1.12-2.61h38.75v2.61h-39.87Z"/><g><path class="j" d="M29.46,118.01s-.02,.02-.03,.03v-.03h.03Z"/><path class="h" d="M29.89,117.88c-.06-.19-.23-.32-.43-.32h-.04s-.08,.01-.12,.01h-.01c-.1,.04-.19,.11-.25,.2,0,.01-.01,.01-.01,.02-.06,.1-.08,.22-.04,.34,0,.02,0,.04,0,.06l.02,.03c.05,.13,.17,.22,.3,.26h.05s.04,0,.06,0c.01,0,.03,0,.04,0,.04,0,.09-.01,.13-.03,.03-.01,.06-.03,.08-.05,.01,0,.02-.01,.03-.02h.02c.05-.05,.09-.1,.12-.15,.04-.06,.06-.14,.06-.21h0s-.01-.1-.02-.14Z"/></g><path class="h" d="M31.52,122.13l-.95-2.21c-.05-.12-.14-.21-.26-.24-.03-.02-.06-.02-.09-.02-.02-.01-.04-.01-.06-.01H-1.28c-.24,.01-.43,.21-.43,.44v2.21c0,.24,.19,.44,.43,.45H31.11s.07,0,.1-.01c.02,0,.04,0,.05-.02,0,0,.02-.01,.03-.01,.04-.02,.08-.04,.11-.08,.03-.01,.05-.03,.07-.06l.02-.02c.08-.13,.09-.29,.03-.42Zm-32.33-.28v-1.31H29.86l.57,1.31H-.81Z"/><path class="h" d="M32.53,124.47l-1.01-2.34c-.05-.12-.14-.21-.26-.25-.03-.01-.06-.02-.09-.02-.02,0-.04,0-.06,0H-1.28c-.24,0-.43,.22-.43,.45v2.35c0,.23,.19,.44,.43,.45H32.12s.07,0,.1-.01c.02-.01,.04-.01,.05-.02,.01,0,.02-.01,.03-.01,.04-.02,.08-.04,.11-.07,.03-.03,.05-.05,.07-.08l.02-.02c.08-.12,.09-.28,.03-.42Zm-33.34-.27v-1.45H30.82l.62,1.45H-.81Z"/><path class="h" d="M33.61,126.98v-.02l-.12-.27-.48-1.12s-.01-.02-.01-.03l-.47-1.07c-.05-.11-.14-.2-.26-.24-.03-.01-.06-.02-.09-.02-.02-.01-.04-.01-.06-.01H-1.28c-.24,.01-.43,.21-.43,.45v2.49c0,.24,.19,.44,.43,.45H33.2s.06,0,.09-.01c.02,0,.03-.01,.05-.01,.01-.01,.02-.01,.03-.02,.05,0,.09-.04,.12-.07,.02-.02,.05-.04,.06-.07,.01-.01,.02-.01,.02-.02,.08-.12,.1-.28,.04-.41Zm-34.42-.29v-1.59H31.83l.33,.78s.01,.01,.01,.02l.35,.79H-.81Z"/><path class="h" d="M35.98,132.47h0s0-.02,0-.03l-.95-2.19-.27-.63c-.05-.12-.15-.21-.27-.24-.03-.02-.06-.02-.09-.02-.02,0-.03,0-.05,0H-1.28c-.24,0-.43,.21-.43,.45v2.84c0,.24,.19,.44,.43,.45H35.57s.09-.01,.13-.02c.02-.01,.04-.01,.05-.02,.04-.02,.07-.04,.1-.07,.04-.02,.07-.05,.09-.09,.08-.13,.1-.29,.04-.42Zm-36.79-.28v-1.94H34.05l.84,1.94H-.81Z"/><path class="h" d="M37.29,135.51l-1.31-3.04h0s0-.02,0-.03c-.06-.11-.15-.19-.27-.23-.03-.01-.06-.02-.09-.01-.01-.01-.03-.01-.04-.01H-1.28c-.24,.01-.43,.21-.43,.45v3.04c0,.24,.19,.44,.43,.45H36.88c.05,0,.09-.01,.13-.02,.02,0,.04,0,.05-.02,.04-.01,.07-.03,.1-.06,.04-.03,.07-.06,.09-.1,.09-.13,.1-.28,.04-.42Zm-38.1-.27v-2.15H35.27l.93,2.15H-.81Z"/><path class="h" d="M36.59,136.13h-.01l1.03,2.37-1.02-2.37Zm2.11,2.64l-1.41-3.26c-.05-.13-.16-.22-.28-.25-.04-.01-.08-.02-.13-.02H-1.28c-.24,.01-.43,.21-.43,.44v3.27c0,.24,.19,.44,.43,.45H38.29s.08-.01,.12-.01l.06-.03,.09-.06s.07-.07,.1-.11c.08-.12,.1-.28,.04-.42Zm-39.51-.27v-2.37H36.58l1.03,2.37H-.81Z"/><g><path class="j" d="M41.52,146.16v.09h-.09l-1.63-3.79-1.2-2.79h0l-.31-.72-1.41-3.26-1.31-3.04-.47-1.09-.75-1.75-1.15-2.66-.61-1.42h0l-.46-1.08-1.01-2.34-.95-2.21-.84-1.96s.07-.07,.11-.1l.88,2.05,.95,2.21,1.01,2.34,.41,.95,.66,1.55,1.14,2.66,.75,1.75,.47,1.09,1.31,3.04,1.4,3.26,.24,.57,1.27,2.95,1.6,3.71h.01Z"/><path class="h" d="M41.52,146.7h-.09c-.18,0-.34-.11-.41-.27l-2.84-6.59v-.02l-6.01-13.92v-.02l-3.27-7.56c-.08-.18-.03-.39,.12-.52l.05-.04s.04-.04,.06-.06c.11-.09,.25-.13,.39-.1,.14,.03,.25,.13,.31,.26l12.04,28.02c.06,.08,.1,.17,.1,.28v.09c0,.25-.2,.45-.45,.45Z"/></g><g><g><path class="j" d="M41.51,146.17s-.04,.05-.06,.08v.02l-.02-.02-1.63-3.79-1.2-2.79h0l-.31-.72-1.41-3.26-1.31-3.04-.47-1.09-.75-1.75-1.15-2.66-.61-1.42h0l-.46-1.08-1.01-2.34-.95-2.21-.84-1.96s.07-.07,.11-.1l.88,2.05,.95,2.21,1.01,2.34,.41,.95,.66,1.55,1.14,2.66,.75,1.75,.47,1.09,1.31,3.04,1.4,3.26,.24,.57,1.27,2.95,1.6,3.71Z"/><path class="h" d="M41.44,146.72h-.03c-.16-.01-.31-.12-.37-.27v-.02l-2.85-6.59v-.02l-6.01-13.92v-.02l-3.27-7.56c-.08-.18-.03-.39,.12-.52l.05-.04s.04-.04,.06-.06c.11-.09,.25-.13,.39-.1,.14,.03,.25,.13,.31,.26l12.09,28.13c.06,.15,.04,.32-.06,.45l-.02,.02s-.03,.03-.04,.05h0v.02c-.1,.11-.23,.18-.37,.18Z"/></g><path class="h" d="M100.21,104.6c-.72-1.02-1.32-2.15-1.79-3.33-.06-.14-.19-.24-.34-.27h-.03c-.14-.04-.29,.01-.4,.12-.89,.9-1.89,1.7-2.94,2.37-.11,.06-.18,.17-.2,.29v.02c-.03,.12-.01,.25,.06,.35,.72,1.02,1.32,2.14,1.8,3.33,.05,.14,.18,.24,.32,.27h.12c.12,.01,.23-.03,.32-.12,.89-.91,1.89-1.7,2.94-2.37,.11-.06,.18-.16,.2-.28v-.03c.04-.12,.01-.25-.06-.35Zm-.99,.15c-.8,.53-1.56,1.13-2.27,1.8-.4-.89-.86-1.75-1.39-2.55,.8-.53,1.56-1.14,2.27-1.81,.4,.9,.86,1.75,1.39,2.56Zm-13.28,17.99c-.02-.17-.13-.32-.28-.38l-.1-.04c-.69-.27-1.4-.55-1.61-3.48l-.92-12.43c-.22-2.92,.44-3.3,1.08-3.67l.09-.05c.15-.09,.24-.25,.22-.43l-.02-.34c-.01-.11-.07-.22-.15-.29-.09-.09-.2-.13-.33-.12l-5.26,.39c-.25,.02-.43,.23-.41,.48l.02,.34c.02,.17,.12,.32,.28,.38l.1,.04c.69,.27,1.39,.55,1.61,3.48l.69,9.28-6.87-13.39c-.04-.08-.1-.14-.17-.18-.03-.02-.07-.03-.11-.04-.05-.02-.1-.02-.15-.02l-4.99,.37c-.25,.01-.43,.23-.41,.48l.02,.34c.01,.17,.12,.32,.28,.38l.1,.04c.6,.24,1.12,.44,1.43,2.07,.08,.4,.14,.86,.18,1.41l.92,12.42c.21,2.93-.45,3.31-1.08,3.68l-.1,.05c-.14,.09-.23,.25-.22,.42l.03,.34c.01,.12,.06,.23,.15,.31,.08,.07,.19,.11,.3,.11h.03l5.25-.39c.25-.02,.44-.23,.42-.48l-.03-.34c-.01-.17-.12-.32-.28-.38l-.1-.04c-.68-.28-1.39-.55-1.6-3.48l-.67-9,6.79,13.11c.09,.16,.25,.26,.44,.24l5.04-.37c.24-.02,.43-.23,.41-.48l-.02-.34Zm-12.89-3.09c.01,.17,.03,.33,.05,.49,.01,.2,.04,.39,.07,.57,.02,.17,.05,.33,.08,.47,.04,.22,.09,.41,.14,.59,.13,.46,.29,.81,.47,1.08,.03,.06,.07,.11,.11,.16,.03,.06,.08,.11,.12,.16,.12,.11,.24,.22,.36,.31h-.02l-3.16,.24h-.02c.19-.18,.35-.4,.49-.69,.05-.11,.09-.22,.13-.35,.04-.11,.07-.22,.1-.35,.02-.09,.04-.19,.05-.29,.02-.12,.04-.25,.05-.39,.05-.52,.06-1.15,0-1.93l-.92-12.43c-.04-.59-.1-1.08-.19-1.51-.25-1.32-.68-1.95-1.2-2.33l3.66-.27,7.74,15.09c.09,.19,.31,.29,.52,.23,.2-.06,.34-.25,.32-.46l-.85-11.49c-.03-.46-.08-.87-.14-1.22-.04-.24-.08-.46-.13-.66-.05-.2-.11-.38-.16-.54-.17-.49-.37-.83-.59-1.08-.11-.13-.24-.24-.37-.34h.02l3.16-.23h.01c-.06,.06-.12,.12-.18,.19h0c-.11,.15-.21,.31-.3,.5-.05,.11-.09,.22-.13,.35-.04,.11-.07,.22-.1,.35-.02,.09-.04,.19-.05,.29-.02,.12-.04,.25-.05,.39-.05,.52-.06,1.15,0,1.93l.92,12.43c.01,.17,.03,.33,.05,.49,.02,.26,.05,.51,.09,.73,.04,.24,.08,.46,.13,.66,.05,.2,.11,.38,.16,.54,.09,.25,.18,.47,.28,.65,.1,.16,.2,.3,.31,.43,0,0,0,.02,.01,.02,.12,.11,.24,.22,.36,.31h-.03l-3.69,.28-7.66-14.79c-.1-.19-.31-.29-.52-.23-.2,.06-.34,.25-.32,.46l.82,11.19Zm26.48-10.77c-.07-.1-.17-.17-.29-.19l-5.2-1.05c-.24-.05-.47,.1-.52,.34l-.06,.25c-.04,.17,.03,.35,.17,.45l.06,.05c.44,.33,.86,.65,.41,2.73l-1.97,9.18c-.45,2.09-.97,2.22-1.51,2.35l-.08,.02c-.17,.04-.3,.17-.33,.34l-.06,.25c-.02,.12,0,.24,.07,.34,.06,.1,.17,.17,.28,.19l5.2,1.06s.06,.01,.09,.01c.21,0,.39-.15,.44-.36l.05-.25c.04-.17-.03-.35-.17-.45l-.06-.05c-.44-.33-.86-.65-.41-2.73l1.98-9.18c.05-.27,.11-.5,.17-.7,.41-1.42,.84-1.52,1.33-1.64l.08-.03c.17-.04,.3-.17,.33-.33l.06-.26c.02-.11,0-.24-.06-.34Zm-2.79,3.12l-1.98,9.17c-.33,1.56-.23,2.39,.08,2.93l-3.1-.63c.49-.37,.93-1.09,1.26-2.64l1.89-8.78,.09-.4c.33-1.56,.23-2.39-.08-2.93l3.11,.63c-.41,.31-.78,.84-1.08,1.87-.06,.23-.13,.48-.19,.78Zm25.93,.74l-11.89-5.99-1.51-.76c-.21-.1-.45-.03-.58,.16l-5.11,7.88c-.07,.11-.09,.24-.06,.36,.03,.12,.12,.23,.23,.28l.46,.23c.19,.1,.41,.05,.54-.11,3.28-3.92,6.24-5.57,8.35-4.66l-6.89,13.68c-1.32,2.62-2.08,2.61-2.82,2.59h-.11c-.17,0-.33,.1-.4,.25l-.16,.31c-.11,.22-.02,.49,.2,.6l6.15,3.09c.07,.04,.13,.05,.2,.05,.17,0,.32-.09,.4-.24l.16-.31c.07-.15,.06-.34-.05-.47l-.06-.09c-.45-.58-.91-1.19,.41-3.81l6.89-13.68c2.07,1.15,2.11,4.36,1.77,6.87-.04,.33-.09,.65-.15,.96-.1,.54-.22,1.11-.35,1.68-.05,.2,.04,.41,.23,.5l.46,.23c.11,.06,.24,.07,.36,.02,.12-.05,.21-.14,.26-.26l3.29-8.8c.08-.21-.02-.45-.22-.56Zm-12.55,11.07l-.79,1.57c-.17,.33-.31,.64-.43,.92-.01,.05-.03,.09-.05,.14-.11,.26-.2,.5-.27,.73-.11,.38-.17,.7-.2,.99-.05,.5,.03,.89,.17,1.23h-.02l-4.26-2.16h-.02c.1-.03,.2-.07,.31-.1h.01c.1-.05,.21-.1,.31-.16,.11-.07,.22-.14,.33-.23,.53-.43,1.13-1.19,1.8-2.53l1.29-2.56,.08-.17,5.72-11.35c.05-.11,.06-.23,.03-.35-.04-.11-.12-.2-.23-.26l-.24-.12c-.26-.13-.55-.24-.88-.31-.14-.04-.29-.07-.44-.08-.33-.04-.68-.04-1.07,.01-.08,.01-.17,.03-.26,.04-.19,.04-.39,.09-.59,.15-.1,.03-.21,.07-.31,.11-.13,.04-.26,.09-.4,.15-.13,.06-.25,.11-.38,.18-.13,.06-.26,.13-.39,.2-.13,.07-.26,.15-.39,.23-.13,.08-.26,.16-.39,.26-.12,.08-.23,.16-.35,.24-.15,.11-.31,.22-.46,.35-.14,.11-.27,.22-.41,.34-.27,.22-.55,.47-.84,.75-.14,.14-.28,.28-.42,.42h0l.02-.03,3.52-5.44,12.69,6.39-2.28,6.09c.01-.12,.03-.25,.05-.36,.7-5.15-.9-7.11-2.37-7.85l-.29-.14c-.22-.11-.49-.03-.6,.2l-6.21,12.33-.09,.18Zm-46.52-1.24l-5.03-11.74c-1.15-2.69-.65-3.26-.17-3.82l.07-.08c.11-.13,.14-.31,.07-.47l-.13-.31c-.05-.11-.14-.2-.25-.24-.11-.05-.23-.05-.34,0l-4.85,2.08c-.11,.04-.19,.13-.24,.24-.04,.11-.04,.24,.01,.35l.13,.31c.07,.16,.22,.26,.39,.27h.11c.73,.04,1.49,.07,2.65,2.77l4.96,11.57c.62,1.44-.89,2.98-2.7,3.76-1.58,.67-3.06,.68-3.79,.01-.15-.14-.27-.31-.36-.51l-5.07-11.85c-.21-.49-.38-.94-.49-1.32-.48-1.59-.11-2.01,.31-2.5l.07-.08c.11-.13,.14-.31,.08-.47l-.14-.32c-.05-.11-.13-.19-.24-.24-.11-.04-.24-.04-.35,0l-6.3,2.7c-.23,.1-.33,.36-.24,.59l.14,.31c.07,.16,.22,.27,.39,.27h.11c.73,.04,1.49,.08,2.64,2.77l5.04,11.74c.18,.42,.42,.78,.7,1.08,.86,.9,2.15,1.28,3.57,1.28s2.96-.37,4.36-.97c.42-.18,.82-.38,1.2-.59,.73-.41,1.39-.87,1.95-1.37,1.86-1.65,2.48-3.51,1.74-5.23Zm-20.28-9.47l4.38-1.88c-.29,.57-.38,1.33,.01,2.62,.12,.43,.3,.89,.52,1.43l5.08,11.84c.14,.32,.33,.59,.57,.82,1.2,1.1,3.24,.8,4.75,.15,1.13-.48,2.08-1.19,2.68-1.98,.72-.96,.9-2.01,.49-2.96l-4.96-11.56c-.18-.43-.36-.81-.54-1.13-.05-.1-.11-.2-.16-.28-.5-.86-.97-1.32-1.4-1.57-.05-.03-.1-.06-.15-.08-.1-.05-.2-.09-.3-.12l2.91-1.25h.02c-.11,.21-.19,.46-.23,.76-.04,.28-.03,.61,.04,1.01,.01,.07,.02,.15,.04,.22,.02,.11,.05,.23,.08,.35,.06,.24,.14,.5,.24,.78,.1,.28,.22,.59,.36,.92l5.03,11.73c.77,1.81-.62,3.42-1.51,4.21h0c-.51,.46-1.11,.88-1.79,1.26-.35,.19-.72,.38-1.11,.55-2.97,1.27-6.48,1.36-7.46-.93l-5.03-11.73c-.19-.43-.37-.81-.54-1.13-.06-.1-.11-.2-.16-.28-.06-.1-.12-.19-.17-.28-.1-.16-.2-.31-.3-.43-.28-.35-.54-.6-.78-.76-.21-.14-.41-.23-.62-.29h.02Zm79.35-.37l-11.89-5.99-1.51-.76c-.21-.1-.45-.03-.58,.16l-5.11,7.88c-.07,.11-.09,.24-.06,.36,.03,.12,.12,.23,.23,.28l.46,.23c.19,.1,.41,.05,.54-.11,3.28-3.92,6.24-5.57,8.35-4.66l-6.89,13.68c-1.32,2.62-2.08,2.61-2.82,2.59h-.11c-.17,0-.33,.1-.4,.25l-.16,.31c-.11,.22-.02,.49,.2,.6l6.15,3.09c.07,.04,.13,.05,.2,.05,.17,0,.32-.09,.4-.24l.16-.31c.07-.15,.06-.34-.05-.47l-.06-.09c-.45-.58-.91-1.19,.41-3.81l6.89-13.68c2.07,1.15,2.11,4.36,1.77,6.87-.04,.33-.09,.65-.15,.96-.1,.54-.22,1.11-.35,1.68-.05,.2,.04,.41,.23,.5l.46,.23c.11,.06,.24,.07,.36,.02,.12-.05,.21-.14,.26-.26l3.29-8.8c.08-.21-.02-.45-.22-.56Zm-12.55,11.07l-.79,1.57c-.17,.33-.31,.64-.43,.92-.01,.05-.03,.09-.05,.14-.11,.26-.2,.5-.27,.73-.11,.38-.17,.7-.2,.99-.05,.5,.03,.89,.17,1.23h-.02l-4.26-2.16h-.02c.1-.03,.2-.07,.31-.1h.01c.1-.05,.21-.1,.31-.16,.11-.07,.22-.14,.33-.23,.53-.43,1.13-1.19,1.8-2.53l1.29-2.56,.08-.17,5.72-11.35c.05-.11,.06-.23,.03-.35-.04-.11-.12-.2-.23-.26l-.24-.12c-.26-.13-.55-.24-.88-.31-.14-.04-.29-.07-.44-.08-.33-.04-.68-.04-1.07,.01-.08,.01-.17,.03-.26,.04-.19,.04-.39,.09-.59,.15-.1,.03-.21,.07-.31,.11-.13,.04-.26,.09-.4,.15-.13,.06-.25,.11-.38,.18-.13,.06-.26,.13-.39,.2-.13,.07-.26,.15-.39,.23-.13,.08-.26,.16-.39,.26-.12,.08-.23,.16-.35,.24-.15,.11-.31,.22-.46,.35-.14,.11-.27,.22-.41,.34-.27,.22-.55,.47-.84,.75-.14,.14-.28,.28-.42,.42h0l.02-.03,3.52-5.44,12.69,6.39-2.28,6.09c.01-.12,.03-.25,.05-.36,.7-5.15-.9-7.11-2.37-7.85l-.29-.14c-.22-.11-.49-.03-.6,.2l-6.21,12.33-.09,.18Zm-11.7-22.54c-.06-.14-.19-.24-.34-.27h-.03c-.14-.04-.29,.01-.4,.12-.89,.9-1.89,1.7-2.94,2.37-.11,.06-.18,.17-.2,.29v.02c-.03,.12-.01,.25,.06,.35,.72,1.02,1.32,2.14,1.8,3.33,.05,.14,.18,.24,.32,.27h.12c.12,.01,.23-.03,.32-.12,.89-.91,1.89-1.7,2.94-2.37,.11-.06,.18-.16,.2-.28v-.03c.04-.12,.01-.25-.06-.35-.72-1.02-1.32-2.15-1.79-3.33Zm.8,3.48c-.8,.53-1.56,1.13-2.27,1.8-.4-.89-.86-1.75-1.39-2.55,.8-.53,1.56-1.14,2.27-1.81,.4,.9,.86,1.75,1.39,2.56Zm.02,3.94l-5.2-1.05c-.24-.05-.47,.1-.52,.34l-.06,.25c-.04,.17,.03,.35,.17,.45l.06,.05c.44,.33,.86,.65,.41,2.73l-1.97,9.18c-.45,2.09-.97,2.22-1.51,2.35l-.08,.02c-.17,.04-.3,.17-.33,.34l-.06,.25c-.02,.12,0,.24,.07,.34,.06,.1,.17,.17,.28,.19l5.2,1.06s.06,.01,.09,.01c.21,0,.39-.15,.44-.36l.05-.25c.04-.17-.03-.35-.17-.45l-.06-.05c-.44-.33-.86-.65-.41-2.73l1.98-9.18c.05-.27,.11-.5,.17-.7,.41-1.42,.84-1.52,1.33-1.64l.08-.03c.17-.04,.3-.17,.33-.33l.06-.26c.02-.11,0-.24-.06-.34-.07-.1-.17-.17-.29-.19Zm-2.5,3.31l-1.98,9.17c-.33,1.56-.23,2.39,.08,2.93l-3.1-.63c.49-.37,.93-1.09,1.26-2.64l1.89-8.78,.09-.4c.33-1.56,.23-2.39-.08-2.93l3.11,.63c-.41,.31-.78,.84-1.08,1.87-.06,.23-.13,.48-.19,.78Zm-11.08,10.36l-.1-.04c-.69-.27-1.4-.55-1.61-3.48l-.92-12.43c-.22-2.92,.44-3.3,1.08-3.67l.09-.05c.15-.09,.24-.25,.22-.43l-.02-.34c-.01-.11-.07-.22-.15-.29-.09-.09-.2-.13-.33-.12l-5.26,.39c-.25,.02-.43,.23-.41,.48l.02,.34c.02,.17,.12,.32,.28,.38l.1,.04c.69,.27,1.39,.55,1.61,3.48l.69,9.28-6.87-13.39c-.04-.08-.1-.14-.17-.18-.03-.02-.07-.03-.11-.04-.05-.02-.1-.02-.15-.02l-4.99,.37c-.25,.01-.43,.23-.41,.48l.02,.34c.01,.17,.12,.32,.28,.38l.1,.04c.6,.24,1.12,.44,1.43,2.07,.08,.4,.14,.86,.18,1.41l.92,12.42c.21,2.93-.45,3.31-1.08,3.68l-.1,.05c-.14,.09-.23,.25-.22,.42l.03,.34c.01,.12,.06,.23,.15,.31,.08,.07,.19,.11,.3,.11h.03l5.25-.39c.25-.02,.44-.23,.42-.48l-.03-.34c-.01-.17-.12-.32-.28-.38l-.1-.04c-.68-.28-1.39-.55-1.6-3.48l-.67-9,6.79,13.11c.09,.16,.25,.26,.44,.24l5.04-.37c.24-.02,.43-.23,.41-.48l-.02-.34c-.02-.17-.13-.32-.28-.38Zm-12.61-2.71c.01,.17,.03,.33,.05,.49,.01,.2,.04,.39,.07,.57,.02,.17,.05,.33,.08,.47,.04,.22,.09,.41,.14,.59,.13,.46,.29,.81,.47,1.08,.03,.06,.07,.11,.11,.16,.03,.06,.08,.11,.12,.16,.12,.11,.24,.22,.36,.31h-.02l-3.16,.24h-.02c.19-.18,.35-.4,.49-.69,.05-.11,.09-.22,.13-.35,.04-.11,.07-.22,.1-.35,.02-.09,.04-.19,.05-.29,.02-.12,.04-.25,.05-.39,.05-.52,.06-1.15,0-1.93l-.92-12.43c-.04-.59-.1-1.08-.19-1.51-.25-1.32-.68-1.95-1.2-2.33l3.66-.27,7.74,15.09c.09,.19,.31,.29,.52,.23,.2-.06,.34-.25,.32-.46l-.85-11.49c-.03-.46-.08-.87-.14-1.22-.04-.24-.08-.46-.13-.66-.05-.2-.11-.38-.16-.54-.17-.49-.37-.83-.59-1.08-.11-.13-.24-.24-.37-.34h.02l3.16-.23h.01c-.06,.06-.12,.12-.18,.19h0c-.11,.15-.21,.31-.3,.5-.05,.11-.09,.22-.13,.35-.04,.11-.07,.22-.1,.35-.02,.09-.04,.19-.05,.29-.02,.12-.04,.25-.05,.39-.05,.52-.06,1.15,0,1.93l.92,12.43c.01,.17,.03,.33,.05,.49,.02,.26,.05,.51,.09,.73,.04,.24,.08,.46,.13,.66,.05,.2,.11,.38,.16,.54,.09,.25,.18,.47,.28,.65,.1,.16,.2,.3,.31,.43,0,0,0,.02,.01,.02,.12,.11,.24,.22,.36,.31h-.03l-3.69,.28-7.66-14.79c-.1-.19-.31-.29-.52-.23-.2,.06-.34,.25-.32,.46l.82,11.19Zm-14.48-8.82c-1.15-2.69-.65-3.26-.17-3.82l.07-.08c.11-.13,.14-.31,.07-.47l-.13-.31c-.05-.11-.14-.2-.25-.24-.11-.05-.23-.05-.34,0l-4.85,2.08c-.11,.04-.19,.13-.24,.24-.04,.11-.04,.24,.01,.35l.13,.31c.07,.16,.22,.26,.39,.27h.11c.73,.04,1.49,.07,2.65,2.77l4.96,11.57c.62,1.44-.89,2.98-2.7,3.76-1.58,.67-3.06,.68-3.79,.01-.15-.14-.27-.31-.36-.51l-5.07-11.85c-.21-.49-.38-.94-.49-1.32-.48-1.59-.11-2.01,.31-2.5l.07-.08c.11-.13,.14-.31,.08-.47l-.14-.32c-.05-.11-.13-.19-.24-.24-.11-.04-.24-.04-.35,0l-6.3,2.7c-.23,.1-.33,.36-.24,.59l.14,.31c.07,.16,.22,.27,.39,.27h.11c.73,.04,1.49,.08,2.64,2.77l5.04,11.74c.18,.42,.42,.78,.7,1.08,.86,.9,2.15,1.28,3.57,1.28s2.96-.37,4.36-.97c.42-.18,.82-.38,1.2-.59,.73-.41,1.39-.87,1.95-1.37,1.86-1.65,2.48-3.51,1.74-5.23l-5.03-11.74Zm-15.25,2.27l4.38-1.88c-.29,.57-.38,1.33,.01,2.62,.12,.43,.3,.89,.52,1.43l5.08,11.84c.14,.32,.33,.59,.57,.82,1.2,1.1,3.24,.8,4.75,.15,1.13-.48,2.08-1.19,2.68-1.98,.72-.96,.9-2.01,.49-2.96l-4.96-11.56c-.18-.43-.36-.81-.54-1.13-.05-.1-.11-.2-.16-.28-.5-.86-.97-1.32-1.4-1.57-.05-.03-.1-.06-.15-.08-.1-.05-.2-.09-.3-.12l2.91-1.25h.02c-.11,.21-.19,.46-.23,.76-.04,.28-.03,.61,.04,1.01,.01,.07,.02,.15,.04,.22,.02,.11,.05,.23,.08,.35,.06,.24,.14,.5,.24,.78,.1,.28,.22,.59,.36,.92l5.03,11.73c.77,1.81-.62,3.42-1.51,4.21h0c-.51,.46-1.11,.88-1.79,1.26-.35,.19-.72,.38-1.11,.55-2.97,1.27-6.48,1.36-7.46-.93l-5.03-11.73c-.19-.43-.37-.81-.54-1.13-.06-.1-.11-.2-.16-.28-.06-.1-.12-.19-.17-.28-.1-.16-.2-.31-.3-.43-.28-.35-.54-.6-.78-.76-.21-.14-.41-.23-.62-.29h.02Zm92,4.57c-.05-.04-.09-.08-.14-.12-1.64-1.45-3.35-2.84-5.1-4.13-1.68-1.25-3.45-2.46-5.25-3.58-1.15-.72-2.34-1.42-3.53-2.09-2.09-1.16-4.26-2.24-6.46-3.21-.02,0-.03,0-.04-.02-3-1.32-6.12-2.47-9.29-3.42-2.3-.69-4.65-1.29-7-1.77-3.91-.8-7.91-1.31-11.9-1.53-2.3-.12-4.61-.15-6.88-.07-5.04,.15-10.09,.78-15.02,1.87-1.86,.41-3.72,.89-5.52,1.43-2.12,.63-4.24,1.36-6.3,2.16-.04,.01-.07,.03-.09,.04-.02,.01-.04,.02-.06,.02-.01,.01-.03,.01-.04,.02-1.21,.47-2.44,.99-3.66,1.54-2.1,.95-4.18,2-6.18,3.12-1.17,.66-2.35,1.36-3.48,2.08-2.06,1.3-4.09,2.71-6.02,4.2-1.38,1.05-2.73,2.17-4.05,3.34l-.02,.02s-.07,.06-.11,.09c-.02,.01-.03,.02-.04,.03-.13,.1-.18,.27-.15,.43,0,.03,.02,.06,.03,.09l.61,1.43,.39,.89,.56,1.31,.39,.9,.62,1.45,.38,.9,.69,1.59,.38,.9,.76,1.76,.39,.9,.83,1.94,.39,.9,.92,2.15,.38,.89,1.02,2.37,.39,.9,1.12,2.61,.38,.9,1.48,3.44,.04,.08h.01c.07,.1,.17,.16,.28,.18,.01,.01,.03,.01,.04,.01h.04c.1,0,.19-.03,.27-.09h.01s.01-.01,.02-.01c.02-.03,.03-.04,.05-.06l.02-.02s.04-.05,.07-.08c.01-.02,.02-.04,.04-.06,1.35-1.73,2.82-3.38,4.38-4.92,2.34-2.3,4.9-4.39,7.61-6.18,2.09-1.39,4.3-2.62,6.56-3.68,1.04-.49,2.13-.95,3.24-1.38,2.24-.86,4.56-1.57,6.91-2.1,1.52-.35,3.08-.64,4.64-.85,5.6-.75,11.24-.59,16.78,.49,.21,.04,.41,.08,.62,.12,0,0,.01,.01,.02,.01,2.56,.53,5.09,1.26,7.54,2.18,1.15,.43,2.29,.9,3.4,1.42,.83,.38,1.66,.79,2.49,1.22,4.66,2.46,8.9,5.63,12.6,9.42,1.27,1.3,2.49,2.7,3.63,4.14,.01,.01,.02,.03,.03,.04,.04,.04,.07,.08,.1,.12,.01,0,.01,.02,.02,.03,.03,.04,.07,.07,.11,.09,.08,.06,.17,.09,.27,.08,.04,0,.08,0,.11-.03,.07-.02,.13-.06,.17-.11,.04-.03,.08-.08,.1-.13l1.45-3.37,.38-.9,1.13-2.61,.38-.9,1.02-2.37,.1-.23s.01-.03,.02-.04l.27-.62,.92-2.15,.39-.9,.83-1.94,.39-.9,.75-1.76,.39-.9,.68-1.59,.39-.9,.62-1.45,.39-.9,.56-1.31,.1-.23s.01-.03,.02-.04l.26-.62,.56-1.31c.05-.04,.09-.1,.12-.17,.07-.17,.02-.37-.12-.49Zm-15.9,23.75c-3.77-3.86-8.08-7.09-12.83-9.59-.83-.44-1.68-.86-2.52-1.25-1.14-.52-2.3-1.01-3.46-1.44-2.5-.94-5.09-1.68-7.7-2.22,0,0,0-.01-.01-.01-.21-.04-.42-.08-.62-.12-5.63-1.1-11.37-1.26-17.07-.5-1.58,.22-3.17,.51-4.72,.86-2.39,.55-4.75,1.27-7.03,2.15-1.13,.43-2.24,.9-3.3,1.4-2.3,1.07-4.55,2.33-6.67,3.74-2.76,1.83-5.37,3.95-7.75,6.3-1.45,1.43-2.83,2.96-4.11,4.56l-11.66-27.15c1.28-1.12,2.6-2.21,3.93-3.23,1.92-1.47,3.92-2.87,5.96-4.15,1.12-.71,2.28-1.4,3.44-2.06,1.97-1.1,4.03-2.14,6.11-3.08,1.24-.56,2.49-1.09,3.73-1.57,0,0,.01-.01,.02-.01,.02-.01,.03-.01,.04-.02,2.04-.79,4.14-1.52,6.25-2.14,1.78-.53,3.61-1.01,5.46-1.41,4.86-1.08,9.86-1.71,14.85-1.86,2.24-.07,4.53-.04,6.8,.08,3.95,.21,7.91,.72,11.77,1.51,2.32,.48,4.65,1.06,6.92,1.74,3.13,.94,6.21,2.08,9.17,3.39,.01,0,.02,0,.03,0,2.18,.96,4.34,2.03,6.41,3.19,1.19,.65,2.36,1.35,3.5,2.06,1.78,1.11,3.52,2.3,5.18,3.54,1.68,1.24,3.33,2.57,4.91,3.96l-.76,1.77s-.01,.03-.02,.04l-6.68,15.55s-.01,.03-.02,.04l-4.18,9.72c-1.06-1.32-2.19-2.6-3.37-3.8Zm3.25-28.69l-11.89-5.99-1.51-.76c-.21-.1-.45-.03-.58,.16l-5.11,7.88c-.07,.11-.09,.24-.06,.36,.03,.12,.12,.23,.23,.28l.46,.23c.19,.1,.41,.05,.54-.11,3.28-3.92,6.24-5.57,8.35-4.66l-6.89,13.68c-1.32,2.62-2.08,2.61-2.82,2.59h-.11c-.17,0-.33,.1-.4,.25l-.16,.31c-.11,.22-.02,.49,.2,.6l6.15,3.09c.07,.04,.13,.05,.2,.05,.17,0,.32-.09,.4-.24l.16-.31c.07-.15,.06-.34-.05-.47l-.06-.09c-.45-.58-.91-1.19,.41-3.81l6.89-13.68c2.07,1.15,2.11,4.36,1.77,6.87-.04,.33-.09,.65-.15,.96-.1,.54-.22,1.11-.35,1.68-.05,.2,.04,.41,.23,.5l.46,.23c.11,.06,.24,.07,.36,.02,.12-.05,.21-.14,.26-.26l3.29-8.8c.08-.21-.02-.45-.22-.56Zm-12.55,11.07l-.79,1.57c-.17,.33-.31,.64-.43,.92-.01,.05-.03,.09-.05,.14-.11,.26-.2,.5-.27,.73-.11,.38-.17,.7-.2,.99-.05,.5,.03,.89,.17,1.23h-.02l-4.26-2.16h-.02c.1-.03,.2-.07,.31-.1h.01c.1-.05,.21-.1,.31-.16,.11-.07,.22-.14,.33-.23,.53-.43,1.13-1.19,1.8-2.53l1.29-2.56,.08-.17,5.72-11.35c.05-.11,.06-.23,.03-.35-.04-.11-.12-.2-.23-.26l-.24-.12c-.26-.13-.55-.24-.88-.31-.14-.04-.29-.07-.44-.08-.33-.04-.68-.04-1.07,.01-.08,.01-.17,.03-.26,.04-.19,.04-.39,.09-.59,.15-.1,.03-.21,.07-.31,.11-.13,.04-.26,.09-.4,.15-.13,.06-.25,.11-.38,.18-.13,.06-.26,.13-.39,.2-.13,.07-.26,.15-.39,.23-.13,.08-.26,.16-.39,.26-.12,.08-.23,.16-.35,.24-.15,.11-.31,.22-.46,.35-.14,.11-.27,.22-.41,.34-.27,.22-.55,.47-.84,.75-.14,.14-.28,.28-.42,.42h0l.02-.03,3.52-5.44,12.69,6.39-2.28,6.09c.01-.12,.03-.25,.05-.36,.7-5.15-.9-7.11-2.37-7.85l-.29-.14c-.22-.11-.49-.03-.6,.2l-6.21,12.33-.09,.18Zm-11.7-22.54c-.06-.14-.19-.24-.34-.27h-.03c-.14-.04-.29,.01-.4,.12-.89,.9-1.89,1.7-2.94,2.37-.11,.06-.18,.17-.2,.29v.02c-.03,.12-.01,.25,.06,.35,.72,1.02,1.32,2.14,1.8,3.33,.05,.14,.18,.24,.32,.27h.12c.12,.01,.23-.03,.32-.12,.89-.91,1.89-1.7,2.94-2.37,.11-.06,.18-.16,.2-.28v-.03c.04-.12,.01-.25-.06-.35-.72-1.02-1.32-2.15-1.79-3.33Zm.8,3.48c-.8,.53-1.56,1.13-2.27,1.8-.4-.89-.86-1.75-1.39-2.55,.8-.53,1.56-1.14,2.27-1.81,.4,.9,.86,1.75,1.39,2.56Zm.02,3.94l-5.2-1.05c-.24-.05-.47,.1-.52,.34l-.06,.25c-.04,.17,.03,.35,.17,.45l.06,.05c.44,.33,.86,.65,.41,2.73l-1.97,9.18c-.45,2.09-.97,2.22-1.51,2.35l-.08,.02c-.17,.04-.3,.17-.33,.34l-.06,.25c-.02,.12,0,.24,.07,.34,.06,.1,.17,.17,.28,.19l5.2,1.06s.06,.01,.09,.01c.21,0,.39-.15,.44-.36l.05-.25c.04-.17-.03-.35-.17-.45l-.06-.05c-.44-.33-.86-.65-.41-2.73l1.98-9.18c.05-.27,.11-.5,.17-.7,.41-1.42,.84-1.52,1.33-1.64l.08-.03c.17-.04,.3-.17,.33-.33l.06-.26c.02-.11,0-.24-.06-.34-.07-.1-.17-.17-.29-.19Zm-2.5,3.31l-1.98,9.17c-.33,1.56-.23,2.39,.08,2.93l-3.1-.63c.49-.37,.93-1.09,1.26-2.64l1.89-8.78,.09-.4c.33-1.56,.23-2.39-.08-2.93l3.11,.63c-.41,.31-.78,.84-1.08,1.87-.06,.23-.13,.48-.19,.78Zm-11.08,10.36l-.1-.04c-.69-.27-1.4-.55-1.61-3.48l-.92-12.43c-.22-2.92,.44-3.3,1.08-3.67l.09-.05c.15-.09,.24-.25,.22-.43l-.02-.34c-.01-.11-.07-.22-.15-.29-.09-.09-.2-.13-.33-.12l-5.26,.39c-.25,.02-.43,.23-.41,.48l.02,.34c.02,.17,.12,.32,.28,.38l.1,.04c.69,.27,1.39,.55,1.61,3.48l.69,9.28-6.87-13.39c-.04-.08-.1-.14-.17-.18-.03-.02-.07-.03-.11-.04-.05-.02-.1-.02-.15-.02l-4.99,.37c-.25,.01-.43,.23-.41,.48l.02,.34c.01,.17,.12,.32,.28,.38l.1,.04c.6,.24,1.12,.44,1.43,2.07,.08,.4,.14,.86,.18,1.41l.92,12.42c.21,2.93-.45,3.31-1.08,3.68l-.1,.05c-.14,.09-.23,.25-.22,.42l.03,.34c.01,.12,.06,.23,.15,.31,.08,.07,.19,.11,.3,.11h.03l5.25-.39c.25-.02,.44-.23,.42-.48l-.03-.34c-.01-.17-.12-.32-.28-.38l-.1-.04c-.68-.28-1.39-.55-1.6-3.48l-.67-9,6.79,13.11c.09,.16,.25,.26,.44,.24l5.04-.37c.24-.02,.43-.23,.41-.48l-.02-.34c-.02-.17-.13-.32-.28-.38Zm-12.61-2.71c.01,.17,.03,.33,.05,.49,.01,.2,.04,.39,.07,.57,.02,.17,.05,.33,.08,.47,.04,.22,.09,.41,.14,.59,.13,.46,.29,.81,.47,1.08,.03,.06,.07,.11,.11,.16,.03,.06,.08,.11,.12,.16,.12,.11,.24,.22,.36,.31h-.02l-3.16,.24h-.02c.19-.18,.35-.4,.49-.69,.05-.11,.09-.22,.13-.35,.04-.11,.07-.22,.1-.35,.02-.09,.04-.19,.05-.29,.02-.12,.04-.25,.05-.39,.05-.52,.06-1.15,0-1.93l-.92-12.43c-.04-.59-.1-1.08-.19-1.51-.25-1.32-.68-1.95-1.2-2.33l3.66-.27,7.74,15.09c.09,.19,.31,.29,.52,.23,.2-.06,.34-.25,.32-.46l-.85-11.49c-.03-.46-.08-.87-.14-1.22-.04-.24-.08-.46-.13-.66-.05-.2-.11-.38-.16-.54-.17-.49-.37-.83-.59-1.08-.11-.13-.24-.24-.37-.34h.02l3.16-.23h.01c-.06,.06-.12,.12-.18,.19h0c-.11,.15-.21,.31-.3,.5-.05,.11-.09,.22-.13,.35-.04,.11-.07,.22-.1,.35-.02,.09-.04,.19-.05,.29-.02,.12-.04,.25-.05,.39-.05,.52-.06,1.15,0,1.93l.92,12.43c.01,.17,.03,.33,.05,.49,.02,.26,.05,.51,.09,.73,.04,.24,.08,.46,.13,.66,.05,.2,.11,.38,.16,.54,.09,.25,.18,.47,.28,.65,.1,.16,.2,.3,.31,.43,0,0,0,.02,.01,.02,.12,.11,.24,.22,.36,.31h-.03l-3.69,.28-7.66-14.79c-.1-.19-.31-.29-.52-.23-.2,.06-.34,.25-.32,.46l.82,11.19Zm-14.48-8.82c-1.15-2.69-.65-3.26-.17-3.82l.07-.08c.11-.13,.14-.31,.07-.47l-.13-.31c-.05-.11-.14-.2-.25-.24-.11-.05-.23-.05-.34,0l-4.85,2.08c-.11,.04-.19,.13-.24,.24-.04,.11-.04,.24,.01,.35l.13,.31c.07,.16,.22,.26,.39,.27h.11c.73,.04,1.49,.07,2.65,2.77l4.96,11.57c.62,1.44-.89,2.98-2.7,3.76-1.58,.67-3.06,.68-3.79,.01-.15-.14-.27-.31-.36-.51l-5.07-11.85c-.21-.49-.38-.94-.49-1.32-.48-1.59-.11-2.01,.31-2.5l.07-.08c.11-.13,.14-.31,.08-.47l-.14-.32c-.05-.11-.13-.19-.24-.24-.11-.04-.24-.04-.35,0l-6.3,2.7c-.23,.1-.33,.36-.24,.59l.14,.31c.07,.16,.22,.27,.39,.27h.11c.73,.04,1.49,.08,2.64,2.77l5.04,11.74c.18,.42,.42,.78,.7,1.08,.86,.9,2.15,1.28,3.57,1.28s2.96-.37,4.36-.97c.42-.18,.82-.38,1.2-.59,.73-.41,1.39-.87,1.95-1.37,1.86-1.65,2.48-3.51,1.74-5.23l-5.03-11.74Zm-15.25,2.27l4.38-1.88c-.29,.57-.38,1.33,.01,2.62,.12,.43,.3,.89,.52,1.43l5.08,11.84c.14,.32,.33,.59,.57,.82,1.2,1.1,3.24,.8,4.75,.15,1.13-.48,2.08-1.19,2.68-1.98,.72-.96,.9-2.01,.49-2.96l-4.96-11.56c-.18-.43-.36-.81-.54-1.13-.05-.1-.11-.2-.16-.28-.5-.86-.97-1.32-1.4-1.57-.05-.03-.1-.06-.15-.08-.1-.05-.2-.09-.3-.12l2.91-1.25h.02c-.11,.21-.19,.46-.23,.76-.04,.28-.03,.61,.04,1.01,.01,.07,.02,.15,.04,.22,.02,.11,.05,.23,.08,.35,.06,.24,.14,.5,.24,.78,.1,.28,.22,.59,.36,.92l5.03,11.73c.77,1.81-.62,3.42-1.51,4.21h0c-.51,.46-1.11,.88-1.79,1.26-.35,.19-.72,.38-1.11,.55-2.97,1.27-6.48,1.36-7.46-.93l-5.03-11.73c-.19-.43-.37-.81-.54-1.13-.06-.1-.11-.2-.16-.28-.06-.1-.12-.19-.17-.28-.1-.16-.2-.31-.3-.43-.28-.35-.54-.6-.78-.76-.21-.14-.41-.23-.62-.29h.02Z"/><g><path class="j" d="M61.56,127.47c-.55,.49-1.18,.93-1.87,1.31-.37,.21-.76,.4-1.16,.57-3.19,1.37-6.93,1.43-8.05-1.16l-.25-.59-.68-1.59-.4-.93-3-6.99-.7-1.63c-1.32-3.08-2.28-3-3.15-3.04l-.13-.32,6.3-2.7,.13,.32c-.47,.55-1.05,1.08-.48,3,.12,.39,.28,.85,.51,1.37l5.08,11.85c.11,.27,.27,.49,.47,.67,.94,.87,2.69,.75,4.27,.07,2-.86,3.68-2.61,2.93-4.35l-4.96-11.57c-1.32-3.08-2.28-3-3.15-3.04l-.14-.32,4.85-2.08,.13,.32c-.57,.66-1.29,1.3,.03,4.37l5.03,11.73c.72,1.68-.1,3.37-1.63,4.72Z"/><path class="h" d="M63.6,122.57l-5.03-11.74c-1.15-2.69-.65-3.26-.17-3.82l.07-.08c.11-.13,.14-.31,.07-.47l-.13-.31c-.05-.11-.14-.2-.25-.24-.11-.05-.23-.05-.34,0l-4.85,2.08c-.11,.04-.19,.13-.24,.24-.04,.11-.04,.24,.01,.35l.13,.31c.07,.16,.22,.26,.39,.27h.11c.73,.04,1.49,.07,2.65,2.77l4.96,11.57c.62,1.44-.89,2.98-2.7,3.76-1.58,.67-3.06,.68-3.79,.01-.15-.14-.27-.31-.36-.51l-5.07-11.85c-.21-.49-.38-.94-.49-1.32-.48-1.59-.11-2.01,.31-2.5l.07-.08c.11-.13,.14-.31,.08-.47l-.14-.32c-.05-.11-.13-.19-.24-.24-.11-.04-.24-.04-.35,0l-6.3,2.7c-.23,.1-.33,.36-.24,.59l.14,.31c.07,.16,.22,.27,.39,.27h.11c.73,.04,1.49,.08,2.64,2.77l5.03,11.74c.18,.42,.42,.78,.71,1.08,.86,.9,2.15,1.28,3.57,1.28s2.96-.37,4.36-.97c.42-.18,.82-.38,1.2-.59,.73-.41,1.39-.87,1.95-1.37,1.86-1.65,2.48-3.51,1.74-5.23Zm-20.28-9.47l4.38-1.88c-.29,.57-.38,1.33,.01,2.62,.12,.43,.3,.89,.52,1.43l5.08,11.84c.14,.32,.33,.59,.57,.82,1.2,1.1,3.24,.8,4.75,.15,1.13-.48,2.08-1.19,2.68-1.98,.72-.96,.9-2.01,.49-2.96l-4.96-11.56c-.18-.43-.36-.81-.54-1.13-.05-.1-.11-.2-.16-.28-.5-.86-.97-1.32-1.4-1.57-.05-.03-.1-.06-.15-.08-.1-.05-.2-.09-.3-.12l2.91-1.25c-.11,.21-.18,.46-.21,.76-.04,.28-.03,.61,.04,1.01,.01,.07,.02,.15,.04,.22,.02,.11,.05,.23,.08,.35,.06,.24,.14,.5,.24,.78,.1,.28,.22,.59,.36,.92l5.03,11.73c.77,1.81-.62,3.42-1.51,4.21h0c-.51,.46-1.11,.88-1.79,1.26-.35,.19-.72,.38-1.11,.55-2.97,1.27-6.48,1.36-7.46-.93l-5.03-11.73c-.19-.43-.37-.81-.54-1.13-.06-.1-.11-.2-.16-.28-.06-.1-.12-.19-.17-.28-.1-.16-.21-.3-.3-.43-.28-.35-.54-.6-.78-.76-.21-.15-.41-.24-.6-.3Z"/></g><g><path class="j" d="M85.51,123.11l-5.04,.37-.74-1.43-4.03-7.78-3.03-5.84,.27,3.59,.56,7.6c.25,3.34,1.18,3.57,1.99,3.9l.03,.34-2.11,.16h-.02l-2.79,.21-.22,.02h-.12l-.03-.33c.75-.44,1.64-.81,1.39-4.15l-.57-7.67-.35-4.76c-.04-.57-.1-1.05-.18-1.46-.38-1.96-1.14-2.17-1.81-2.44l-.03-.34,4.99-.37,.95,1.85,6.93,13.51-.53-7.17-.25-3.43-.07-.89c-.25-3.34-1.18-3.57-1.99-3.9l-.03-.34,5.26-.39,.03,.34c-.75,.44-1.64,.81-1.39,4.15l.05,.72,.28,3.76,.59,7.95c.25,3.34,1.18,3.57,1.99,3.9l.03,.34Z"/><path class="h" d="M85.94,122.74c-.02-.17-.13-.32-.28-.38l-.1-.04c-.69-.27-1.4-.55-1.61-3.48l-.92-12.43c-.22-2.92,.44-3.3,1.08-3.67l.09-.05c.15-.09,.24-.25,.22-.43l-.02-.34c-.01-.12-.07-.22-.15-.29-.09-.09-.2-.13-.33-.12l-5.26,.39c-.25,.02-.43,.23-.41,.48l.02,.34c.02,.17,.12,.32,.28,.38l.1,.04c.69,.27,1.39,.55,1.61,3.48l.69,9.28-6.87-13.39c-.04-.08-.1-.14-.17-.18-.03-.02-.07-.03-.11-.04-.05-.02-.1-.02-.15-.02l-4.99,.37c-.25,.01-.43,.23-.41,.48l.02,.34c.01,.17,.12,.32,.28,.38l.1,.04c.6,.24,1.12,.44,1.43,2.07,.08,.4,.14,.86,.18,1.41l.92,12.42c.21,2.93-.45,3.31-1.08,3.68l-.1,.05c-.14,.09-.23,.25-.22,.42l.03,.34c.01,.12,.06,.23,.15,.31,.08,.07,.19,.11,.3,.11h.03l5.25-.39c.25-.02,.44-.23,.42-.48l-.03-.34c-.01-.17-.12-.32-.28-.38l-.1-.04c-.68-.28-1.39-.55-1.6-3.48l-.67-9,6.79,13.11c.09,.16,.25,.26,.44,.24l5.04-.37c.24-.02,.43-.23,.41-.48l-.02-.34Zm-12.89-3.09c.01,.17,.03,.33,.05,.49,.01,.2,.04,.39,.07,.57,.02,.17,.05,.33,.08,.47,.04,.22,.09,.41,.14,.59,.13,.46,.29,.81,.47,1.08,.03,.06,.07,.11,.11,.16,.03,.06,.08,.11,.12,.16,.11,.12,.22,.22,.34,.31l-3.16,.24c.17-.17,.33-.39,.47-.69,.05-.11,.09-.22,.13-.35,.04-.11,.07-.22,.1-.35,.02-.09,.04-.19,.05-.29,.02-.12,.04-.25,.05-.39,.05-.52,.06-1.15,0-1.93l-.92-12.43c-.04-.59-.1-1.08-.19-1.51-.25-1.32-.68-1.95-1.2-2.33l3.66-.27,7.74,15.09c.09,.19,.31,.29,.52,.23,.2-.06,.34-.25,.32-.46l-.85-11.49c-.03-.46-.08-.86-.14-1.22-.04-.24-.08-.46-.13-.66-.05-.2-.11-.38-.16-.54-.17-.49-.37-.83-.59-1.08-.11-.14-.23-.25-.35-.34l3.16-.23c-.06,.06-.11,.12-.17,.19h0c-.11,.14-.21,.3-.3,.5-.05,.11-.09,.22-.13,.35-.04,.11-.07,.22-.1,.35-.02,.09-.04,.19-.05,.29-.02,.12-.04,.25-.05,.39-.05,.52-.06,1.15,0,1.93l.92,12.43c.01,.17,.03,.33,.05,.49,.02,.26,.05,.51,.09,.73,.04,.24,.08,.46,.13,.66,.05,.2,.11,.38,.16,.54,.09,.25,.18,.47,.28,.65,.1,.17,.2,.31,.31,.43,0,0,0,.02,.01,.02,.11,.13,.22,.23,.33,.31,0,.01,.01,.01,.01,.01l-3.7,.27-7.66-14.79c-.1-.19-.31-.29-.52-.23-.2,.06-.34,.25-.32,.46l.82,11.19Z"/></g><g><path class="j" d="M99.84,104.86v.03c-1.11,.69-2.12,1.51-3.03,2.43h-.03c-.48-1.22-1.1-2.36-1.84-3.42v-.03c1.11-.69,2.12-1.51,3.03-2.43h.03c.48,1.22,1.1,2.36,1.84,3.43Z"/><path class="h" d="M100.21,104.6c-.72-1.02-1.32-2.15-1.79-3.33-.06-.14-.19-.24-.34-.27h-.03c-.14-.04-.29,.01-.4,.12-.89,.9-1.89,1.7-2.94,2.37-.11,.06-.18,.17-.2,.29v.02c-.03,.12-.01,.25,.06,.35,.72,1.02,1.32,2.14,1.8,3.33,.05,.14,.18,.24,.32,.27h.12c.12,.01,.23-.03,.32-.12,.89-.91,1.89-1.7,2.94-2.37,.11-.06,.18-.16,.2-.28v-.03c.04-.12,.01-.25-.06-.35Zm-.99,.15c-.8,.53-1.56,1.13-2.27,1.8-.4-.89-.86-1.75-1.39-2.55,.8-.53,1.56-1.14,2.27-1.81,.4,.9,.86,1.75,1.39,2.56Z"/></g><g><path class="j" d="M99.15,109.13l-.06,.25c-.58,.15-1.22,.23-1.73,1.97-.06,.22-.13,.46-.18,.74l-1.98,9.18c-.53,2.46,.11,2.83,.64,3.23v.03l-.05,.23-.16-.03-5.04-1.02,.05-.25c.65-.16,1.39-.25,1.92-2.71l1.89-8.77,.09-.4c.53-2.46-.11-2.83-.64-3.23l.06-.25,5.2,1.05Z"/><path class="h" d="M99.53,108.88c-.07-.1-.17-.17-.29-.19l-5.2-1.05c-.24-.05-.47,.1-.52,.34l-.06,.25c-.04,.17,.03,.35,.17,.45l.06,.05c.44,.33,.86,.65,.41,2.73l-1.97,9.18c-.45,2.09-.97,2.22-1.51,2.35l-.08,.02c-.17,.04-.3,.17-.33,.34l-.06,.25c-.02,.12,0,.24,.07,.34,.06,.1,.17,.17,.28,.19l5.2,1.06s.06,.01,.09,.01c.21,0,.39-.15,.44-.36l.05-.25c.04-.17-.03-.35-.17-.45l-.06-.05c-.44-.33-.86-.65-.41-2.73l1.98-9.18c.05-.27,.11-.5,.17-.7,.41-1.42,.84-1.52,1.33-1.64l.08-.03c.17-.04,.3-.17,.33-.33l.06-.26c.02-.11,0-.24-.06-.34Zm-2.79,3.12l-1.98,9.17c-.33,1.56-.23,2.39,.08,2.93l-3.1-.63c.49-.37,.93-1.09,1.26-2.64l1.89-8.78,.09-.4c.33-1.56,.23-2.39-.08-2.93l3.11,.63c-.41,.31-.78,.84-1.08,1.87-.06,.23-.13,.48-.19,.78Z"/></g><g><path class="j" d="M122.46,113.14l-3.29,8.8-.46-.23c.14-.59,.26-1.16,.36-1.71,.06-.34,.11-.66,.15-.98,.51-3.81-.18-6.4-2.12-7.38l-.29-.15-1.53,3.03-4.82,9.57-.74,1.48c-1.51,2.99-.83,3.67-.3,4.36l-.15,.3-6.15-3.1,.15-.31c.87,0,1.82,.15,3.33-2.84l1.41-2.8,5-9.93,.68-1.36-.24-.12c-2.38-1.2-5.57,.54-9.05,4.7l-.46-.23,5.11-7.88,.72,.37,.79,.39,11.89,5.99Z"/><path class="h" d="M122.67,112.74l-11.89-5.99-1.51-.76c-.21-.1-.45-.03-.58,.16l-5.11,7.88c-.07,.11-.09,.24-.06,.36,.03,.12,.12,.23,.23,.28l.46,.23c.19,.1,.41,.05,.54-.11,3.28-3.92,6.24-5.57,8.35-4.66l-6.89,13.68c-1.32,2.62-2.08,2.61-2.82,2.59h-.11c-.17,0-.33,.1-.4,.25l-.16,.31c-.11,.22-.02,.49,.2,.6l6.15,3.09c.07,.04,.13,.05,.2,.05,.17,0,.32-.09,.4-.24l.16-.31c.07-.15,.06-.34-.05-.47l-.06-.09c-.45-.58-.91-1.19,.41-3.81l6.89-13.68c2.07,1.15,2.11,4.36,1.77,6.87-.04,.33-.09,.65-.15,.96-.1,.54-.22,1.11-.35,1.68-.05,.2,.04,.41,.23,.5l.46,.23c.11,.06,.24,.07,.36,.02,.12-.05,.21-.14,.26-.26l3.29-8.8c.08-.21-.02-.45-.22-.56Zm-12.55,11.07l-.79,1.57c-.17,.33-.31,.64-.43,.92-.01,.05-.03,.09-.05,.14-.11,.26-.19,.51-.27,.73-.11,.38-.17,.7-.2,.99-.05,.52,.02,.91,.15,1.22l-4.26-2.15c.1-.02,.19-.06,.29-.1h.01c.1-.05,.21-.1,.31-.16,.11-.07,.22-.14,.33-.23,.53-.43,1.13-1.19,1.8-2.53l1.29-2.56,.08-.17,5.72-11.35c.05-.11,.06-.23,.03-.35-.04-.11-.12-.2-.23-.26l-.24-.12c-.26-.13-.55-.24-.88-.31-.14-.04-.29-.07-.44-.08-.33-.04-.68-.04-1.07,.01-.08,.01-.17,.03-.26,.04-.19,.04-.39,.09-.59,.15-.1,.03-.21,.07-.31,.11-.13,.04-.26,.09-.4,.15-.13,.06-.25,.11-.38,.18-.13,.06-.26,.13-.39,.2-.13,.07-.26,.15-.39,.23-.13,.08-.26,.16-.39,.26-.12,.08-.23,.16-.35,.24-.15,.11-.31,.22-.46,.35-.14,.11-.27,.22-.41,.34-.27,.22-.55,.47-.84,.75-.13,.12-.26,.25-.4,.39l3.52-5.44,12.69,6.39-2.28,6.1h0c.01-.13,.03-.26,.05-.37,.7-5.15-.9-7.11-2.37-7.85l-.29-.14c-.22-.11-.49-.03-.6,.2l-6.21,12.33-.09,.18Z"/></g><g><path class="j" d="M135.14,118.12l-.85,1.98-.95,2.21-1.01,2.34-1.07,2.5-.2,.46-.95,2.2-1.22,2.84-1.31,3.04-1.4,3.26-1.51,3.51-1.63,3.79v.02l-.02-.02c-.04-.05-.08-.1-.12-.15l1.56-3.64,1.51-3.51,1.4-3.26h0l1.31-3.04,1.22-2.84,.95-2.2,.2-.46,1.07-2.5,1.01-2.34,.95-2.21h0l.89-2.08h.04s.08,.07,.12,.11Z"/><path class="h" d="M123.04,146.72c-.14,0-.27-.07-.36-.18l-.02-.02s-.07-.09-.11-.14c-.11-.13-.13-.31-.06-.46l4.47-10.41s.01-.02,.02-.03l6.68-15.56s.01-.02,.02-.03l.88-2.05c.07-.16,.23-.27,.41-.27h.04c.11,0,.22,.04,.3,.12l.05,.05s.04,.04,.07,.06c.14,.13,.19,.33,.11,.51l-12.09,28.14v.02c-.08,.15-.22,.25-.38,.26-.01,0-.03,0-.04,0Z"/></g></g><path class="h" d="M165.67,117.56h-30.65c-.18,0-.35,.12-.42,.29-.04,.12-.04,.24,.02,.35l-.74,1.72c-.05,.13-.05,.26,.02,.38,0,.01,.01,.03,.02,.04s.02,.03,.03,.04c.02,.03,.04,.05,.07,.07h.01s.03,.03,.05,.04c.01,0,.02,.01,.03,.01,.03,.02,.06,.03,.09,.03,.03,.01,.06,.01,.09,.01h31.38c.25,0,.45-.2,.45-.45v-2.08c0-.25-.2-.45-.45-.45Zm-30.7,2.09l.51-1.19h29.75v1.19h-30.26Z"/><path class="h" d="M134.58,120.54l-.52,1.22,.53-1.22h-.01Zm31.09-.89h-31.4s-.07,.01-.1,.02c-.03,0-.06,.02-.09,.03-.09,.05-.16,.12-.2,.22l-.95,2.21c-.05,.11-.04,.25,.02,.37,0,.02,.01,.03,.02,.05,0,.01,.02,.03,.03,.04,.02,.03,.04,.05,.07,.07h.01s.03,.03,.05,.04c.01,0,.02,.01,.03,.01,.03,.02,.06,.03,.09,.03,.03,.01,.06,.01,.09,.01h32.33c.25,0,.45-.2,.45-.45v-2.21c0-.24-.2-.44-.45-.44Zm-31.65,2.2l.04-.09,.53-1.22h30.64v1.31h-31.21Z"/><path class="h" d="M165.67,135.24h-38.1s-.07,.01-.1,.02c-.03,0-.06,.02-.09,.03-.09,.05-.16,.12-.2,.22l-1.4,3.26c-.06,.14-.05,.3,.03,.42,.01,.02,.03,.04,.04,.05,.04,.04,.08,.08,.13,.1,.01,.01,.02,.01,.03,.02,.05,.03,.12,.04,.18,.04h39.48c.25,0,.45-.2,.45-.45v-3.27c0-.24-.2-.44-.45-.44Zm-38.8,3.26l1.02-2.37h37.34v2.37h-38.36Z"/><path class="h" d="M123.05,146.7h-.21c-.15,0-.29-.08-.37-.2s-.1-.28-.04-.42l.07-.16,.34,.15v-.26h.21v.36l.27,.12-.06,.15-.2-.09v.36Z"/><rect class="h" x="134.08" y="119.65" width=".21" height=".9"/><rect class="h" x="133.13" y="121.85" width=".21" height=".9"/><rect class="h" x="132.12" y="124.2" width=".21" height=".9"/><rect class="h" x="131.05" y="126.69" width=".21" height=".9"/><path class="h" d="M131.55,127.59l-.75,1.76,.76-1.76h-.01Zm34.12-.9h-34.43s-.07,.01-.1,.02-.06,.02-.09,.04c-.09,.04-.16,.12-.2,.22l-.03,.08-1.11,2.57c-.05,.12-.05,.26,.02,.38,0,.02,.01,.03,.02,.05,.01,.02,.02,.03,.04,.04,.01,.03,.04,.05,.07,.06h0s.03,.04,.05,.04c.01,.01,.02,.02,.03,.02l.09,.03s.06,.01,.09,.01h35.55c.25,0,.45-.2,.45-.45v-2.66c0-.24-.2-.45-.45-.45Zm-34.87,2.66l.76-1.76h33.67v1.76h-34.43Z"/><rect class="h" x="129.91" y="129.35" width=".21" height=".9"/><rect class="h" x="128.69" y="132.19" width=".21" height=".9"/><rect class="h" x="127.38" y="135.24" width=".21" height=".9"/><rect class="h" x="125.98" y="138.5" width=".21" height=".9"/><rect class="h" x="124.47" y="142.01" width=".21" height=".9"/><g><path class="h" d="M41.85,146.08l-.02-.04-1.62-3.76c-.05-.12-.16-.22-.29-.25-.04-.01-.08-.02-.12-.02H-1.28c-.24,.01-.43,.21-.43,.45v3.79c0,.24,.19,.44,.43,.45H41.43s.08,0,.12-.01c.09-.03,.18-.08,.23-.16h.01s.01-.02,.02-.03c.08-.13,.1-.29,.04-.42Zm-42.66-.28v-2.89H39.51l1.24,2.89H-.81Z"/><path class="h" d="M41.55,146.7h-.11v-.4l-.3,.13-.04-.08,.33-.14v-.4h.11v.35l.38-.16,.03,.08c.06,.14,.05,.3-.04,.42s-.22,.2-.37,.2Z"/><path class="h" d="M30.57,119.92l-.72-1.69h-.01c.05-.12,.05-.25,0-.37v-.03s-.07-.08-.11-.11c0,0-.01-.02-.02-.02-.08-.08-.18-.13-.29-.13H-1.28c-.24,.01-.43,.21-.43,.45v2.08c0,.24,.19,.44,.43,.45H30.16s.06,0,.09-.01c.02,0,.04-.01,.06-.02,.01,0,.02,0,.03-.01,.05-.02,.08-.04,.12-.07,.02-.03,.04-.05,.06-.08,.01,0,.01-.01,.01-.01,.09-.13,.1-.28,.04-.42Zm-31.38-.27v-1.19H28.97l.51,1.19H-.81Z"/><rect class="h" x="30.16" y="119.65" width=".15" height=".9"/><rect class="h" x="31.11" y="121.85" width=".15" height=".9"/><rect class="h" x="32.12" y="124.2" width=".14" height=".9"/><rect class="h" x="33.19" y="126.69" width=".14" height=".9"/><rect class="h" x="34.34" y="129.35" width=".14" height=".9"/><rect class="h" x="35.56" y="132.19" width=".13" height=".9"/><rect class="h" x="36.88" y="135.24" width=".13" height=".9"/><rect class="h" x="38.28" y="138.5" width=".12" height=".9"/><path class="h" d="M40.21,142.28l-1.19-2.77s0-.01,0-.02l-.31-.72c-.05-.12-.16-.22-.29-.25-.04-.01-.08-.02-.12-.02H-1.28c-.24,.01-.43,.21-.43,.45v3.51c0,.24,.19,.44,.43,.45H39.8s.08-.01,.12-.01l.06-.03s.07-.03,.09-.06c.04-.02,.08-.06,.11-.1,.08-.13,.09-.29,.03-.43Zm-41.02-.27v-2.61H37.99l.19,.42s0,.02,.01,.02l.93,2.17H-.81Z"/><rect class="h" x="39.8" y="142.01" width=".12" height=".9"/></g><g><path class="j" d="M82.04,167.98s-.04,.1-.12,.29h.08c.05,0,.11,0,.16,.01l-.12-.3Z"/><path class="h" d="M82.86,168.8l-.75-.07s-.09,0-.14,0h-.02l-.73,.05,.28-.67c.07-.17,.11-.27,.11-.28l.42-1.13,.42,1.13s.04,.11,.11,.28l.29,.69Z"/></g><path class="h" d="M101.79,154.77c-.88-1.81-2.04-3.47-3.43-4.95-1.3-1.39-2.37-2.15-2.57-2.29l-13.75-12.19-13.65,12.1h-.02l-.1,.11c-.39,.27-1.38,1.02-2.55,2.27-1.39,1.49-2.55,3.15-3.43,4.94-1.32,2.7-2,5.62-2,8.69,0,1.78,.23,3.45,.67,4.96,.39,1.35,.97,2.57,1.7,3.61,.55,.8,1.21,1.51,1.94,2.1,1.9,1.52,4.3,2.29,7.14,2.29,1.21,0,2.38-.21,3.49-.62,1.25-.47,2.42-1.2,3.48-2.17,.66-.6,1.29-1.3,1.85-2.08,.12-.16,.23-.32,.35-.5,.5-.74,.87-1.43,1.13-1.95,.26,.52,.63,1.21,1.13,1.95,.09,.14,.19,.29,.3,.43,.64,.89,1.35,1.68,2.12,2.34,1.36,1.19,2.87,1.98,4.5,2.35,.73,.17,1.49,.25,2.25,.25,.92,0,1.8-.08,2.62-.24,1.99-.39,3.69-1.24,5.06-2.52,.2-.18,.39-.37,.57-.57l.12-.13h0c.26-.3,.5-.6,.72-.92,.74-1.04,1.32-2.26,1.72-3.62,.42-1.47,.64-3.08,.64-4.8v-.16c0-3.07-.67-5.99-2-8.68Zm1.1,8.84c0,1.63-.2,3.16-.6,4.55-.37,1.26-.9,2.39-1.59,3.36-.23,.33-.49,.65-.77,.94l-.12,.13c-1.31,1.4-3,2.3-5.02,2.7-.77,.15-1.59,.23-2.45,.23-.7,0-1.39-.08-2.05-.23-1.48-.34-2.87-1.06-4.12-2.15-.18-.15-.35-.32-.52-.49-.34-.34-.67-.7-.99-1.1-.16-.2-.32-.4-.47-.61-.1-.13-.19-.26-.28-.4-.7-1.05-1.14-1.98-1.34-2.44-.05-.11-.08-.2-.1-.24l-.26-.03c-.05-.01-.09-.01-.13-.01h-.19l-.27,.02-.03,.06s-.05,.11-.08,.19h0c-.21,.48-.64,1.41-1.34,2.45-.11,.17-.22,.32-.33,.47-.53,.73-1.12,1.39-1.73,1.95-.98,.9-2.06,1.57-3.19,1.99-1.01,.38-2.08,.57-3.18,.57-2.63,0-4.84-.71-6.58-2.1-.66-.54-1.26-1.18-1.77-1.91-.67-.96-1.2-2.09-1.57-3.36-.42-1.42-.63-3-.63-4.7,0-2.93,.64-5.72,1.9-8.29,.85-1.72,1.95-3.31,3.28-4.73,1.05-1.11,1.93-1.8,2.34-2.09h.03l13.3-11.8,13.03,11.55v.13l.25,.08c.23,.16,1.21,.88,2.39,2.13,1.33,1.42,2.43,3.01,3.28,4.73,1.26,2.57,1.9,5.36,1.9,8.29v.16Zm-9.6,21.26c-2.47-2.13-4.41-4.11-5.76-5.89-.5-.65-.92-1.28-1.26-1.88l-.05-.09-.09-.06c-.82-.55-1.58-1.23-2.25-2-.98-1.12-1.43-2.07-1.43-2.08l-.41-.85-.4,.85s-.46,.96-1.44,2.08c-.18,.21-.39,.43-.63,.67-.49,.48-.99,.91-1.21,1.1l-.1,.09-.04,.13s-.01,.03-.01,.04c-1.23,2.23-3.62,4.89-7.09,7.89l-.91,.79h23.99l-.91-.79Zm-20.69-.11c3.09-2.76,5.24-5.24,6.41-7.38l.04-.05v-.02c.26-.23,.71-.62,1.15-1.05,.25-.26,.48-.5,.68-.72,.52-.6,.9-1.15,1.16-1.56,.26,.41,.64,.96,1.16,1.56,.7,.8,1.49,1.51,2.34,2.1,.35,.6,.78,1.23,1.28,1.89,1.22,1.6,2.89,3.35,4.99,5.23h-19.21Zm29.19-29.99c-.88-1.81-2.04-3.47-3.43-4.95-1.3-1.39-2.37-2.15-2.57-2.29l-13.75-12.19-13.65,12.1h-.02l-.1,.11c-.39,.27-1.38,1.02-2.55,2.27-1.39,1.49-2.55,3.15-3.43,4.94-1.32,2.7-2,5.62-2,8.69,0,1.78,.23,3.45,.67,4.96,.39,1.35,.97,2.57,1.7,3.61,.55,.8,1.21,1.51,1.94,2.1,1.9,1.52,4.3,2.29,7.14,2.29,1.21,0,2.38-.21,3.49-.62,1.25-.47,2.42-1.2,3.48-2.17,.66-.6,1.29-1.3,1.85-2.08,.12-.16,.23-.32,.35-.5,.5-.74,.87-1.43,1.13-1.95,.26,.52,.63,1.21,1.13,1.95,.09,.14,.19,.29,.3,.43,.64,.89,1.35,1.68,2.12,2.34,1.36,1.19,2.87,1.98,4.5,2.35,.73,.17,1.49,.25,2.25,.25,.92,0,1.8-.08,2.62-.24,1.99-.39,3.69-1.24,5.06-2.52,.2-.18,.39-.37,.57-.57l.12-.13h0c.26-.3,.5-.6,.72-.92,.74-1.04,1.32-2.26,1.72-3.62,.42-1.47,.64-3.08,.64-4.8v-.16c0-3.07-.67-5.99-2-8.68Zm1.1,8.84c0,1.63-.2,3.16-.6,4.55-.37,1.26-.9,2.39-1.59,3.36-.23,.33-.49,.65-.77,.94l-.12,.13c-1.31,1.4-3,2.3-5.02,2.7-.77,.15-1.59,.23-2.45,.23-.7,0-1.39-.08-2.05-.23-1.48-.34-2.87-1.06-4.12-2.15-.18-.15-.35-.32-.52-.49-.34-.34-.67-.7-.99-1.1-.16-.2-.32-.4-.47-.61-.1-.13-.19-.26-.28-.4-.7-1.05-1.14-1.98-1.34-2.44-.05-.11-.08-.2-.1-.24l-.26-.03c-.05-.01-.09-.01-.13-.01h-.19l-.27,.02-.03,.06s-.05,.11-.08,.19h0c-.21,.48-.64,1.41-1.34,2.45-.11,.17-.22,.32-.33,.47-.53,.73-1.12,1.39-1.73,1.95-.98,.9-2.06,1.57-3.19,1.99-1.01,.38-2.08,.57-3.18,.57-2.63,0-4.84-.71-6.58-2.1-.66-.54-1.26-1.18-1.77-1.91-.67-.96-1.2-2.09-1.57-3.36-.42-1.42-.63-3-.63-4.7,0-2.93,.64-5.72,1.9-8.29,.85-1.72,1.95-3.31,3.28-4.73,1.05-1.11,1.93-1.8,2.34-2.09h.03l13.3-11.8,13.03,11.55v.13l.25,.08c.23,.16,1.21,.88,2.39,2.13,1.33,1.42,2.43,3.01,3.28,4.73,1.26,2.57,1.9,5.36,1.9,8.29v.16Zm-15.36,15.37c-.5-.65-.92-1.28-1.26-1.88l-.05-.09-.09-.06c-.82-.55-1.58-1.23-2.25-2-.98-1.12-1.43-2.07-1.43-2.08l-.41-.85-.4,.85s-.46,.96-1.44,2.08c-.18,.21-.39,.43-.63,.67-.49,.48-.99,.91-1.21,1.1l-.1,.09-.04,.13s-.01,.03-.01,.04c-1.23,2.23-3.62,4.89-7.09,7.89l-.91,.79h23.99l-.91-.79c-2.47-2.13-4.41-4.11-5.76-5.89Zm-14.93,5.78c3.09-2.76,5.24-5.24,6.41-7.38l.04-.05v-.02c.26-.23,.71-.62,1.15-1.05,.25-.26,.48-.5,.68-.72,.52-.6,.9-1.15,1.16-1.56,.26,.41,.64,.96,1.16,1.56,.7,.8,1.49,1.51,2.34,2.1,.35,.6,.78,1.23,1.28,1.89,1.22,1.6,2.89,3.35,4.99,5.23h-19.21Zm21.65-54.04l-.12-.03c-3.3-.77-6.7-1.23-10.09-1.35-1.35-.05-2.72-.05-4.08,0-3.2,.13-6.4,.54-9.51,1.24l-.13,.03-31.3,31.3,43.21,43.22,43.21-43.22-31.19-31.19Zm-12.02,73.14l-41.94-41.95,30.48-30.48c3.02-.67,6.12-1.07,9.22-1.19,1.34-.06,2.69-.06,4.01,0,3.3,.13,6.6,.56,9.8,1.31l30.37,30.37-15.19,15.2-26.75,26.75Zm16.13-54.04c-1.3-1.39-2.37-2.15-2.57-2.29l-13.75-12.19-13.65,12.1h-.02l-.1,.11c-.39,.27-1.38,1.02-2.55,2.27-1.39,1.49-2.55,3.15-3.43,4.94-1.32,2.7-2,5.62-2,8.69,0,1.78,.23,3.45,.67,4.96,.39,1.35,.97,2.57,1.7,3.61,.55,.8,1.21,1.51,1.94,2.1,1.9,1.52,4.3,2.29,7.14,2.29,1.21,0,2.38-.21,3.49-.62,1.25-.47,2.42-1.2,3.48-2.17,.66-.6,1.29-1.3,1.85-2.08,.12-.16,.23-.32,.35-.5,.5-.74,.87-1.43,1.13-1.95,.26,.52,.63,1.21,1.13,1.95,.09,.14,.19,.29,.3,.43,.64,.89,1.35,1.68,2.12,2.34,1.36,1.19,2.87,1.98,4.5,2.35,.73,.17,1.49,.25,2.25,.25,.92,0,1.8-.08,2.62-.24,1.99-.39,3.69-1.24,5.06-2.52,.2-.18,.39-.37,.57-.57l.12-.13h0c.26-.3,.5-.6,.72-.92,.74-1.04,1.32-2.26,1.72-3.62,.42-1.47,.64-3.08,.64-4.8v-.16c0-3.07-.67-5.99-2-8.68-.88-1.81-2.04-3.47-3.43-4.95Zm4.53,13.79c0,1.63-.2,3.16-.6,4.55-.37,1.26-.9,2.39-1.59,3.36-.23,.33-.49,.65-.77,.94l-.12,.13c-1.31,1.4-3,2.3-5.02,2.7-.77,.15-1.59,.23-2.45,.23-.7,0-1.39-.08-2.05-.23-1.48-.34-2.87-1.06-4.12-2.15-.18-.15-.35-.32-.52-.49-.34-.34-.67-.7-.99-1.1-.16-.2-.32-.4-.47-.61-.1-.13-.19-.26-.28-.4-.7-1.05-1.14-1.98-1.34-2.44-.05-.11-.08-.2-.1-.24l-.26-.03c-.05-.01-.09-.01-.13-.01h-.19l-.27,.02-.03,.06s-.05,.11-.08,.19h0c-.21,.48-.64,1.41-1.34,2.45-.11,.17-.22,.32-.33,.47-.53,.73-1.12,1.39-1.73,1.95-.98,.9-2.06,1.57-3.19,1.99-1.01,.38-2.08,.57-3.18,.57-2.63,0-4.84-.71-6.58-2.1-.66-.54-1.26-1.18-1.77-1.91-.67-.96-1.2-2.09-1.57-3.36-.42-1.42-.63-3-.63-4.7,0-2.93,.64-5.72,1.9-8.29,.85-1.72,1.95-3.31,3.28-4.73,1.05-1.11,1.93-1.8,2.34-2.09h.03l13.3-11.8,13.03,11.55v.13l.25,.08c.23,.16,1.21,.88,2.39,2.13,1.33,1.42,2.43,3.01,3.28,4.73,1.26,2.57,1.9,5.36,1.9,8.29v.16Zm-15.36,15.37c-.5-.65-.92-1.28-1.26-1.88l-.05-.09-.09-.06c-.82-.55-1.58-1.23-2.25-2-.98-1.12-1.43-2.07-1.43-2.08l-.41-.85-.4,.85s-.46,.96-1.44,2.08c-.18,.21-.39,.43-.63,.67-.49,.48-.99,.91-1.21,1.1l-.1,.09-.04,.13s-.01,.03-.01,.04c-1.23,2.23-3.62,4.89-7.09,7.89l-.91,.79h23.99l-.91-.79c-2.47-2.13-4.41-4.11-5.76-5.89Zm-14.93,5.78c3.09-2.76,5.24-5.24,6.41-7.38l.04-.05v-.02c.26-.23,.71-.62,1.15-1.05,.25-.26,.48-.5,.68-.72,.52-.6,.9-1.15,1.16-1.56,.26,.41,.64,.96,1.16,1.56,.7,.8,1.49,1.51,2.34,2.1,.35,.6,.78,1.23,1.28,1.89,1.22,1.6,2.89,3.35,4.99,5.23h-19.21Z"/><path class="h" d="M93.29,184.87c-2.47-2.13-4.41-4.11-5.76-5.89-.5-.65-.92-1.28-1.26-1.88l-.05-.09-.09-.06c-.82-.55-1.58-1.23-2.25-2-.98-1.12-1.43-2.07-1.43-2.08l-.41-.85-.4,.85s-.46,.96-1.44,2.08c-.18,.21-.39,.43-.63,.67-.49,.48-.99,.91-1.21,1.1l-.1,.09-.04,.13s-.01,.03-.01,.04c-1.23,2.23-3.62,4.89-7.09,7.89l-.91,.79h23.99l-.91-.79Zm-20.69-.11c3.09-2.76,5.24-5.24,6.41-7.38l.04-.05v-.02c.26-.23,.71-.62,1.15-1.05,.25-.26,.48-.5,.68-.72,.52-.6,.9-1.15,1.16-1.56,.26,.41,.64,.96,1.16,1.56,.7,.8,1.49,1.51,2.34,2.1,.35,.6,.78,1.23,1.28,1.89,1.22,1.6,2.89,3.35,4.99,5.23h-19.21Z"/><path class="h" d="M101.79,154.77c-.88-1.81-2.04-3.47-3.43-4.95-1.3-1.39-2.37-2.15-2.57-2.29l-13.75-12.19-13.65,12.1h-.02l-.1,.11c-.39,.27-1.38,1.02-2.55,2.27-1.39,1.49-2.55,3.15-3.43,4.94-1.32,2.7-2,5.62-2,8.69,0,1.78,.23,3.45,.67,4.96,.39,1.35,.97,2.57,1.7,3.61,.55,.8,1.21,1.51,1.94,2.1,1.9,1.52,4.3,2.29,7.14,2.29,1.21,0,2.38-.21,3.49-.62,1.25-.47,2.42-1.2,3.48-2.17,.66-.6,1.29-1.3,1.85-2.08,.12-.16,.23-.32,.35-.5,.5-.74,.87-1.43,1.13-1.95,.26,.52,.63,1.21,1.13,1.95,.09,.14,.19,.29,.3,.43,.64,.89,1.35,1.68,2.12,2.34,1.36,1.19,2.87,1.98,4.5,2.35,.73,.17,1.49,.25,2.25,.25,.92,0,1.8-.08,2.62-.24,1.99-.39,3.69-1.24,5.06-2.52,.19-.19,.38-.37,.56-.57h.01l.12-.13h0c.26-.3,.5-.6,.72-.92,.74-1.04,1.32-2.26,1.72-3.62,.42-1.47,.64-3.08,.64-4.8v-.16c0-3.07-.67-5.99-2-8.68Zm1.1,8.84c0,1.63-.2,3.16-.6,4.55-.37,1.26-.9,2.39-1.59,3.36-.23,.33-.49,.65-.77,.94l-.12,.13c-1.31,1.4-3,2.3-5.02,2.7-.77,.15-1.59,.23-2.45,.23-.7,0-1.39-.08-2.05-.23-1.48-.34-2.87-1.06-4.12-2.15-.18-.15-.35-.32-.52-.49-.35-.34-.68-.7-.99-1.1-.16-.2-.32-.4-.47-.61-.1-.13-.19-.26-.28-.4-.7-1.05-1.14-1.98-1.34-2.44-.05-.11-.08-.2-.1-.24-.01-.02-.01-.04-.01-.04l-.42-1.13-.42,1.13s-.01,.03-.03,.08-.05,.11-.08,.19h0c-.21,.48-.64,1.41-1.34,2.45-.11,.17-.22,.32-.33,.47-.53,.73-1.12,1.39-1.73,1.95-.98,.9-2.06,1.57-3.19,1.99-1.01,.38-2.08,.57-3.18,.57-2.63,0-4.84-.71-6.58-2.1-.66-.54-1.26-1.18-1.77-1.91-.67-.96-1.2-2.09-1.57-3.36-.42-1.42-.63-3-.63-4.7,0-2.93,.64-5.72,1.9-8.29,.85-1.72,1.95-3.31,3.28-4.73,1.05-1.11,1.93-1.8,2.34-2.09h.03l13.3-11.8,13.03,11.55v.13l.25,.08c.23,.16,1.21,.88,2.39,2.13,1.33,1.42,2.43,3.01,3.28,4.73,1.26,2.57,1.9,5.36,1.9,8.29v.16Z"/><g><path class="h" d="M63.19,122.74l-5.03-11.73c-1.32-3.07-.6-3.71-.03-4.37l-.14-.32-4.84,2.08,.14,.31c.86,.05,1.82-.03,3.14,3.04l4.96,11.57c.75,1.74-.93,3.49-2.93,4.35-1.58,.68-3.34,.8-4.27-.07-.2-.18-.35-.4-.47-.67l-5.07-11.84c-.23-.52-.39-.98-.51-1.37-.57-1.93,0-2.46,.47-3l-.13-.32-6.3,2.7,.13,.32c.87,.04,1.83-.04,3.15,3.04l.7,1.63,2.99,6.99,.4,.93,.68,1.59,.26,.59c1.11,2.59,4.85,2.53,8.04,1.16,.4-.17,.79-.36,1.16-.57,.69-.38,1.33-.83,1.87-1.31,1.53-1.35,2.35-3.05,1.63-4.73Z"/><path class="h" d="M85.49,122.77c-.81-.32-1.74-.56-1.99-3.89l-.58-7.95-.28-3.76-.06-.72c-.24-3.34,.65-3.71,1.4-4.15l-.03-.34-5.26,.38,.03,.35c.81,.32,1.74,.56,1.99,3.89l.06,.89,.26,3.43,.53,7.17-6.93-13.51-.95-1.84-4.99,.36,.03,.35c.67,.26,1.42,.47,1.8,2.44,.08,.4,.14,.88,.19,1.45l.35,4.76,.56,7.67c.25,3.34-.64,3.71-1.39,4.15l.03,.34h.11l.22-.02,2.79-.21h.02l2.11-.16-.02-.34c-.81-.32-1.74-.56-1.99-3.9l-.56-7.59-.27-3.59,3.03,5.84,4.03,7.78,.74,1.44,5.04-.38-.02-.34Z"/><path class="h" d="M93.95,108.07l-.05,.26c.53,.4,1.17,.76,.64,3.23l-.09,.4-1.89,8.77c-.53,2.47-1.26,2.55-1.91,2.71l-.06,.26,5.04,1.02,.16,.03,.05-.23v-.03c-.52-.4-1.17-.76-.64-3.22l1.98-9.18c.06-.28,.12-.52,.18-.74,.51-1.74,1.16-1.82,1.73-1.97l.06-.25-5.2-1.06Z"/><path class="h" d="M110.58,107.15l-.79-.39-.72-.37-5.12,7.88,.46,.23c3.48-4.16,6.67-5.89,9.05-4.7l.24,.12-.68,1.36-5,9.93-1.41,2.8c-1.51,2.99-2.46,2.85-3.33,2.84l-.16,.31,6.15,3.09,.16-.3c-.53-.7-1.21-1.38,.3-4.37l.74-1.47,4.82-9.58,1.53-3.03,.29,.14c1.95,.98,2.64,3.58,2.13,7.39-.05,.31-.1,.64-.16,.98-.1,.54-.22,1.11-.36,1.7l.46,.23,3.29-8.8-11.89-5.99Z"/></g><path class="k" d="M99.84,104.86v.03c-1.11,.69-2.12,1.51-3.03,2.43h-.03c-.48-1.22-1.1-2.36-1.84-3.42v-.03c1.11-.69,2.12-1.51,3.03-2.43h.03c.48,1.22,1.1,2.36,1.84,3.43Z"/></g></g><g id="c"/><g id="d"/><g id="e"/><g id="f"/><g id="g"/></svg>