<?xml version="1.0" encoding="UTF-8"?><svg xmlns="http://www.w3.org/2000/svg" viewBox="0 0 164.41 255.12"><defs><style>.h{fill:#010101;}.i{fill:#fff;}.j{fill:#e52522;}</style></defs><g id="a"/><g id="b"><rect class="h" width="164.41" height="255.12" rx="13.62" ry="13.62"/><g><g><path class="i" d="M57.78,80.67c-.07,.09-.14,.17-.21,.25-.52,.59-.94,.89-.97,.91h0l-2.6,2.45c1.05-1.41,2.33-2.63,3.78-3.62Z"/><path class="i" d="M54.31,84.61l-.67-.59c1.08-1.45,2.39-2.7,3.89-3.72l2.45-1.67-1.85,2.32c-.08,.1-.15,.19-.23,.27-.35,.4-.66,.68-.85,.83v.23h-.27l-2.47,2.33Z"/></g><g><path class="j" d="M150.85,10.47c-3.25,0-5.32,2.2-6.45,3.96-.76,1.18-1.1,2.16-1.1,2.16,0,0-.34-.98-1.1-2.16-1.14-1.76-3.2-3.96-6.45-3.96-5.42,0-8.07,4.16-8.07,9.58,0,2.59,.61,4.75,1.43,6.5,.75,1.58,1.66,2.82,2.46,3.71,.98,1.09,1.78,1.66,1.84,1.71h0l9.88,9.15,9.88-9.15h0s.86-.61,1.85-1.71c.8-.89,1.71-2.12,2.46-3.7,.82-1.74,1.43-3.91,1.43-6.5,0-5.42-2.65-9.58-8.07-9.58Z"/><path class="i" d="M151.29,226.02c-.5,0-1.03,.05-1.57,.14,.98-1.8,1.56-3.84,1.56-5.62,0-4.42-3.58-7.99-7.99-7.99s-7.99,3.58-7.99,7.99c0,1.78,.58,3.82,1.56,5.62-.54-.09-1.06-.14-1.57-.14-4.42,0-7.99,3.58-7.99,7.99s3.58,7.99,7.99,7.99c1.71,0,3.67-.54,5.42-1.46-.78,1.6-2.23,3.7-4.83,6.4h14.8c-2.59-2.7-4.05-4.8-4.83-6.4,1.75,.92,3.71,1.46,5.42,1.46,4.42,0,7.99-3.58,7.99-7.99s-3.58-7.99-7.99-7.99Z"/><path class="i" d="M35.1,25.41c0-2.12-.56-3.89-1.33-5.32-.69-1.3-1.54-2.31-2.29-3.03-.91-.89-1.65-1.36-1.71-1.4h0l-9.17-7.49-9.17,7.49h0s-.79,.5-1.71,1.4c-.74,.73-1.59,1.74-2.28,3.03-.76,1.43-1.33,3.2-1.33,5.32,0,4.44,2.45,7.84,7.48,7.84,1.97,0,3.47-.77,4.57-1.7-.74,1.63-2.21,3.81-4.96,6.67h14.8c-2.75-2.86-4.22-5.04-4.96-6.67,1.1,.93,2.6,1.7,4.57,1.7,5.03,0,7.48-3.41,7.48-7.84Z"/><path class="j" d="M35.32,229.67c-5.56-5.15-10.42-10.87-14.64-17.12h-.16c-4.21,6.25-9.08,11.97-14.64,17.12v.15c5.56,5.15,10.42,10.87,14.64,17.12h.16c4.21-6.25,9.08-11.97,14.64-17.12v-.15Z"/></g><path class="i" d="M82.3,168.38h-.15c-.05-.02-.1-.02-.16-.02-.02,0-.04,0-.06,0h-.15l.06-.12c.08-.19,.12-.29,.12-.29l.08-.23,.08,.23s.04,.11,.12,.3l.06,.14Zm45.35-32.61h-.4l7.67-17.85h.14l.03,.02s.04,.04,.06,.05l.11,.1-7.6,17.68Zm-.13-.18h.01l7.5-17.45h0l-7.5,17.45Zm-91.68-2.86h-.33l-6.3-14.62,.1-.09s.04-.03,.06-.05l.09-.08,5.91,13.76h0l.46,1.07Zm18.51-2.36c-1.76,0-3.29-.61-3.95-2.15l-5.03-11.73c-1.24-2.9-2.16-2.94-2.96-2.98h-.16l-.19-.46,6.47-2.77,.19,.45-.11,.12c-.31,.35-.62,.72-.62,1.48,0,.35,.07,.79,.24,1.36,.12,.4,.29,.85,.5,1.36l5.08,11.85c.11,.25,.26,.46,.44,.63,.83,.76,2.46,.78,4.17,.05,1.65-.71,3.06-2.03,3.06-3.41,0-.27-.05-.55-.17-.82l-4.96-11.57c-1.24-2.9-2.16-2.94-2.96-2.98h-.16l-.19-.46,5.01-2.15,.19,.45-.11,.12c-.3,.34-.62,.71-.62,1.49,0,.6,.19,1.45,.73,2.71l5.03,11.73c.18,.42,.27,.86,.27,1.3,0,1.19-.66,2.4-1.92,3.53-.54,.48-1.18,.93-1.89,1.32-.36,.2-.76,.4-1.17,.57-1.35,.58-2.86,.94-4.22,.94Zm-11.98-17.05h.05c.86,.04,1.83,.09,3.12,3.09l5.03,11.73c1.12,2.62,4.9,2.41,7.93,1.11,.4-.17,.79-.36,1.15-.57,.7-.39,1.32-.83,1.86-1.3,1.23-1.09,1.86-2.26,1.86-3.4,0-.42-.08-.83-.26-1.23l-5.03-11.73c-.55-1.29-.75-2.17-.75-2.79h0c0-.83,.35-1.23,.67-1.6l.03-.04-.08-.18-4.68,2.01,.08,.18h.05c.86,.04,1.83,.09,3.12,3.09l4.96,11.57c.13,.3,.19,.59,.19,.89,0,1.46-1.45,2.85-3.17,3.58-1.77,.76-3.49,.73-4.36-.09-.21-.19-.37-.43-.49-.7l-5.08-11.85c-.22-.51-.39-.98-.51-1.38-.17-.58-.24-1.04-.24-1.41,0-.83,.35-1.23,.67-1.6l.03-.04-.08-.18-6.14,2.63,.08,.18Zm66.94,17.04l-6.31-3.18,.22-.44h.16c.81,.01,1.72,.03,3.14-2.79l7.05-14.01-.16-.08c-2.28-1.15-5.46,.51-8.94,4.68l-.05,.05-.61-.31,5.21-8.03,1.58,.8,11.96,6.03-.03,.08-3.32,8.89-.61-.31,.02-.07c.14-.57,.26-1.15,.36-1.7,.05-.31,.11-.64,.15-.98,.11-.81,.16-1.56,.16-2.24,0-2.58-.76-4.3-2.24-5.05l-.21-.1-7.05,14.01c-.68,1.34-.9,2.21-.91,2.82,0,.67,.27,1.03,.53,1.36l.1,.13-.22,.43Zm-6.07-3.26l5.99,3.02,.09-.17-.03-.04c-.28-.36-.57-.75-.57-1.46,0-.64,.24-1.54,.93-2.91l.72-1.43c-.74-.95-1.52-1.88-2.33-2.75l-1.35,2.69c-1.47,2.92-2.45,2.9-3.31,2.89h-.05l-.09,.18Zm4.88-5.92c.81,.87,1.59,1.8,2.33,2.75l6.33-12.56,.37,.19c1.54,.78,2.34,2.56,2.34,5.21,0,.7-.05,1.45-.16,2.27-.05,.34-.1,.67-.15,.98-.1,.54-.21,1.09-.35,1.64l.3,.15,3.22-8.63-13.26-6.68-5.01,7.73,.3,.15c3.58-4.26,6.73-5.87,9.11-4.67l.32,.16-.73,1.44-4.97,9.87Zm-12.27,3.66l-5.37-1.09,.08-.39,.13-.03c.6-.15,1.28-.31,1.77-2.62l1.97-9.18c.14-.64,.2-1.14,.2-1.53,0-1.01-.39-1.3-.74-1.56l-.11-.08,.09-.39,5.37,1.09-.09,.4-.13,.03c-.55,.13-1.12,.27-1.59,1.89-.06,.21-.12,.45-.18,.73l-1.98,9.18c-.14,.64-.2,1.14-.2,1.53,0,1.01,.39,1.3,.74,1.56l.11,.08-.08,.4Zm-5.16-1.23l5.02,1.02,.02-.11h-.02c-.39-.3-.81-.62-.81-1.71,0-.41,.06-.92,.2-1.57l1.98-9.18c.06-.28,.12-.53,.19-.75,.5-1.71,1.15-1.87,1.72-2.01h.03l.02-.12-5.02-1.02-.02,.11h.02c.39,.3,.81,.62,.81,1.71,0,.41-.06,.92-.2,1.58l-.09,.4-1.89,8.77c-.52,2.42-1.26,2.6-1.91,2.76h-.02l-.02,.11Zm-20.53,.71l-.04-.49,.14-.08c.61-.35,1.3-.75,1.3-2.98,0-.31-.01-.65-.04-1.03l-.92-12.43c-.04-.56-.1-1.04-.18-1.44-.35-1.82-1.01-2.08-1.65-2.34l-.15-.06-.04-.49,5.14-.38,7.7,15.01-.82-11.04c-.23-3.15-1.08-3.49-1.83-3.78l-.15-.06-.04-.49,5.43-.4,.04,.49-.14,.08c-.61,.35-1.3,.75-1.3,2.98,0,.31,.01,.65,.04,1.03l.92,12.43c.23,3.15,1.08,3.49,1.83,3.78l.15,.06,.04,.49-5.19,.38-.77-1.49-6.86-13.23,.79,10.75c.23,3.15,1.08,3.48,1.83,3.78l.15,.06,.04,.49-5.43,.4Zm.15-.39v.2l5.09-.38v-.2l-.06-.02c-.8-.32-1.7-.67-1.94-3.93l-.86-11.62,7.97,15.39,4.89-.36v-.2l-.06-.02c-.8-.32-1.71-.67-1.95-3.94l-.92-12.43c-.03-.39-.04-.74-.04-1.05,0-2.32,.73-2.75,1.39-3.13l.04-.02-.02-.2-5.08,.37v.2l.06,.02c.8,.32,1.71,.67,1.95,3.94l.88,11.93-8.05-15.69-4.84,.36v.2l.06,.02c.65,.26,1.39,.55,1.76,2.47,.08,.41,.14,.89,.18,1.47l.92,12.43c.03,.39,.04,.73,.04,1.04,0,2.33-.73,2.76-1.39,3.14l-.04,.02Zm26.52-16.54l-.12-.02-.02-.05c-.49-1.21-1.1-2.36-1.83-3.4l-.02-.03,.02-.1,.03-.02c1.08-.68,2.09-1.5,3.01-2.42l.03-.03,.12,.02,.02,.05c.48,1.21,1.1,2.35,1.83,3.4l.02,.03-.02,.1-.03,.02c-1.08,.68-2.1,1.49-3.01,2.42l-.03,.03Zm-1.78-3.51c.7,1.01,1.29,2.11,1.77,3.27,.89-.89,1.86-1.67,2.9-2.33-.7-1.01-1.3-2.11-1.77-3.27-.89,.89-1.86,1.67-2.9,2.33Zm-42.12-.13l-.04-.08s-.04-.08-.06-.12l-.17-.37,.31,.26s.07,.06,.12,.09l.14,.11-.18,.04s-.03,.01-.05,.02l-.08,.04Zm24.46-22.73l-.24-.12c-.2-.1-.39-.2-.59-.3l-.11-.05,.08-.09c.09-.1,.19-.21,.29-.31l.09-.09,.06,.11c.11,.21,.21,.41,.31,.61l.12,.24Zm-.65-.53c.08,.04,.17,.08,.25,.13-.04-.08-.09-.17-.13-.25-.04,.04-.08,.09-.12,.13Z"/><path class="i" d="M35.02,130.25H-1.71v-3.55H33.49l1.53,3.55Zm-35.84-.9H33.66l-.76-1.76H-.81v1.76Z"/><path class="i" d="M52.17,100.87l-.18-.38c-1.01-2.15-1.53-4.46-1.53-6.86,0-.82,.06-1.65,.19-2.46,.39-2.57,1.43-5.05,2.99-7.15l.05-.06,2.46-2.32v-.04l.16-.12,.11-.1h.03c.15-.12,.44-.37,.78-.76,.07-.07,.13-.15,.2-.24l.04-.05,.06-.04c2.42-1.64,5.24-2.6,8.17-2.75,.28-.02,.57-.02,.87-.02,2.99,0,6.38,.81,9.6,2.3-1.3-2.35-3.18-4.97-5.61-7.78-.96-1.11-2.01-2.26-3.14-3.43l-.73-.76h31.09l-.73,.76c-.83,.86-1.63,1.72-2.37,2.56-2.81,3.16-4.95,6.07-6.39,8.66,3.2-1.47,6.63-2.31,9.6-2.31,.41,0,.82,.01,1.22,.04,2.13,.16,4.17,.73,6.07,1.69,2.03,1.03,3.87,2.52,5.3,4.31,.18,.22,.36,.46,.54,.72,.5,.7,.95,1.45,1.33,2.22,.67,1.35,1.14,2.78,1.4,4.26,.17,.94,.25,1.9,.25,2.86,0,2.39-.51,4.7-1.53,6.85l-.18,.38-.39-.16c-1.82-.73-3.68-1.39-5.53-1.98-3.34-1.06-6.78-1.9-10.23-2.5-2.17-.38-4.39-.68-6.6-.88-3.17-.29-6.4-.39-9.59-.3-5.42,.15-10.84,.86-16.09,2.1-1.55,.36-3.12,.79-4.69,1.26-2.21,.67-4.44,1.44-6.6,2.31l-.39,.16Zm2.16-16.28c-1.46,1.98-2.43,4.3-2.8,6.72-.12,.77-.18,1.55-.18,2.32,0,2.12,.43,4.17,1.27,6.09,2.07-.81,4.18-1.55,6.28-2.18,1.59-.48,3.18-.9,4.74-1.27,5.31-1.25,10.78-1.97,16.27-2.12,3.22-.09,6.48,0,9.69,.3,2.24,.2,4.48,.5,6.67,.89,3.49,.61,6.97,1.46,10.35,2.53,1.74,.55,3.49,1.17,5.2,1.84,.84-1.92,1.27-3.97,1.27-6.08,0-.9-.08-1.81-.24-2.7-.25-1.4-.7-2.75-1.32-4.02-.36-.73-.78-1.44-1.25-2.1-.17-.24-.34-.46-.51-.67-1.35-1.69-3.08-3.1-5-4.07-1.79-.91-3.72-1.45-5.73-1.6-.38-.03-.77-.04-1.15-.04-3.21,0-7.01,1.02-10.42,2.81l-1.2,.63,.59-1.22c1.43-2.96,3.84-6.34,7.15-10.06,.53-.6,1.09-1.21,1.67-1.82h-26.89c.87,.92,1.69,1.83,2.45,2.71,2.68,3.11,4.72,5.99,6.05,8.55,.11,.21,.21,.41,.31,.62l.58,1.21-1.19-.62c-.19-.1-.39-.2-.59-.3-3.29-1.62-6.78-2.51-9.83-2.51-.29,0-.56,0-.82,.02-2.74,.15-5.39,1.03-7.66,2.56-.06,.08-.12,.15-.18,.22-.35,.4-.66,.68-.85,.83v.23h-.27l-2.44,2.3Z"/><path class="i" d="M165.67,125.1h-33.34c-.15,0-.29-.08-.37-.2-.08-.13-.1-.29-.04-.42l1.01-2.34c.07-.16,.23-.27,.41-.27h32.33c.25,0,.45,.2,.45,.45v2.34c0,.25-.2,.45-.45,.45Zm-32.66-.9h32.21v-1.45h-31.59l-.62,1.45Z"/><path class="i" d="M165.67,127.59h-34.41c-.15,0-.29-.08-.37-.2-.08-.13-.1-.28-.04-.42l1.07-2.5c.07-.16,.23-.27,.41-.27h33.34c.25,0,.45,.2,.45,.45v2.5c0,.25-.2,.45-.45,.45Zm-33.73-.9h33.28v-1.6h-32.6l-.69,1.6Z"/><path class="i" d="M165.67,133.09h-36.77c-.15,0-.29-.08-.37-.2-.08-.13-.1-.28-.04-.42l1.22-2.84c.07-.16,.23-.27,.41-.27h35.55c.25,0,.45,.2,.45,.45v2.84c0,.25-.2,.45-.45,.45Zm-36.09-.9h35.65v-1.94h-34.81l-.84,1.94Z"/><path class="i" d="M165.67,136.13h-38.08c-.15,0-.29-.08-.37-.2-.08-.13-.1-.28-.04-.42l1.31-3.04c.07-.16,.23-.27,.41-.27h36.77c.25,0,.45,.2,.45,.45v3.04c0,.25-.2,.45-.45,.45Zm-37.4-.9h36.95v-2.15h-36.03l-.92,2.15Z"/><g><path class="i" d="M135.14,118.12l-.85,1.98-.95,2.21-1.01,2.34-1.07,2.5-.2,.46-.95,2.2-1.22,2.84-1.31,3.04-1.4,3.26-1.51,3.51-1.63,3.79h-.16v-.18s.01,.02,.02,.03l1.56-3.64,1.51-3.51,1.4-3.26h0l1.31-3.04,1.22-2.84,.95-2.2,.2-.46,1.07-2.5,1.01-2.34,.95-2.21h0l.89-2.08h.04s.08,.07,.12,.11Z"/><path class="i" d="M123.05,146.7h-.16c-.25,0-.45-.2-.45-.45v-.18c0-.12,.05-.23,.12-.31l4.41-10.26s.01-.02,.02-.03l6.68-15.56s.01-.02,.02-.03l.88-2.05c.07-.16,.23-.27,.41-.27h.04c.11,0,.22,.04,.3,.12l.05,.05s.04,.04,.07,.06c.14,.13,.19,.33,.11,.51l-12.09,28.14c-.07,.16-.23,.27-.41,.27Z"/></g><path class="i" d="M165.67,146.7h-42.62c-.15,0-.29-.08-.37-.2s-.1-.28-.04-.42l1.63-3.79c.07-.16,.23-.27,.41-.27h40.99c.25,0,.45,.2,.45,.45v3.79c0,.25-.2,.45-.45,.45Zm-41.94-.9h41.5v-2.89h-40.25l-1.24,2.89Z"/><path class="i" d="M165.67,142.91h-40.99c-.15,0-.29-.08-.37-.2-.08-.13-.1-.28-.04-.42l1.51-3.51c.07-.16,.23-.27,.41-.27h39.49c.25,0,.45,.2,.45,.45v3.51c0,.25-.2,.45-.45,.45Zm-40.31-.9h39.87v-2.62h-38.74l-1.12,2.62Z"/><g><path class="i" d="M29.46,118.01s-.02,.02-.03,.03v-.03h.03Z"/><path class="i" d="M29.42,118.49s-.07,0-.1-.01c-.14-.03-.25-.13-.31-.26v-.03c-.07-.14-.06-.3,.02-.43,.08-.13,.22-.2,.38-.2h.05c.2,0,.37,.13,.43,.31,.06,.18,0,.38-.15,.49l-.02,.02c-.08,.07-.18,.1-.29,.1Zm.29-.11h0Zm0,0h0Zm.02-.01h0Z"/></g><path class="i" d="M31.11,122.75H-1.26c-.25,0-.45-.2-.45-.45v-2.21c0-.25,.2-.45,.45-.45H30.16c.18,0,.34,.11,.41,.27l.95,2.21c.06,.14,.05,.3-.04,.42-.08,.13-.22,.2-.37,.2Zm-31.92-.9H30.43l-.57-1.31H-.81v1.31Z"/><path class="i" d="M32.12,125.1H-1.26c-.25,0-.45-.2-.45-.45v-2.34c0-.25,.2-.45,.45-.45H31.11c.18,0,.34,.11,.41,.27l1.01,2.34c.06,.14,.05,.3-.04,.42-.08,.13-.22,.2-.37,.2Zm-32.93-.9H31.44l-.62-1.45H-.81v1.45Z"/><path class="i" d="M33.19,127.59H-1.26c-.25,0-.45-.2-.45-.45v-2.5c0-.25,.2-.45,.45-.45H32.12c.18,0,.34,.11,.41,.27l.46,1.07v.02l.61,1.4c.06,.14,.05,.3-.04,.42-.08,.13-.22,.2-.37,.2Zm-34.01-.9H32.51l-.34-.79v-.02l-.35-.78H-.81v1.6Z"/><path class="i" d="M35.56,133.09H-1.26c-.25,0-.45-.2-.45-.45v-2.84c0-.25,.2-.45,.45-.45H34.34c.18,0,.34,.11,.41,.27l1.22,2.84c.06,.14,.05,.3-.04,.42-.08,.13-.22,.2-.37,.2Zm-36.38-.9H34.88l-.84-1.94H-.81v1.94Z"/><path class="i" d="M36.88,136.13H-1.26c-.25,0-.45-.2-.45-.45v-3.04c0-.25,.2-.45,.45-.45H35.56c.18,0,.34,.11,.41,.27l1.31,3.04c.06,.14,.05,.3-.04,.42-.08,.13-.22,.2-.37,.2Zm-37.69-.9H36.2l-.93-2.15H-.81v2.15Z"/><path class="i" d="M38.28,139.4H-1.26c-.25,0-.45-.2-.45-.45v-3.26c0-.25,.2-.45,.45-.45H36.88c.18,0,.34,.11,.41,.27l1.41,3.26c.06,.14,.05,.3-.04,.42-.08,.13-.22,.2-.37,.2Zm-39.1-.9H37.6l-1.02-2.37H-.81v2.37Z"/><g><path class="i" d="M41.52,146.16v.09h-.09l-1.63-3.79-1.2-2.79h0l-.31-.72-1.41-3.26-1.31-3.04-.47-1.09-.75-1.75-1.15-2.66-.61-1.42h0l-.46-1.08-1.01-2.34-.95-2.21-.84-1.96s.07-.07,.11-.1l.88,2.05,.95,2.21,1.01,2.34,.41,.95,.66,1.55,1.14,2.66,.75,1.75,.47,1.09,1.31,3.04,1.4,3.26,.24,.57,1.27,2.95,1.6,3.71h.01Z"/><path class="i" d="M41.52,146.7h-.09c-.18,0-.34-.11-.41-.27l-2.84-6.59v-.02l-6.01-13.92v-.02l-3.27-7.56c-.08-.18-.03-.39,.12-.52l.05-.04s.04-.04,.06-.06c.11-.09,.25-.13,.39-.1,.14,.03,.25,.13,.31,.26l12.04,28.02c.06,.08,.1,.17,.1,.28v.09c0,.25-.2,.45-.45,.45Z"/></g><g><g><path class="i" d="M41.51,146.17s-.04,.05-.06,.08v.02l-.02-.02-1.63-3.79-1.2-2.79h0l-.31-.72-1.41-3.26-1.31-3.04-.47-1.09-.75-1.75-1.15-2.66-.61-1.42h0l-.46-1.08-1.01-2.34-.95-2.21-.84-1.96s.07-.07,.11-.1l.88,2.05,.95,2.21,1.01,2.34,.41,.95,.66,1.55,1.14,2.66,.75,1.75,.47,1.09,1.31,3.04,1.4,3.26,.24,.57,1.27,2.95,1.6,3.71Z"/><path class="i" d="M41.44,146.72h-.03c-.16-.01-.31-.12-.37-.27v-.02l-2.85-6.59v-.02l-6.01-13.92v-.02l-3.27-7.56c-.08-.18-.03-.39,.12-.52l.05-.04s.04-.04,.06-.06c.11-.09,.25-.13,.39-.1,.14,.03,.25,.13,.31,.26l12.09,28.13c.06,.15,.04,.32-.06,.45l-.02,.02s-.03,.03-.04,.05h0v.02c-.1,.11-.23,.18-.37,.18Z"/></g><path class="i" d="M41.51,146.62s-.03,0-.04,0c-.16-.02-.3-.12-.37-.27l-12.09-28.13c-.08-.18-.03-.39,.13-.52,.01,0,.02-.02,.04-.03,1.36-1.2,2.77-2.36,4.18-3.45,1.93-1.49,3.96-2.9,6.02-4.2,1.14-.72,2.31-1.42,3.49-2.08,1.99-1.12,4.07-2.17,6.18-3.12,1.25-.57,2.51-1.1,3.76-1.58,.02,0,.05-.02,.09-.04,2.06-.8,4.18-1.53,6.3-2.16,1.8-.54,3.66-1.02,5.52-1.43,4.92-1.09,9.97-1.72,15.02-1.87,2.27-.07,4.58-.05,6.88,.08,3.99,.21,7.99,.73,11.9,1.53,2.35,.48,4.71,1.07,7,1.76,3.16,.95,6.29,2.1,9.28,3.43,.01,0,.03,.01,.04,.02,2.2,.97,4.37,2.05,6.46,3.21,1.19,.66,2.38,1.36,3.53,2.08,1.8,1.13,3.57,2.33,5.24,3.58,1.8,1.34,3.56,2.77,5.24,4.25,.14,.12,.19,.32,.12,.49-.03,.07-.07,.13-.12,.17l-.83,1.93s-.01,.02-.02,.03l-6.68,15.56s-.01,.02-.02,.03l-4.46,10.38c-.07,.15-.21,.26-.38,.27-.15,.01-.3-.06-.39-.18h-.01c-1.17-1.51-2.44-2.96-3.76-4.31-3.7-3.79-7.95-6.96-12.6-9.42-.82-.43-1.66-.84-2.48-1.22-1.11-.51-2.26-.99-3.4-1.42-2.45-.92-4.99-1.65-7.54-2.18h-.02c-.21-.05-.41-.09-.62-.13-5.54-1.08-11.18-1.24-16.78-.49-1.56,.21-3.12,.49-4.64,.84-2.35,.54-4.67,1.25-6.91,2.11-1.11,.43-2.2,.89-3.25,1.38-2.26,1.05-4.46,2.29-6.56,3.67-2.71,1.8-5.27,3.88-7.61,6.19-1.6,1.58-3.11,3.28-4.49,5.05l-.02,.02c-.09,.1-.21,.16-.34,.16Zm81.01-.29h0ZM29.97,118.16l11.66,27.14c1.28-1.6,2.66-3.13,4.11-4.56,2.38-2.35,4.99-4.47,7.75-6.29,2.13-1.41,4.37-2.67,6.67-3.74,1.06-.5,2.18-.97,3.31-1.4,2.27-.88,4.64-1.6,7.03-2.14,1.55-.36,3.14-.65,4.72-.86,5.69-.77,11.44-.6,17.07,.5,.21,.04,.41,.08,.62,.12h.01c2.61,.54,5.2,1.29,7.69,2.22,1.16,.44,2.33,.92,3.46,1.44,.84,.39,1.69,.81,2.53,1.25,4.74,2.5,9.06,5.73,12.83,9.59,1.17,1.2,2.31,2.48,3.37,3.8l4.18-9.73s.01-.02,.02-.03l6.68-15.56s.01-.02,.02-.03l.76-1.78c-1.58-1.38-3.23-2.71-4.91-3.96h0c-1.66-1.23-3.4-2.42-5.18-3.54-1.14-.71-2.31-1.4-3.49-2.06-2.07-1.15-4.23-2.22-6.42-3.19h-.03c-2.96-1.32-6.04-2.46-9.17-3.4-2.27-.68-4.6-1.27-6.92-1.74-3.86-.79-7.82-1.3-11.77-1.51-2.27-.12-4.56-.15-6.8-.08-4.99,.15-9.98,.78-14.85,1.85-1.84,.41-3.68,.88-5.46,1.42-2.11,.62-4.21,1.35-6.25,2.14h-.03l-.03,.02c-1.23,.48-2.48,1.01-3.72,1.57-2.08,.94-4.14,1.98-6.11,3.09-1.16,.65-2.32,1.34-3.45,2.05-2.04,1.28-4.04,2.68-5.95,4.15-1.33,1.02-2.65,2.11-3.94,3.23Zm23.18-14.1h0Zm1.21,26.67c-1.9,0-3.55-.67-4.28-2.37l-5.03-11.73c-1.16-2.7-1.92-2.73-2.65-2.76h-.11c-.17-.01-.32-.12-.39-.28l-.13-.32c-.1-.23,0-.49,.24-.59l6.3-2.7c.11-.05,.23-.05,.34,0,.11,.04,.2,.13,.25,.24l.13,.32c.07,.16,.04,.34-.07,.47l-.07,.08c-.42,.49-.79,.91-.31,2.5,.11,.38,.28,.83,.49,1.32l5.08,11.85c.09,.2,.21,.37,.36,.51,.72,.67,2.21,.66,3.79-.01,1.81-.78,3.32-2.32,2.7-3.76l-4.96-11.57c-1.16-2.7-1.92-2.73-2.65-2.76h-.11c-.17-.01-.32-.12-.39-.28l-.14-.32c-.05-.11-.05-.23,0-.34,.04-.11,.13-.2,.24-.25l4.85-2.08c.11-.05,.23-.05,.34,0,.11,.04,.2,.13,.25,.24l.13,.32c.07,.16,.04,.34-.07,.47l-.07,.08c-.48,.56-.98,1.13,.17,3.82l5.03,11.73c.74,1.72,.12,3.58-1.74,5.24-.56,.5-1.22,.96-1.95,1.37-.37,.21-.78,.41-1.2,.59-1.4,.6-2.94,.97-4.35,.97Zm-11.05-17.63c.81,.25,1.62,.98,2.56,3.17l5.03,11.73c.98,2.28,4.49,2.19,7.46,.92,.39-.17,.77-.35,1.11-.55,.68-.38,1.28-.8,1.79-1.26h0c.9-.8,2.29-2.4,1.51-4.21l-5.03-11.73c-.94-2.19-.91-3.28-.53-4.05l-2.94,1.26c.81,.25,1.62,.98,2.57,3.18l4.96,11.57c.41,.95,.23,2-.49,2.95-.6,.8-1.55,1.5-2.68,1.99-1.51,.65-3.56,.95-4.75-.15-.24-.23-.44-.5-.57-.82l-5.08-11.85c-.23-.53-.4-1-.53-1.42-.39-1.3-.3-2.05-.01-2.62l-4.39,1.88Zm65.97,17.6c-.07,0-.14-.02-.2-.05l-6.15-3.1c-.22-.11-.31-.38-.2-.6l.15-.31c.08-.15,.23-.25,.4-.25h.11c.74,.01,1.5,.03,2.82-2.59l6.89-13.68c-2.11-.91-5.06,.74-8.34,4.66-.13,.16-.36,.21-.54,.11l-.46-.23c-.11-.06-.2-.16-.23-.28-.03-.12-.01-.25,.06-.36l5.11-7.88c.12-.19,.37-.26,.58-.16l1.51,.76,11.89,5.99c.2,.1,.3,.34,.22,.56l-3.29,8.8c-.04,.12-.14,.21-.26,.26-.12,.05-.25,.04-.36-.02l-.46-.23c-.19-.09-.28-.3-.23-.51,.14-.57,.26-1.13,.36-1.68,.05-.31,.1-.63,.15-.96,.34-2.51,.3-5.71-1.77-6.86l-6.89,13.68c-1.32,2.62-.86,3.22-.41,3.81l.06,.08c.1,.14,.12,.32,.04,.47l-.15,.3c-.08,.16-.24,.25-.4,.25Zm-5.02-3.48l4.3,2.16c-.33-.78-.29-1.87,.78-4l7.1-14.09c.11-.22,.38-.31,.6-.2l.29,.15c1.46,.74,3.06,2.7,2.37,7.84-.02,.13-.04,.25-.05,.38l2.28-6.1-12.68-6.39-3.54,5.46c3.06-3.09,5.8-4.13,7.98-3.03l.24,.12c.11,.05,.19,.15,.22,.26,.04,.11,.03,.24-.03,.34l-7.09,14.09c-1.07,2.13-1.93,2.81-2.76,3.01Zm-8.46-2.03s-.06,0-.09,0l-5.2-1.05c-.12-.02-.22-.09-.29-.19-.07-.1-.09-.22-.06-.34l.05-.25c.04-.17,.16-.3,.33-.34l.08-.02c.54-.13,1.06-.26,1.51-2.35l1.97-9.18c.45-2.09,.03-2.4-.41-2.73l-.07-.05c-.14-.11-.2-.28-.17-.45l.06-.25c.05-.24,.29-.39,.53-.34l5.2,1.05c.12,.02,.22,.09,.29,.19,.07,.1,.09,.22,.06,.34l-.06,.25c-.04,.17-.16,.3-.33,.34l-.08,.02c-.49,.12-.92,.22-1.33,1.64-.06,.21-.12,.44-.18,.71l-1.98,9.18c-.45,2.08-.03,2.4,.41,2.73l.07,.05c.14,.11,.2,.28,.17,.45l-.05,.25c-.04,.21-.23,.36-.44,.36Zm-4.05-1.73l3.1,.63c-.31-.54-.41-1.36-.07-2.93l1.98-9.18c.06-.29,.13-.55,.19-.77,.3-1.03,.67-1.57,1.07-1.87l-3.1-.63c.31,.54,.41,1.36,.07,2.93l-.09,.4-1.89,8.77c-.33,1.55-.77,2.27-1.26,2.64Zm-21.48,1.22c-.11,0-.21-.04-.29-.11-.09-.08-.15-.19-.15-.31l-.03-.34c-.01-.17,.07-.33,.22-.42l.09-.05c.64-.37,1.29-.75,1.08-3.67l-.92-12.43c-.04-.55-.1-1.01-.18-1.4-.32-1.63-.83-1.83-1.43-2.07l-.1-.04c-.16-.06-.27-.21-.28-.38l-.03-.34c-.02-.25,.17-.46,.41-.48l4.99-.37c.18-.01,.35,.08,.43,.24l6.87,13.39-.69-9.28c-.22-2.92-.92-3.2-1.61-3.48l-.1-.04c-.16-.06-.27-.21-.28-.38l-.03-.34c-.02-.25,.17-.46,.41-.48l5.26-.39c.24-.02,.46,.17,.48,.41l.03,.34c.01,.17-.07,.34-.22,.42l-.09,.05c-.64,.37-1.3,.75-1.08,3.67l.92,12.43c.22,2.92,.92,3.2,1.61,3.47l.1,.04c.16,.06,.27,.21,.28,.38l.03,.34c.02,.25-.17,.46-.41,.48l-5.04,.37c-.18,.01-.35-.08-.43-.24l-6.79-13.11,.66,9c.22,2.92,.92,3.2,1.61,3.47l.1,.04c.16,.06,.27,.21,.28,.38l.03,.34c.02,.25-.17,.46-.41,.48l-5.26,.39h-.03Zm-.49-21.24c.52,.37,.94,1,1.2,2.33,.08,.43,.15,.92,.19,1.51l.92,12.43c.18,2.38-.21,3.4-.82,4l3.19-.24c-.69-.5-1.22-1.45-1.39-3.84l-.83-11.18c-.02-.21,.12-.41,.32-.46s.42,.04,.52,.23l7.66,14.79,3.71-.27c-.69-.5-1.22-1.45-1.39-3.84l-.92-12.43c-.18-2.38,.21-3.4,.81-4l-3.19,.24c.69,.5,1.22,1.45,1.39,3.84l.85,11.49c.02,.21-.12,.41-.33,.46-.21,.06-.42-.04-.52-.23l-7.74-15.09-3.65,.27Zm27.04,4.31s-.06,0-.09,0h-.03c-.15-.03-.27-.14-.33-.28-.48-1.19-1.08-2.31-1.79-3.33-.07-.1-.1-.23-.07-.35v-.03c.03-.12,.1-.23,.21-.29,1.06-.67,2.05-1.46,2.95-2.37,.1-.11,.26-.15,.4-.13h.03c.15,.03,.28,.14,.33,.28,.47,1.18,1.08,2.3,1.79,3.33,.07,.1,.1,.23,.07,.35v.03c-.03,.12-.1,.22-.2,.28-1.06,.67-2.05,1.46-2.95,2.37-.09,.09-.2,.13-.32,.13Zm-1.25-3.76c.53,.8,1,1.66,1.39,2.55,.71-.67,1.47-1.27,2.27-1.81-.53-.8-1-1.66-1.39-2.55-.71,.67-1.47,1.28-2.27,1.81Z"/><g><path class="i" d="M61.56,127.47c-.55,.49-1.18,.93-1.87,1.31-.37,.21-.76,.4-1.16,.57-3.19,1.37-6.93,1.43-8.05-1.16l-.25-.59-.68-1.59-.4-.93-3-6.99-.7-1.63c-1.32-3.08-2.28-3-3.15-3.04l-.13-.32,6.3-2.7,.13,.32c-.47,.55-1.05,1.08-.48,3,.12,.39,.28,.85,.51,1.37l5.08,11.85c.11,.27,.27,.49,.47,.67,.94,.87,2.69,.75,4.27,.07,2-.86,3.68-2.61,2.93-4.35l-4.96-11.57c-1.32-3.08-2.28-3-3.15-3.04l-.14-.32,4.85-2.08,.13,.32c-.57,.66-1.29,1.3,.03,4.37l5.03,11.73c.72,1.68-.1,3.37-1.63,4.72Z"/><path class="i" d="M54.35,130.73c-1.9,0-3.55-.67-4.28-2.37l-5.03-11.73c-1.16-2.7-1.92-2.73-2.65-2.76h-.11c-.17-.01-.32-.12-.39-.28l-.13-.32c-.1-.23,0-.49,.24-.59l6.3-2.7c.11-.05,.23-.05,.34,0,.11,.04,.2,.13,.25,.24l.13,.32c.07,.16,.04,.34-.07,.47l-.07,.08c-.42,.49-.79,.91-.31,2.5,.11,.38,.28,.83,.49,1.32l5.08,11.85c.09,.2,.21,.37,.36,.51,.72,.67,2.21,.66,3.79-.01,1.81-.78,3.32-2.32,2.7-3.76l-4.96-11.57c-1.16-2.7-1.92-2.73-2.65-2.76h-.11c-.17-.01-.32-.12-.39-.28l-.14-.32c-.05-.11-.05-.23,0-.34,.04-.11,.13-.2,.24-.25l4.85-2.08c.11-.05,.23-.05,.34,0,.11,.04,.2,.13,.25,.24l.13,.32c.07,.16,.04,.34-.07,.47l-.07,.08c-.48,.56-.98,1.13,.17,3.82l5.03,11.73c.74,1.72,.12,3.58-1.74,5.23h0c-.56,.5-1.22,.96-1.95,1.37-.37,.21-.78,.41-1.2,.59-1.4,.6-2.94,.97-4.35,.97Zm-11.03-17.63c.74,.23,1.58,.93,2.55,3.18l5.03,11.73c.98,2.28,4.49,2.19,7.46,.92,.39-.17,.77-.35,1.11-.55,.68-.38,1.28-.8,1.79-1.26h0c.9-.8,2.29-2.4,1.51-4.21l-5.03-11.73c-.97-2.25-.89-3.35-.55-4.04l-2.91,1.25c.74,.23,1.58,.93,2.55,3.18l4.96,11.57c.41,.95,.23,2-.49,2.95-.6,.8-1.55,1.5-2.68,1.99-1.51,.65-3.56,.95-4.75-.15-.24-.23-.44-.5-.57-.82l-5.08-11.85c-.23-.53-.4-1-.53-1.42-.39-1.3-.3-2.05-.01-2.62l-4.38,1.88Z"/></g><g><path class="i" d="M85.51,123.11l-5.04,.37-.74-1.43-4.03-7.78-3.03-5.84,.27,3.59,.56,7.6c.25,3.34,1.18,3.57,1.99,3.9l.03,.34-2.11,.16h-.02l-2.79,.21-.22,.02h-.12l-.03-.33c.75-.44,1.64-.81,1.39-4.15l-.57-7.67-.35-4.76c-.04-.57-.1-1.05-.18-1.46-.38-1.96-1.14-2.17-1.81-2.44l-.03-.34,4.99-.37,.95,1.85,6.93,13.51-.53-7.17-.25-3.43-.07-.89c-.25-3.34-1.18-3.57-1.99-3.9l-.03-.34,5.26-.39,.03,.34c-.75,.44-1.64,.81-1.39,4.15l.05,.72,.28,3.76,.59,7.95c.25,3.34,1.18,3.57,1.99,3.9l.03,.34Z"/><path class="i" d="M70.25,124.69c-.11,0-.21-.04-.29-.11-.09-.08-.15-.19-.15-.31l-.03-.34c-.01-.17,.07-.33,.22-.42l.09-.05c.64-.37,1.29-.75,1.08-3.67l-.92-12.43c-.04-.55-.1-1.01-.18-1.4-.32-1.63-.83-1.83-1.43-2.07l-.1-.04c-.16-.06-.27-.21-.28-.38l-.03-.34c-.02-.25,.17-.46,.41-.48l4.99-.37c.18-.01,.35,.08,.43,.24l6.87,13.39-.69-9.28c-.22-2.92-.92-3.2-1.61-3.48l-.1-.04c-.16-.06-.27-.21-.28-.38l-.03-.34c-.02-.25,.17-.46,.41-.48l5.26-.39c.25-.02,.46,.17,.48,.41l.03,.34c.01,.17-.07,.34-.22,.42l-.09,.05c-.64,.37-1.3,.75-1.08,3.67l.92,12.43c.22,2.92,.92,3.2,1.61,3.47l.1,.04c.16,.06,.27,.21,.28,.38l.03,.34c.02,.25-.17,.46-.41,.48l-5.04,.37c-.18,.01-.35-.08-.43-.24l-6.79-13.11,.66,9c.22,2.92,.92,3.2,1.61,3.47l.1,.04c.16,.06,.27,.21,.28,.38l.03,.34c.02,.25-.17,.46-.41,.48l-5.26,.39h-.03Zm-.49-21.24c.52,.37,.94,1,1.2,2.33,.08,.43,.15,.92,.19,1.51l.92,12.43c.18,2.44-.25,3.45-.8,4l3.16-.23c-.62-.46-1.2-1.4-1.38-3.84l-.83-11.18c-.02-.21,.12-.41,.32-.46,.2-.06,.42,.04,.52,.23l7.66,14.79,3.7-.27c-.62-.46-1.2-1.4-1.38-3.84l-.92-12.43c-.18-2.44,.25-3.45,.8-4l-3.16,.23c.62,.46,1.2,1.4,1.38,3.84l.85,11.49c.02,.21-.12,.41-.33,.46-.21,.06-.42-.04-.52-.23l-7.74-15.09-3.65,.27Z"/></g><g><path class="i" d="M99.84,104.86v.03c-1.11,.69-2.12,1.51-3.03,2.43h-.03c-.48-1.22-1.1-2.36-1.84-3.42v-.03c1.11-.69,2.12-1.51,3.03-2.43h.03c.48,1.22,1.1,2.36,1.84,3.43Z"/><path class="i" d="M96.81,107.76s-.06,0-.09,0h-.03c-.15-.03-.27-.14-.33-.28-.48-1.19-1.08-2.31-1.79-3.33-.07-.1-.1-.23-.07-.35v-.03c.03-.12,.1-.23,.21-.29,1.06-.67,2.05-1.46,2.95-2.37,.1-.11,.26-.15,.4-.13h.03c.15,.03,.28,.14,.33,.28,.47,1.18,1.08,2.3,1.79,3.33,.07,.1,.1,.23,.07,.35v.03c-.03,.12-.1,.22-.2,.28-1.06,.67-2.05,1.46-2.95,2.37-.09,.09-.2,.13-.32,.13Zm-1.25-3.76c.53,.8,1,1.66,1.39,2.55,.71-.67,1.47-1.27,2.27-1.81-.53-.8-1-1.66-1.39-2.55-.71,.67-1.47,1.28-2.27,1.81Z"/></g><g><path class="i" d="M99.15,109.13l-.06,.25c-.58,.15-1.22,.23-1.73,1.97-.06,.22-.13,.46-.18,.74l-1.98,9.18c-.53,2.46,.11,2.83,.64,3.23v.03l-.05,.23-.16-.03-5.04-1.02,.05-.25c.65-.16,1.39-.25,1.92-2.71l1.89-8.77,.09-.4c.53-2.46-.11-2.83-.64-3.23l.06-.25,5.2,1.05Z"/><path class="i" d="M95.79,125.2s-.06,0-.09,0l-5.2-1.05c-.12-.02-.22-.09-.29-.19-.07-.1-.09-.22-.06-.34l.05-.25c.04-.17,.16-.3,.33-.34l.08-.02c.54-.13,1.06-.26,1.51-2.35l1.97-9.18c.45-2.09,.03-2.4-.41-2.73l-.07-.05c-.14-.11-.2-.28-.17-.45l.06-.25c.05-.24,.29-.39,.53-.34l5.2,1.05c.12,.02,.22,.09,.29,.19,.07,.1,.09,.22,.06,.34l-.06,.25c-.04,.17-.16,.3-.33,.34l-.08,.02c-.49,.12-.92,.22-1.33,1.64-.06,.21-.12,.44-.18,.71l-1.98,9.18c-.45,2.08-.03,2.4,.41,2.73l.07,.05c.14,.11,.2,.28,.17,.45l-.05,.25c-.04,.21-.23,.36-.44,.36Zm-4.05-1.73l3.1,.63c-.31-.54-.41-1.36-.07-2.93l1.98-9.18c.06-.29,.13-.55,.19-.77,.3-1.03,.67-1.57,1.07-1.87l-3.1-.63c.31,.54,.41,1.36,.07,2.93l-.09,.4-1.89,8.77c-.33,1.55-.77,2.27-1.26,2.64Z"/></g><g><path class="i" d="M122.46,113.14l-3.29,8.8-.46-.23c.14-.59,.26-1.16,.36-1.71,.06-.34,.11-.66,.15-.98,.51-3.81-.18-6.4-2.12-7.38l-.29-.15-1.53,3.03-4.82,9.57-.74,1.48c-1.51,2.99-.83,3.67-.3,4.36l-.15,.3-6.15-3.1,.15-.31c.87,0,1.82,.15,3.33-2.84l1.41-2.8,5-9.93,.68-1.36-.24-.12c-2.38-1.2-5.57,.54-9.05,4.7l-.46-.23,5.11-7.88,.72,.37,.79,.39,11.89,5.99Z"/><path class="i" d="M109.27,130.7c-.07,0-.14-.02-.2-.05l-6.15-3.1c-.22-.11-.31-.38-.2-.6l.15-.31c.08-.15,.23-.25,.4-.25h.11c.74,.01,1.5,.03,2.82-2.59l6.89-13.68c-2.11-.91-5.06,.74-8.34,4.66-.13,.16-.36,.21-.54,.11l-.46-.23c-.11-.06-.2-.16-.23-.28-.03-.12-.01-.25,.06-.36l5.11-7.88c.12-.19,.37-.26,.58-.16l1.51,.76,11.89,5.99c.2,.1,.3,.34,.22,.56l-3.29,8.8c-.04,.12-.14,.21-.26,.26-.12,.05-.25,.04-.36-.02l-.46-.23c-.19-.09-.28-.3-.23-.51,.14-.57,.26-1.13,.36-1.68,.05-.31,.1-.63,.15-.96,.34-2.51,.3-5.71-1.77-6.86l-6.89,13.68c-1.32,2.62-.86,3.22-.41,3.81l.06,.08c.1,.14,.12,.32,.04,.47l-.15,.3c-.08,.16-.24,.25-.4,.25Zm-5.01-3.47l4.27,2.15c-.3-.71-.31-1.81,.79-4l7.1-14.09c.11-.22,.38-.31,.6-.2l.29,.15c1.46,.74,3.06,2.7,2.37,7.84-.02,.13-.04,.25-.05,.38l2.28-6.1-12.68-6.39-3.54,5.46c3.8-3.84,6.41-3.82,7.98-3.03l.24,.12c.11,.05,.19,.15,.22,.26s.03,.24-.03,.34l-7.09,14.09c-1.1,2.19-1.99,2.83-2.74,3.02Z"/></g><g><path class="i" d="M135.14,118.12l-.85,1.98-.95,2.21-1.01,2.34-1.07,2.5-.2,.46-.95,2.2-1.22,2.84-1.31,3.04-1.4,3.26-1.51,3.51-1.63,3.79v.02l-.02-.02c-.04-.05-.08-.1-.12-.15l1.56-3.64,1.51-3.51,1.4-3.26h0l1.31-3.04,1.22-2.84,.95-2.2,.2-.46,1.07-2.5,1.01-2.34,.95-2.21h0l.89-2.08h.04s.08,.07,.12,.11Z"/><path class="i" d="M123.04,146.72c-.14,0-.27-.07-.36-.18l-.02-.02s-.07-.09-.11-.14c-.11-.13-.13-.31-.06-.46l4.47-10.41s.01-.02,.02-.03l6.68-15.56s.01-.02,.02-.03l.88-2.05c.07-.16,.23-.27,.41-.27h.04c.11,0,.22,.04,.3,.12l.05,.05s.04,.04,.07,.06c.14,.13,.19,.33,.11,.51l-12.09,28.14v.02c-.08,.15-.22,.25-.38,.26-.01,0-.03,0-.04,0Z"/></g></g><path class="i" d="M165.67,120.54h-31.38c-.15,0-.29-.08-.37-.2-.08-.13-.1-.28-.04-.42l.74-1.71c-.05-.11-.06-.24-.01-.35,.07-.17,.23-.29,.42-.29h30.65c.25,0,.45,.2,.45,.45v2.08c0,.25-.2,.45-.45,.45Zm-30.7-.9h30.25v-1.19h-29.74l-.51,1.19Z"/><path class="i" d="M165.67,122.75h-32.33c-.15,0-.29-.08-.37-.2-.08-.13-.1-.28-.04-.42l.95-2.21c.07-.16,.23-.27,.41-.27h31.38c.25,0,.45,.2,.45,.45v2.21c0,.25-.2,.45-.45,.45Zm-31.65-.9h31.2v-1.31h-30.64l-.56,1.31Z"/><path class="i" d="M165.67,139.4h-39.49c-.15,0-.29-.08-.37-.2s-.1-.28-.04-.42l1.4-3.26c.07-.16,.23-.27,.41-.27h38.08c.25,0,.45,.2,.45,.45v3.26c0,.25-.2,.45-.45,.45Zm-38.8-.9h38.36v-2.37h-37.34l-1.02,2.37Z"/><path class="i" d="M123.05,146.7h-.21c-.15,0-.29-.08-.37-.2s-.1-.28-.04-.42l.07-.16,.34,.15v-.26h.21v.36l.27,.12-.06,.15-.2-.09v.36Z"/><rect class="i" x="134.08" y="119.65" width=".21" height=".9"/><rect class="i" x="133.13" y="121.85" width=".21" height=".9"/><rect class="i" x="132.12" y="124.2" width=".21" height=".9"/><rect class="i" x="131.05" y="126.69" width=".21" height=".9"/><path class="i" d="M165.67,130.25h-35.55c-.15,0-.29-.08-.37-.2s-.1-.28-.04-.42l1.14-2.66c.07-.16,.23-.27,.41-.27h34.41c.25,0,.45,.2,.45,.45v2.66c0,.25-.2,.45-.45,.45Zm-34.87-.9h34.43v-1.76h-33.67l-.76,1.76Z"/><rect class="i" x="129.91" y="129.35" width=".21" height=".9"/><rect class="i" x="128.69" y="132.19" width=".21" height=".9"/><rect class="i" x="127.38" y="135.24" width=".21" height=".9"/><rect class="i" x="125.98" y="138.5" width=".21" height=".9"/><rect class="i" x="124.47" y="142.01" width=".21" height=".9"/><g><path class="i" d="M41.43,146.7H-1.26c-.25,0-.45-.2-.45-.45v-3.79c0-.25,.2-.45,.45-.45H39.8c.18,0,.34,.11,.41,.27l1.63,3.79c.06,.14,.05,.3-.04,.42-.08,.13-.22,.2-.37,.2Zm-42.25-.9H40.75l-1.25-2.89H-.81v2.89Z"/><path class="i" d="M41.55,146.7h-.11v-.4l-.3,.13-.04-.08,.33-.14v-.4h.11v.35l.38-.16,.03,.08c.06,.14,.05,.3-.04,.42s-.22,.2-.37,.2Z"/><path class="i" d="M30.16,120.54H-1.26c-.25,0-.45-.2-.45-.45v-2.08c0-.25,.2-.45,.45-.45H29.41c.18,0,.34,.11,.41,.27v.03c.06,.12,.06,.25,.01,.36l.73,1.7c.06,.14,.05,.3-.04,.42-.08,.13-.22,.2-.37,.2Zm-30.97-.9H29.48l-.51-1.19H-.81v1.19Z"/><rect class="i" x="30.16" y="119.65" width=".15" height=".9"/><rect class="i" x="31.11" y="121.85" width=".15" height=".9"/><rect class="i" x="32.12" y="124.2" width=".14" height=".9"/><rect class="i" x="33.19" y="126.69" width=".14" height=".9"/><rect class="i" x="34.34" y="129.35" width=".14" height=".9"/><rect class="i" x="35.56" y="132.19" width=".13" height=".9"/><rect class="i" x="36.88" y="135.24" width=".13" height=".9"/><rect class="i" x="38.28" y="138.5" width=".12" height=".9"/><path class="i" d="M39.8,142.91H-1.26c-.25,0-.45-.2-.45-.45v-3.51c0-.25,.2-.45,.45-.45H38.28c.18,0,.34,.11,.41,.27l.31,.72v.02l1.2,2.77c.06,.14,.05,.3-.04,.42-.08,.13-.22,.2-.37,.2Zm-40.61-.9H39.12l-.93-2.17v-.02l-.19-.42H-.81v2.62Z"/><rect class="i" x="39.8" y="142.01" width=".12" height=".9"/></g><g><path class="i" d="M82.04,167.98s-.04,.11-.12,.29c.03,0,.05,0,.07,0,.06,0,.11,0,.16,0-.08-.19-.12-.3-.12-.3Z"/><path class="i" d="M82.86,168.8l-.75-.07s-.09,0-.14,0h-.02l-.73,.05,.28-.67c.07-.17,.11-.27,.11-.28l.42-1.13,.42,1.13s.04,.11,.11,.28l.29,.69Z"/></g><path class="i" d="M82.23,205.13l-43.21-43.21,31.31-31.31,.13-.03c3.11-.7,6.31-1.12,9.51-1.24,1.36-.05,2.73-.06,4.08,0,3.4,.13,6.79,.58,10.09,1.36l.12,.03,.09,.09,31.1,31.1-43.21,43.21Zm-41.94-43.21l41.94,41.94,26.75-26.75,15.19-15.19-30.38-30.38c-3.2-.74-6.5-1.18-9.79-1.31-1.32-.05-2.67-.05-4.01,0-3.1,.12-6.21,.52-9.22,1.19l-30.49,30.49Zm53.91,23.75h-23.99l.91-.79c3.47-3,5.86-5.66,7.09-7.89v-.04l.05-.13,.1-.09c.22-.19,.72-.62,1.21-1.1,.24-.24,.45-.46,.63-.67,.98-1.12,1.43-2.07,1.44-2.08l.41-.86,.4,.86s.46,.96,1.43,2.08c.67,.77,1.43,1.44,2.25,2l.09,.06,.05,.09c.34,.59,.76,1.23,1.26,1.88,1.35,1.77,3.29,3.75,5.76,5.89l.91,.79Zm-21.6-.9h19.21c-2.1-1.88-3.77-3.64-4.99-5.24-.5-.65-.93-1.29-1.28-1.89-.86-.59-1.64-1.3-2.34-2.1-.52-.6-.91-1.15-1.16-1.57-.26,.41-.64,.96-1.16,1.57-.19,.22-.42,.46-.68,.72-.44,.43-.89,.83-1.15,1.05v.03l-.04,.05c-1.17,2.13-3.32,4.61-6.41,7.38Zm19.74-8.35c-.77,0-1.53-.08-2.25-.25-1.62-.37-3.14-1.16-4.5-2.35-.76-.66-1.47-1.45-2.12-2.35-.1-.14-.2-.28-.3-.42-.5-.75-.87-1.43-1.13-1.96-.26,.52-.63,1.21-1.13,1.96-.12,.18-.23,.34-.35,.5-.56,.77-1.19,1.47-1.85,2.08-1.06,.97-2.23,1.7-3.48,2.17-1.1,.41-2.28,.62-3.49,.62-2.84,0-5.24-.77-7.14-2.29-.73-.59-1.39-1.29-1.95-2.09-.73-1.05-1.3-2.26-1.7-3.62-.44-1.51-.66-3.17-.66-4.96,0-3.07,.67-5.99,2-8.69,.88-1.8,2.04-3.46,3.43-4.94,1.17-1.25,2.16-2,2.55-2.27l.1-.11h.02l13.65-12.1,13.75,12.2c.2,.14,1.27,.89,2.57,2.28,1.39,1.48,2.55,3.15,3.43,4.95,1.32,2.7,1.99,5.62,1.99,8.68v.16c0,1.72-.22,3.33-.64,4.8-.4,1.36-.97,2.58-1.72,3.63-.22,.31-.46,.62-.72,.91h0l-.12,.14c-1.46,1.61-3.36,2.64-5.62,3.09-.82,.16-1.7,.25-2.62,.25Zm-10.35-8.59c.07,0,.14,0,.21,0l.26,.03,.1,.24c.2,.46,.63,1.39,1.34,2.44,.09,.13,.18,.26,.28,.4,.61,.84,1.27,1.58,1.98,2.2,1.25,1.09,2.64,1.81,4.11,2.15,.66,.15,1.35,.23,2.06,.23,.86,0,1.68-.08,2.44-.23,2.02-.4,3.71-1.3,5.03-2.69h0l.12-.13c.28-.3,.53-.61,.77-.95,.69-.97,1.22-2.1,1.59-3.36,.4-1.38,.61-2.91,.61-4.55v-.16c0-2.93-.64-5.72-1.9-8.29-.85-1.72-1.95-3.31-3.28-4.73-1.17-1.25-2.16-1.97-2.39-2.13l-.25-.08v-.13l-13.03-11.55-13.3,11.8h-.03c-.41,.3-1.29,.98-2.34,2.1-1.33,1.42-2.43,3.01-3.28,4.72-1.26,2.57-1.9,5.36-1.9,8.29,0,1.7,.21,3.28,.63,4.71,.37,1.26,.9,2.39,1.57,3.36,.51,.73,1.1,1.37,1.77,1.91,1.73,1.39,3.94,2.1,6.58,2.1,1.1,0,2.17-.19,3.18-.56,1.14-.43,2.21-1.1,3.19-1.99,.62-.56,1.2-1.22,1.73-1.95,.11-.15,.22-.3,.33-.47,.71-1.05,1.14-1.98,1.34-2.45l.11-.25,.27-.02s.07,0,.1,0Z"/><path class="i" d="M94.2,185.66h-23.99l.91-.79c3.47-3,5.86-5.66,7.09-7.89v-.04l.05-.13,.1-.09c.22-.19,.72-.62,1.21-1.1,.24-.24,.45-.46,.63-.67,.98-1.12,1.43-2.07,1.44-2.08l.41-.86,.4,.86s.46,.96,1.43,2.08c.67,.77,1.43,1.44,2.25,2l.09,.06,.05,.09c.34,.59,.76,1.23,1.26,1.88,1.35,1.77,3.29,3.75,5.76,5.89l.91,.79Zm-21.6-.9h19.21c-2.1-1.88-3.77-3.64-4.99-5.24-.5-.65-.93-1.29-1.28-1.89-.86-.59-1.64-1.3-2.34-2.1-.52-.6-.91-1.15-1.16-1.57-.26,.41-.64,.96-1.16,1.57-.19,.22-.42,.46-.68,.72-.44,.43-.89,.83-1.15,1.05v.03l-.04,.05c-1.17,2.13-3.32,4.61-6.41,7.38Z"/><path class="i" d="M92.34,176.41c-.77,0-1.53-.08-2.25-.25-1.62-.37-3.14-1.16-4.5-2.35-.76-.66-1.47-1.45-2.12-2.35-.1-.14-.2-.28-.3-.42-.5-.75-.87-1.43-1.13-1.96-.26,.52-.63,1.21-1.13,1.96-.12,.18-.23,.34-.35,.5-.56,.77-1.19,1.47-1.85,2.08-1.06,.97-2.23,1.7-3.48,2.17-1.1,.41-2.28,.62-3.49,.62-2.84,0-5.24-.77-7.14-2.29-.73-.59-1.39-1.29-1.95-2.09-.73-1.05-1.3-2.26-1.7-3.62-.44-1.51-.66-3.17-.66-4.96,0-3.07,.67-5.99,2-8.69,.88-1.8,2.04-3.46,3.43-4.94,1.17-1.25,2.16-2,2.55-2.27l.1-.11h.02l13.65-12.1,13.75,12.2c.2,.14,1.27,.89,2.57,2.28,1.39,1.48,2.55,3.15,3.43,4.95,1.32,2.7,1.99,5.62,1.99,8.68v.16c0,1.72-.22,3.33-.64,4.8-.4,1.36-.97,2.58-1.72,3.63-.22,.31-.46,.62-.72,.91h0l-.12,.14c-1.46,1.61-3.36,2.64-5.62,3.09-.82,.16-1.7,.25-2.62,.25Zm-10.3-9.72l.42,1.13s.04,.11,.11,.28c.2,.46,.63,1.39,1.34,2.44,.09,.13,.18,.26,.28,.4,.61,.84,1.27,1.58,1.98,2.2,1.25,1.09,2.64,1.81,4.11,2.15,.66,.15,1.35,.23,2.06,.23,.86,0,1.68-.08,2.44-.23,2.02-.4,3.71-1.3,5.03-2.69h0l.12-.13c.28-.3,.53-.61,.77-.95,.69-.97,1.22-2.1,1.59-3.36,.4-1.38,.61-2.91,.61-4.55v-.16c0-2.93-.64-5.72-1.9-8.29-.85-1.72-1.95-3.31-3.28-4.73-1.17-1.25-2.16-1.97-2.39-2.13l-.25-.08v-.13l-13.03-11.55-13.3,11.8h-.03c-.41,.3-1.29,.98-2.34,2.1-1.33,1.42-2.43,3.01-3.28,4.72-1.26,2.57-1.9,5.36-1.9,8.29,0,1.7,.21,3.28,.63,4.71,.37,1.26,.9,2.39,1.57,3.36,.51,.73,1.1,1.37,1.77,1.91,1.73,1.39,3.94,2.1,6.58,2.1,1.1,0,2.17-.19,3.18-.56,1.14-.43,2.21-1.1,3.19-1.99,.62-.56,1.2-1.22,1.73-1.95,.11-.15,.22-.3,.33-.47,.71-1.05,1.14-1.98,1.34-2.45,.07-.17,.11-.27,.11-.27l.42-1.13Z"/><g><path class="i" d="M63.19,122.74l-5.03-11.73c-1.32-3.08-.6-3.71-.03-4.37l-.13-.32-4.85,2.08,.14,.32c.87,.04,1.83-.04,3.15,3.04l4.96,11.57c.75,1.74-.93,3.49-2.93,4.35-1.58,.68-3.33,.8-4.27-.07-.19-.18-.35-.4-.47-.67l-5.08-11.85c-.22-.52-.39-.98-.51-1.37-.57-1.92,0-2.46,.48-3l-.13-.32-6.3,2.7,.13,.32c.87,.04,1.83-.04,3.15,3.04l.7,1.63,3,6.99,.4,.93,.68,1.59,.25,.59c1.11,2.59,4.86,2.53,8.05,1.16,.4-.17,.79-.36,1.16-.57,.69-.38,1.33-.82,1.87-1.31,1.52-1.35,2.35-3.04,1.63-4.72Z"/><path class="i" d="M85.49,122.77c-.81-.32-1.74-.56-1.99-3.9l-.59-7.95-.28-3.76-.05-.72c-.25-3.34,.64-3.71,1.39-4.15l-.03-.34-5.26,.39,.03,.34c.81,.32,1.74,.56,1.99,3.9l.07,.89,.25,3.43,.53,7.17-6.93-13.51-.95-1.85-4.99,.37,.03,.34c.67,.27,1.43,.48,1.81,2.44,.08,.41,.14,.89,.18,1.46l.35,4.76,.57,7.67c.25,3.34-.64,3.71-1.39,4.15l.03,.34h.12l.22-.03,2.79-.21h.02l2.11-.16-.03-.34c-.81-.32-1.74-.56-1.99-3.9l-.56-7.6-.27-3.59,3.03,5.84,4.03,7.78,.74,1.43,5.04-.37-.03-.34Z"/><path class="i" d="M93.95,108.07l-.06,.25c.53,.4,1.17,.76,.64,3.23l-.09,.4-1.89,8.77c-.53,2.46-1.27,2.55-1.92,2.71l-.05,.25,5.04,1.02,.16,.03,.05-.23v-.03c-.52-.4-1.17-.76-.63-3.23l1.98-9.18c.06-.28,.12-.52,.18-.74,.51-1.74,1.15-1.82,1.73-1.97l.06-.25-5.2-1.05Z"/><path class="i" d="M110.57,107.15l-.79-.39-.72-.37-5.11,7.88,.46,.23c3.48-4.16,6.67-5.9,9.05-4.7l.24,.12-.68,1.36-5,9.93-1.41,2.8c-1.51,2.99-2.46,2.85-3.33,2.84l-.15,.31,6.15,3.1,.15-.3c-.53-.69-1.2-1.37,.3-4.36l.74-1.48,4.82-9.57,1.53-3.03,.29,.15c1.95,.98,2.64,3.57,2.12,7.38-.04,.32-.09,.65-.15,.98-.1,.55-.22,1.12-.36,1.71l.46,.23,3.29-8.8-11.89-5.99Z"/></g><path class="j" d="M99.84,104.86v.03c-1.11,.69-2.12,1.51-3.03,2.43h-.03c-.48-1.22-1.1-2.36-1.84-3.42v-.03c1.11-.69,2.12-1.51,3.03-2.43h.03c.48,1.22,1.1,2.36,1.84,3.43Z"/></g></g><g id="c"/><g id="d"/><g id="e"/><g id="f"/><g id="g"/></svg>