<?xml version="1.0" encoding="UTF-8"?><svg xmlns="http://www.w3.org/2000/svg" viewBox="0 0 164.41 255.12"><defs><style>.h{fill:#040504;}.i{fill:#e9e9e9;}.j{fill:#b5a8a9;}.k{fill:#ca1517;}.l{fill:#1d1d1b;font-family:DINAlternate-Bold, DIN Alternate;font-size:18px;}</style></defs><g id="a"/><g id="b"/><g id="c"><g><path class="i" d="M13.62,.5H150.79c7.24,0,13.12,5.88,13.12,13.12V241.5c0,7.24-5.88,13.12-13.12,13.12H13.62c-7.24,0-13.12-5.88-13.12-13.12V13.62C.5,6.38,6.38,.5,13.62,.5Z"/><path class="h" d="M150.79,1c6.96,0,12.62,5.66,12.62,12.62V241.5c0,6.96-5.66,12.62-12.62,12.62H13.62c-6.96,0-12.62-5.66-12.62-12.62V13.62C1,6.66,6.66,1,13.62,1H150.79M150.79,0H13.62C6.1,0,0,6.1,0,13.62V241.5C0,249.02,6.1,255.12,13.62,255.12H150.79c7.52,0,13.62-6.1,13.62-13.62V13.62C164.41,6.1,158.31,0,150.79,0h0Z"/></g></g><g id="d"><text class="l" transform="translate(9.69 22.5)"><tspan x="0" y="0">3</tspan></text><text class="l" transform="translate(154.72 232.62) rotate(-180)"><tspan x="0" y="0">3</tspan></text></g><g id="e"><path class="k" d="M34.95,16.06c-2.07-1.92-3.88-4.05-5.45-6.38h-.06c-1.57,2.33-3.38,4.46-5.45,6.38v.06c2.07,1.92,3.88,4.05,5.45,6.38h.06c1.57-2.33,3.38-4.46,5.45-6.38v-.06Z"/><path class="k" d="M129.46,239.05c2.07,1.92,3.88,4.05,5.45,6.38h.06c1.57-2.33,3.38-4.46,5.45-6.38v-.06c-2.07-1.92-3.88-4.05-5.45-6.38h-.06c-1.57,2.33-3.38,4.46-5.45,6.38v.06Z"/><path class="k" d="M93.46,209.5c-4.25-3.94-7.97-8.31-11.19-13.09h-.12c-3.22,4.78-6.94,9.15-11.19,13.09v.12c4.25,3.94,7.97,8.31,11.19,13.09h.12c3.22-4.78,6.94-9.15,11.19-13.09v-.12Z"/><path class="k" d="M93.46,45.5c-4.25-3.94-7.97-8.31-11.19-13.09h-.12c-3.22,4.78-6.94,9.15-11.19,13.09v.12c4.25,3.94,7.97,8.31,11.19,13.09h.12c3.22-4.78,6.94-9.15,11.19-13.09v-.12Z"/><path class="k" d="M93.46,127.5c-4.25-3.94-7.97-8.31-11.19-13.09h-.12c-3.22,4.78-6.94,9.15-11.19,13.09v.12c4.25,3.94,7.97,8.31,11.19,13.09h.12c3.22-4.78,6.94-9.15,11.19-13.09v-.12Z"/></g><g id="f"/><g id="g"><path class="j" d="M76.27,243.4c2.31,1.56,3.64-4.44,5-5.64,.89-1.05,2.18-.74,2.21,.7,.07,1.13-1.02,1.8-2.06,1.7-1.35-.08-2.1-1.45-2.21-2.65-.11-1.21,.41-2.4,1.3-3.19,2.19-1.9,4.45,.27,5.78,2.07,1.34,1.84,2.31,4.22,1.59,6.51-.69,2.14-2.88,2.41-4.51,1.09-.64-.42-1.1-1.23-1.89-1.38-.2-.06-.44-.07-.62,.08-.46,.45-.55,1.58-.04,2.07,1.88,.99,1.28-7.14,1.36-8.14,.66,2.2,.48,4.54,.17,6.79-.06,.76-.71,2.33-1.74,1.61-.92-.88-.48-2.99,.94-3.01,.99,.04,1.47,.98,2.2,1.49,1.34,1.11,3.07,1.03,3.72-.75,.92-2.66-.53-5.61-2.47-7.46-.76-.76-1.7-1.52-2.83-1.38-1.63,.21-2.72,2.02-2.54,3.56,.13,.99,.79,2.04,1.85,2.09,.44,.03,.97-.09,1.24-.45,.23-.34,.22-.94-.01-1.24-1.07-.94-2.87,3.88-3.54,4.63-.5,.92-2.07,2.16-2.89,.91h0Z"/></g></svg>