<?xml version="1.0" encoding="UTF-8"?><svg xmlns="http://www.w3.org/2000/svg" viewBox="0 0 164.41 255.12"><defs><style>.h{fill:#040504;}.i{fill:#010101;}.j{fill:#e9e9e9;}.k{fill:#e8ecec;}.l{fill:#fcf3e7;}.m{fill:#b5a8a9;}.n{fill:#31adb6;}.o{fill:#ca1517;}.p{fill:#cc7030;}.q{fill:#dcd205;}.r{fill:#dcd21b;}.s{fill:#090a0b;}.t{fill:#151517;}.u{fill:#97191f;}.v{fill:#1d1d1b;font-family:DINAlternate-Bold, DIN Alternate;font-size:18px;}</style></defs><g id="a"/><g id="b"/><g id="c"><g><rect class="j" x=".5" y=".5" width="163.41" height="254.12" rx="13.12" ry="13.12"/><path class="h" d="M150.79,1c6.96,0,12.62,5.66,12.62,12.62V241.5c0,6.96-5.66,12.62-12.62,12.62H13.62c-6.96,0-12.62-5.66-12.62-12.62V13.62C1,6.66,6.66,1,13.62,1H150.79M150.79,0H13.62C6.1,0,0,6.1,0,13.62V241.5C0,249.02,6.1,255.12,13.62,255.12H150.79c7.52,0,13.62-6.1,13.62-13.62V13.62C164.41,6.1,158.31,0,150.79,0h0Z"/></g></g><g id="d"><text class="v" transform="translate(9.69 22.5)"><tspan x="0" y="0">J</tspan></text><text class="v" transform="translate(154.73 232.62) rotate(-180)"><tspan x="0" y="0">J</tspan></text></g><g id="e"><path class="o" d="M32.44,9.69c-1.28,0-2.09,.92-2.54,1.66-.3,.49-.43,.9-.43,.9,0,0-.13-.41-.43-.9-.45-.74-1.26-1.66-2.54-1.66-2.13,0-3.17,1.74-3.17,4.01,0,1.08,.24,1.99,.56,2.72,.29,.66,.65,1.18,.97,1.55,.39,.46,.7,.69,.72,.71h0l3.89,3.83,3.89-3.83h0s.34-.25,.73-.72c.31-.37,.67-.89,.97-1.55,.32-.73,.56-1.64,.56-2.72,0-2.27-1.04-4.01-3.17-4.01Z"/><path class="o" d="M131.97,245.43c1.28,0,2.09-.92,2.54-1.66,.3-.49,.43-.9,.43-.9,0,0,.13,.41,.43,.9,.45,.74,1.26,1.66,2.54,1.66,2.13,0,3.17-1.74,3.17-4.01,0-1.08-.24-1.99-.56-2.72-.29-.66-.65-1.18-.97-1.55-.39-.46-.7-.69-.72-.71h0l-3.89-3.83-3.89,3.83h0s-.34,.25-.73,.72c-.31,.37-.67,.89-.97,1.55-.32,.73-.56,1.64-.56,2.72,0,2.27,1.04,4.01,3.17,4.01Z"/></g><g id="f"><g><path class="q" d="M57.5,95.68s-5.19,0-4.15,4.15c0,0-6.22,0-4.15,6.22,0,0-6.22-1.04-3.11,4.15,0,0,2.07,3.11-1.04,5.19-3.11,2.07,4.15,1.04,2.07,4.15s-1.04,4.15,0,6.22c1.04,2.07-3.11,4.15,1.04,5.19s6.22,3.11,5.19,5.19,1.04,2.07,3.11,2.07-1.04,4.15,2.07,4.15,4.15,2.07,6.22,1.04c2.07-1.04,1.04,5.19,6.22,1.04,5.19-4.15,25.93,3.11,29.04-1.04,3.11-4.15,2.07,1.04,4.15,0,2.07-1.04,3.11-3.11,2.07-5.19s6.22,3.11,5.19-3.11c-1.04-6.22,8.3,0,6.22-7.26-2.07-7.26,4.15-3.11,0-9.34-4.15-6.22,5.19-3.11-1.04-10.37,0,0,2.07-4.15-2.07-4.15,0,0,2.07-5.19-3.11-4.15,0,0,4.15-6.22-5.19-5.19-9.34,1.04-48.75,1.04-48.75,1.04Z"/><path class="u" d="M70.99,135.09h22.82v18.67c.83-1.33,3.01-4.42,7.02-5.9,5.18-1.92,11.29-.4,15.8,3.83,3.11,2.23,5.42,5.39,6.59,9.03,2.17,6.91-.81,12.69-1.4,13.79H42.98c-.67-1.12-3.76-6.59-2.07-13.49,.13-.53,2.1-8.06,9.43-11.75,6.43-3.24,14.46-2.26,20.65,2.41v-16.6Z"/><path class="k" d="M45.06,171.4s-4.15-15.56,10.37-19.71c0,0-10.37,12.45-10.37,19.71Z"/><path class="k" d="M61.13,153.25s8.3,7.26,0,19.71c1.39-6.5,1.39-13.21,0-19.71Z"/><path class="k" d="M58.02,153.25s-9.34,10.37-7.26,18.67c3.76-5.62,6.24-11.99,7.26-18.67Z"/><path class="k" d="M119.24,171.61s3.83-15.56-9.57-19.71c0,0,9.57,12.45,9.57,19.71Z"/><path class="k" d="M104.41,153.45s-7.65,7.26,0,19.71c-1.28-6.51-1.28-13.2,0-19.71Z"/><path class="k" d="M107.28,153.45s8.61,10.37,6.7,18.67c-2-3.25-3.61-6.74-4.78-10.37-.88-2.71-1.52-5.48-1.91-8.3Z"/><path class="n" d="M93.81,148.03l3.18,3.44c-1.23,.83-2.49,1.73-3.77,2.7-1.45,1.09-2.81,2.17-4.07,3.24-.69-1.38-1.38-2.77-2.07-4.15l6.74-5.22Z"/><path class="n" d="M67.49,151.23c.75-1.13,1.5-2.26,2.25-3.4l8.07,5.13-2.39,3.35c-2.64-1.69-5.29-3.39-7.93-5.08Z"/><path class="u" d="M59.58,96.71h46.68l6.22-7.26,1.04-5.19c-1.73,.35-3.46,.69-5.19,1.04,.35-1.73,.69-3.46,1.04-5.19l-5.19,2.07v-5.19c-1.38,1.04-2.77,2.07-4.15,3.11-.35-1.73-.69-3.46-1.04-5.19-1.38,1.04-2.77,2.07-4.15,3.11-.35-1.73-.69-3.46-1.04-5.19l-4.15,4.15-2.07-5.19c-1.04,1.73-2.07,3.46-3.11,5.19-1.04-1.73-2.07-3.46-3.11-5.19-1.04,1.73-2.07,3.46-3.11,5.19-.69-1.73-1.38-3.46-2.07-5.19-1.04,1.73-2.07,3.46-3.11,5.19-1.04-1.38-2.07-2.77-3.11-4.15l-2.07,5.19c-1.38-1.04-2.77-2.07-4.15-3.11-.35,1.73-.69,3.46-1.04,5.19-1.73-.69-3.46-1.38-5.19-2.07-.35,2.07-.69,4.15-1.04,6.22-1.73-.69-3.46-1.38-5.19-2.07v6.22l8.3,8.3Z"/><path class="l" d="M60.13,96.71h46.13c7.26,33.19-17.63,36.31-17.63,36.31v3.11c-2.07,1.38-4.15,2.77-6.22,4.15l-6.22-4.15v-3.11c-26.97-3.11-16.6-36.31-16.6-36.31h.55Z"/><circle class="s" cx="71.18" cy="105.84" r="2.07"/><path class="t" d="M71.18,100.73c-1.94,0-3-.33-3-.5s1.06-.5,3-.5,3,.33,3,.5-1.06,.5-3,.5Z"/><path class="i" d="M71.18,99.84c1.62,0,2.59,.23,2.84,.39-.25,.15-1.22,.39-2.84,.39s-2.59-.23-2.84-.39c.25-.15,1.22-.39,2.84-.39m0-.23c-1.72,0-3.11,.28-3.11,.62s1.39,.62,3.11,.62,3.11-.28,3.11-.62-1.39-.62-3.11-.62Z"/><circle class="s" cx="93.16" cy="105.73" r="2.07"/><path class="t" d="M93.16,100.62c-1.94,0-3-.33-3-.5s1.06-.5,3-.5,3,.33,3,.5-1.06,.5-3,.5Z"/><path class="i" d="M93.16,99.73c1.62,0,2.59,.23,2.84,.39-.25,.15-1.22,.39-2.84,.39s-2.59-.23-2.84-.39c.25-.15,1.22-.39,2.84-.39m0-.23c-1.72,0-3.11,.28-3.11,.62s1.39,.62,3.11,.62,3.11-.28,3.11-.62-1.39-.62-3.11-.62Z"/><path class="t" d="M82.4,119.78c-2.46,0-4.04-.42-4.04-.71s1.57-.71,4.04-.71,4.04,.42,4.04,.71-1.57,.71-4.04,.71Z"/><path class="i" d="M82.4,118.48c2.33,0,3.73,.37,3.91,.59-.18,.22-1.58,.59-3.91,.59s-3.73-.37-3.91-.59c.18-.22,1.58-.59,3.91-.59m0-.23c-2.29,0-4.15,.37-4.15,.82s1.86,.82,4.15,.82,4.15-.37,4.15-.82-1.86-.82-4.15-.82Z"/><path class="k" d="M66.32,176.07s7.26,4.15,8.3,6.22c1.04,2.07,3.11-4.15,5.19-2.07s2.07,5.19,6.22,1.04c0,0,1.04-2.07,2.07,0,0,0,4.15,2.07,4.15-2.07,0,0,6.22,2.07,6.22-3.11l-10.37-21.78s-8.3-9.34-13.49,3.11l-8.3,18.67Z"/><ellipse class="p" cx="82.4" cy="155.84" rx="3.83" ry="6.22"/><path class="r" d="M82.4,162.29c-2.24,0-4.06-2.89-4.06-6.45s1.82-6.45,4.06-6.45,4.06,2.89,4.06,6.45-1.82,6.45-4.06,6.45Zm0-12.45c-1.99,0-3.6,2.69-3.6,6s1.62,6,3.6,6,3.6-2.69,3.6-6-1.62-6-3.6-6Z"/></g></g><g id="g"><path class="m" d="M76.27,243.31c2.31,1.56,3.64-4.44,5-5.64,.89-1.05,2.18-.74,2.21,.7,.07,1.13-1.02,1.8-2.06,1.7-1.35-.08-2.1-1.45-2.21-2.65-.11-1.21,.41-2.4,1.3-3.19,2.19-1.9,4.45,.27,5.78,2.07,1.34,1.84,2.31,4.22,1.59,6.51-.69,2.14-2.88,2.41-4.51,1.09-.64-.42-1.1-1.23-1.89-1.38-.2-.06-.44-.07-.62,.08-.46,.45-.55,1.58-.04,2.07,1.88,.99,1.28-7.14,1.36-8.14,.66,2.2,.48,4.54,.17,6.79-.06,.76-.71,2.33-1.74,1.61-.92-.88-.48-2.99,.94-3.01,.99,.04,1.47,.98,2.2,1.49,1.34,1.11,3.07,1.03,3.72-.75,.92-2.66-.53-5.61-2.47-7.46-.76-.76-1.7-1.52-2.83-1.38-1.63,.21-2.72,2.02-2.54,3.56,.13,.99,.79,2.04,1.85,2.09,.44,.03,.97-.09,1.24-.45,.23-.34,.22-.94-.01-1.24-1.07-.94-2.87,3.88-3.54,4.63-.5,.92-2.07,2.16-2.89,.91h0Z"/></g></svg>