<?xml version="1.0" encoding="UTF-8"?><svg xmlns="http://www.w3.org/2000/svg" viewBox="0 0 164.41 255.12"><defs><style>.h{fill:#040504;}.i{fill:#010101;}.j{fill:#020303;}.k{fill:#e9e9e9;}.l{fill:#fcf3e7;}.m{fill:#b5a8a9;}.n{fill:#c3222f;}.o{fill:#dcd205;}.p{fill:#166c9c;}.q{fill:#083754;}.r{fill:#1d1d1b;font-family:DINAlternate-Bold, DIN Alternate;font-size:18px;}</style></defs><g id="a"/><g id="b"/><g id="c"><g><path class="k" d="M13.62,.5H150.79c7.24,0,13.12,5.88,13.12,13.12V241.5c0,7.24-5.88,13.12-13.12,13.12H13.62c-7.24,0-13.12-5.88-13.12-13.12V13.62C.5,6.38,6.38,.5,13.62,.5Z"/><path class="h" d="M150.79,1c6.96,0,12.62,5.66,12.62,12.62V241.5c0,6.96-5.66,12.62-12.62,12.62H13.62c-6.96,0-12.62-5.66-12.62-12.62V13.62C1,6.66,6.66,1,13.62,1H150.79M150.79,0H13.62C6.1,0,0,6.1,0,13.62V241.5C0,249.02,6.1,255.12,13.62,255.12H150.79c7.52,0,13.62-6.1,13.62-13.62V13.62C164.41,6.1,158.31,0,150.79,0h0Z"/></g></g><g id="d"><text class="r" transform="translate(154.73 232.62) rotate(-180)"><tspan x="0" y="0">J</tspan></text><text class="r" transform="translate(9.69 22.5)"><tspan x="0" y="0">J</tspan></text></g><g id="e"/><g id="f"><g><path class="l" d="M65.43,138.85s7.22,37.69,26.32,19.38c0,0,9.51-11.5,9.93-34,0,0-39.49-23.07-36.25,14.62Z"/><path class="q" d="M62.96,114.56h39.29l-.15-4.08H63.1l-.14,4.08Z"/><path class="i" d="M63.1,114.46s.8,17.51,2.39,24.67c0,0-2.39-23.87,16.71-13.53,0,0,19.1-12.73,17.51,13.53,0,0,1.59,0,2.39-24.67H63.1Z"/><path class="i" d="M99.71,139.25l-.11-.12c.5-8.32-1.02-13.56-4.52-15.57-5.09-2.93-12.74,2.09-12.81,2.14h-.12c-5.27-2.85-9.37-3.34-12.2-1.46-5.41,3.6-4.36,14.77-4.34,14.88l-.22,.04c-1.58-7.09-2.38-24.52-2.39-24.69l.11-.12h39l.11,.12c-.78,24.09-2.33,24.78-2.5,24.78Zm-8.34-16.83c1.34-.03,2.66,.3,3.82,.94,3.53,2.03,5.09,7.21,4.65,15.4,.42-.96,1.52-5.23,2.13-24.18H63.22c.07,1.45,.77,15.57,2.07,22.98-.07-3.27,.26-10.67,4.53-13.51,2.89-1.92,7.06-1.45,12.38,1.42,.55-.35,4.92-3.06,9.17-3.06Z"/><ellipse class="n" cx="83" cy="143.51" rx="3.18" ry="4.38"/><path class="j" d="M86.18,138.34s2.39-5.57,8.75-3.18c0,0-5.57,.8-8.75,3.18Z"/><path class="i" d="M86.25,138.43l-.17-.14c.02-.06,2.5-5.64,8.9-3.25l-.02,.22c-.06,0-5.58,.82-8.7,3.16Zm5.65-3.76c-3.23,0-4.87,2.34-5.41,3.31,2.67-1.8,6.67-2.63,7.99-2.86-.83-.29-1.7-.44-2.58-.45Z"/><path class="j" d="M70.74,135.84s5.16-3.18,8.99,2.44c0,0-5.01-2.56-8.99-2.44Z"/><path class="i" d="M79.68,138.38s-5.04-2.55-8.93-2.43l-.06-.21c.05-.03,5.3-3.17,9.14,2.47l-.15,.17Zm-8.48-2.66c3.22,.06,6.97,1.69,8.18,2.26-3.11-4.2-6.94-2.85-8.18-2.26Z"/><path class="i" d="M68.68,136.86s-.02,0-.02,0c-.06-.01-.1-.07-.09-.14,.04-.16,.92-4.04,3.36-5.42,.97-.54,2.12-.63,3.15-.24,.12,.03,3.22,.82,4.82,2.42,.05,.04,.05,.12,0,.16-.04,.05-.12,.05-.16,0h0c-1.55-1.55-4.69-2.35-4.72-2.36-.98-.37-2.07-.29-2.98,.22-2.35,1.33-3.24,5.23-3.25,5.27-.01,.05-.06,.09-.11,.09Z"/><path class="i" d="M97.33,136.86c-.05,0-.1-.04-.11-.09-.64-2.99-1.92-4.85-3.79-5.54-3.75-1.38-8.71,2.39-8.76,2.42-.05,.04-.12,.03-.16-.02-.04-.05-.03-.12,.02-.16,.21-.16,5.11-3.88,8.97-2.46,1.96,.72,3.28,2.64,3.94,5.71,.01,.06-.03,.12-.09,.14h-.02Z"/><path class="i" d="M83.32,155.73c-6.72,0-12.29-9.28-12.35-9.37-.03-.05-.01-.12,.04-.16s.12-.01,.16,.04c.06,.09,5.57,9.26,12.15,9.26,.12,0,.23,0,.35,0,3.88-.2,7.37-3.57,10.37-10.04,.03-.06,.09-.08,.15-.05,.06,.03,.08,.09,.06,.15-3.04,6.55-6.6,9.97-10.57,10.17-.12,0-.24,0-.36,0Z"/><path class="i" d="M69.47,147.2s-.04,0-.05-.01c-.06-.03-.08-.1-.05-.15,.82-1.64,3.18-1.65,3.29-1.65,.06,0,.11,.05,.11,.11s-.05,.11-.11,.11c-.02,0-2.33,.02-3.08,1.53-.02,.04-.06,.06-.1,.06Z"/><path class="i" d="M95.73,146.41s-.08-.02-.1-.06c-.75-1.51-3.06-1.53-3.08-1.53-.06,0-.11-.05-.11-.11s.05-.11,.11-.11c.1,0,2.47,.02,3.29,1.65,.03,.06,0,.12-.05,.15-.02,0-.03,.01-.05,.01Z"/><path class="i" d="M92.55,95.78s16.71-10.77,31.83,6.74c0,0-17.51-6.37-22.28,7.96h-14.49l4.94-14.7Z"/><path class="i" d="M77.55,99.24s-20.01-17.41-37.52,4.87c0,0,19.9-9.55,23.08,6.37h12.71l1.73-11.24Z"/><path class="q" d="M73.35,96.41s-.69-12.98-15.81-17.76c0,0,17.21-6.18,24.92,10.44l-.25,9.46-2.39,3.98-6.47-6.12Z"/><circle class="n" cx="54.75" cy="78.25" r="2.79"/><circle class="p" cx="38.04" cy="105.31" r="2.79"/><circle class="n" cx="110.46" cy="78.25" r="2.79"/><circle class="p" cx="126.37" cy="103.72" r="2.79"/><path class="o" d="M67.18,145.5s-8.06,4.77-10.44,11.94c0,0,8.11-6.53,14-3.27l-3.56-8.67Z"/><path class="i" d="M71.06,154.25s-5.57,7.16-3.98,15.92c0,0,5.42-8.73,9.47-8.74,0,0-4.7-3.99-5.49-7.17Z"/><path class="q" d="M77,161.72l6,13.22,5.27-13.88s-5.33,4.16-11.27,.66Z"/><path class="i" d="M88.57,161.42s7.16,2.39,9.55,8.75c0,0,1.16-9.41-3.4-16.64l-6.15,7.89"/><path class="o" d="M94.94,152.66s7.96,0,12.73,3.98c0,0-2.99-9.16-9.45-11.34l-3.28,7.36Z"/><circle class="n" cx="55.52" cy="158.67" r="2.42"/><circle class="p" cx="66.73" cy="172.27" r="2.42"/><circle class="n" cx="108.5" cy="158.62" r="2.42"/><circle class="p" cx="98.16" cy="172.27" r="2.42"/><circle class="n" cx="83.27" cy="177.23" r="2.42"/><path class="o" d="M74.83,110.48s4.19-37.4,32.84-32.63c0,0-25.65,10.35-10.44,32.63h-22.4Z"/></g></g><g id="g"><path class="m" d="M76.27,243.4c2.31,1.56,3.64-4.44,5-5.64,.89-1.05,2.18-.74,2.21,.7,.07,1.13-1.02,1.8-2.06,1.7-1.35-.08-2.1-1.45-2.21-2.65-.11-1.21,.41-2.4,1.3-3.19,2.19-1.9,4.45,.27,5.78,2.07,1.34,1.84,2.31,4.22,1.59,6.51-.69,2.14-2.88,2.41-4.51,1.09-.64-.42-1.1-1.23-1.89-1.38-.2-.06-.44-.07-.62,.08-.46,.45-.55,1.58-.04,2.07,1.88,.99,1.28-7.14,1.36-8.14,.66,2.2,.48,4.54,.17,6.79-.06,.76-.71,2.33-1.74,1.61-.92-.88-.48-2.99,.94-3.01,.99,.04,1.47,.98,2.2,1.49,1.34,1.11,3.07,1.03,3.72-.75,.92-2.66-.53-5.61-2.47-7.46-.76-.76-1.7-1.52-2.83-1.38-1.63,.21-2.72,2.02-2.54,3.56,.13,.99,.79,2.04,1.85,2.09,.44,.03,.97-.09,1.24-.45,.23-.34,.22-.94-.01-1.24-1.07-.94-2.87,3.88-3.54,4.63-.5,.92-2.07,2.16-2.89,.91h0Z"/></g></svg>