<?xml version="1.0" encoding="UTF-8"?><svg xmlns="http://www.w3.org/2000/svg" viewBox="0 0 164.41 255.12"><defs><style>.h{fill:#040504;}.i{fill:#010101;}.j{fill:#060504;}.k{fill:#e9e9e9;}.l{fill:#e7e1dd;}.m{fill:#fcf3e7;}.n{fill:#b5a8a9;}.o{fill:#908f90;}.p{fill:#aaaeb0;}.q{fill:#dcd205;}.r{fill:#d4d9dc;}.s{fill:#063853;}.t{fill:#1d1c1c;}.u{fill:#6bc4cc;}.v{fill:#2d6c69;}.w{fill:#1d1d1b;font-family:DINAlternate-Bold, DIN Alternate;font-size:18px;}</style></defs><g id="a"/><g id="b"/><g id="c"><g><path class="k" d="M13.62,.5H150.79c7.24,0,13.12,5.88,13.12,13.12V241.5c0,7.24-5.88,13.12-13.12,13.12H13.62c-7.24,0-13.12-5.88-13.12-13.12V13.62C.5,6.38,6.38,.5,13.62,.5Z"/><path class="h" d="M150.79,1c6.96,0,12.62,5.66,12.62,12.62V241.5c0,6.96-5.66,12.62-12.62,12.62H13.62c-6.96,0-12.62-5.66-12.62-12.62V13.62C1,6.66,6.66,1,13.62,1H150.79M150.79,0H13.62C6.1,0,0,6.1,0,13.62V241.5C0,249.02,6.1,255.12,13.62,255.12H150.79c7.52,0,13.62-6.1,13.62-13.62V13.62C164.41,6.1,158.31,0,150.79,0h0Z"/></g></g><g id="d"><text class="w" transform="translate(9.69 22.5)"><tspan x="0" y="0">K</tspan></text><text class="w" transform="translate(154.73 232.62) rotate(-180)"><tspan x="0" y="0">K</tspan></text></g><g id="e"><path class="i" d="M35.65,17.04c0-.9-.24-1.66-.57-2.27-.29-.55-.66-.98-.97-1.29-.39-.38-.7-.58-.73-.6h0l-3.91-3.19-3.91,3.19h0s-.34,.21-.73,.6c-.32,.31-.68,.74-.97,1.29-.33,.61-.57,1.36-.57,2.27,0,1.89,1.05,3.34,3.19,3.34,.84,0,1.48-.33,1.95-.72-.32,.7-.94,1.63-2.11,2.84h6.31c-1.17-1.22-1.8-2.15-2.11-2.84,.47,.4,1.11,.72,1.95,.72,2.14,0,3.19-1.45,3.19-3.34Z"/><path class="i" d="M128.76,238.08c0,.9,.24,1.66,.57,2.27,.29,.55,.66,.98,.97,1.29,.39,.38,.7,.58,.73,.6h0l3.91,3.19,3.91-3.19h0s.34-.21,.73-.6c.32-.31,.68-.74,.97-1.29,.33-.61,.57-1.36,.57-2.27,0-1.89-1.05-3.34-3.19-3.34-.84,0-1.48,.33-1.95,.72,.32-.7,.94-1.63,2.11-2.84h-6.31c1.17,1.22,1.8,2.15,2.11,2.84-.47-.4-1.11-.72-1.95-.72-2.14,0-3.19,1.45-3.19,3.34Z"/></g><g id="f"><g><path class="j" d="M49.51,134.01s-14.36,3.1-14.36,43.93h94.95s0-43.9-19.4-42.88c-19.4,1.02-61.19-1.05-61.19-1.05Z"/><path class="s" d="M74.74,178.08h16.98v-11.14c-1.87-.03-3.02-.59-3.71-1.06-2.68-1.84-2.97-5.55-5.31-5.84-.18-.03-.35-.03-.53,0-1.57,.25-1.91,2.56-3.18,4.24-.76,.98-1.76,1.73-2.91,2.19-.43,.18-.88,.34-1.33,.47v11.14Z"/><rect class="u" x="84.33" y="161.63" width=".46" height="19.64" transform="translate(-102.31 131.16) rotate(-51.58)"/><rect class="u" x="78.23" y="170.01" width=".46" height="10.3" transform="translate(-110.32 140.54) rotate(-55.48)"/><rect class="u" x="71.49" y="169.36" width="17.64" height=".46" transform="translate(-97.68 110.2) rotate(-46.21)"/><rect class="u" x="79.41" y="171.75" width="14.01" height=".46" transform="translate(-102.74 136.43) rotate(-52.68)"/><path class="r" d="M74.88,167.24v10.7h-4.18c.86-3.63,.79-7.41-.21-11.01,1.46,.1,2.92,.2,4.38,.3Z"/><path class="r" d="M91.46,167.11v10.83h5.1s-1.73-9.55-1.3-11.47l-3.81,.65Z"/><path class="l" d="M83.14,160.58s2.04,10.21,14.29,5.1c12.25-5.1,24.5-6.13,30.63-8.17,2.25-1.79,3.05-4.76,2.04-7.15-1.22-2.88-4.87-4.42-8.17-3.06,0,0-20.42,9.19-25.52,13.27,0,0-12.25,5.1-10.21-8.17v-22.46h-7.15v24.5s-.47,5.66-3.98,7.04c-2.06,.81-4.07-.31-7.25-1.94-8.68-4.43-17.83-7.89-26.55-12.25l-2.04-1.02c-3.39,.46-5.76,3.58-5.3,6.96,.24,1.77,1.23,3.35,2.73,4.34l33.2,9.12s10.21,3.06,11.23-5.1c0,0,1.02-3.06,2.04-1.02Z"/><path class="q" d="M78.03,144.25c.42-2.58,2.74-4.34,5.1-4.08,2.03,.22,3.76,1.89,4.08,4.08,0,0,6.4-2.99,7.8-4.56,1.49-1.67,4.62-.29,4.79,.44,.11,.48-.81,.99-2.38,2.08-1.79,1.25-3.5,2.61-5.1,4.08-.17,.16-1.37,1.26-3.06,1.02-.77-.11-1.49-.47-2.04-1.02,.82,4.31-2.16,7.73-4.78,7.83-2.47,.09-5.5-2.74-5.43-6.81,0,0-9.2-2.32-11.24-7.8-.32-.87-.17-1.22-.08-1.35,.01-.02,.02-.03,.04-.04,.4-.4,2.47,.97,4.13,2.04,3.58,2.32,4.31,2.71,5.1,3.06,.99,.43,2.01,.78,3.06,1.02Z"/><ellipse class="v" cx="82.63" cy="147.31" rx="3.57" ry="5.1"/><path class="q" d="M59.65,94.22h45.94v-12.25c1.7-1.2,1.89-3.2,1.07-4.08-.73-.79-2.37-.79-3.11,0-.83,.88-.66,2.89,1.02,4.08l-5.1,5.1-5.1-4.08v-2.04s1.12-.8,1.02-2.04c-.1-1.08-.96-1.94-2.04-2.04-.82-.08-1.61,.32-2.04,1.02-.52,.95-.14,2.33,1.02,3.06v2.04l-5.1,4.08-4.08-4.08v-2.04c1.15-.8,1.51-2.16,1.02-3.06-.55-1-1.92-1.02-2.04-1.02s-1.5,.02-2.04,1.02c-.49,.9-.13,2.26,1.02,3.06v2.04l-4.08,4.08-5.1-4.08v-2.04s1.12-.8,1.02-2.04c-.1-1.08-.96-1.94-2.04-2.04-.82-.08-1.61,.32-2.04,1.02-.52,.95-.14,2.33,1.02,3.06v2.04l-4.08,4.08c-1.36-1.02-2.72-2.04-4.08-3.06v-3.06c.41-1.26-.07-2.54-1.02-3.06-.64-.34-1.4-.34-2.04,0-1.05,.55-1.63,2.02-1.02,3.06,.6,1.03,1.98,1.02,2.04,1.02v12.25Z"/><path class="r" d="M59.65,94.22c-1.38,4.87-3.09,9.65-5.1,14.29-1.64,3.76-2.65,5.45-3.06,6.13-2.79,4.55-4.49,4.76-5.1,7.15-1.18,4.56,.74,9.95,4.08,13.27,5.68,5.64,14.75,4.61,19.4,4.08,7.17-.81,7.46-3,13.28-2.91,7.3,.12,8.09,3.58,15.31,3.93,1.87,.09,11.27,.31,16.34-6.13,1.94-2.46,3.76-6.56,3.06-10.21-.19-1.06-.53-2.1-1.02-3.06-.9-1.61-1.87-2.12-3.06-4.08-.4-.65-.74-1.33-1.02-2.04-2.38-6.81-4.76-13.61-7.15-20.42H59.65Z"/><path class="m" d="M60.67,116.68c2.23,2.38,7.07,3.08,9.77,1.4,.9-.56,2.04-1.69,4.08-2.04,.67-.13,1.37-.13,2.04,0,1.69,.36,2.7,1.57,3.06,2.04,.53,.43,1.17,.71,1.84,.81,1.51,.19,2.5-.89,4.28-1.83,1.41-.74,2.92-1.53,4.52-1.4,2.88,.23,3.36,3.21,7.15,4.08,1.01,.26,2.06,.26,3.06,0,.74-.2,1.44-.55,2.04-1.02,.98-.78,1.7-1.85,2.04-3.06,2.18-7.01,.46-14.65-4.52-20.04h-35.73c-3.22,4.84-4.27,9.21-4.67,11.88-.55,3.7-1.04,6.99,1.02,9.19Z"/><ellipse class="p" cx="70.7" cy="102.71" rx="3.06" ry=".97"/><circle class="t" cx="70.7" cy="109.4" r="2.55"/><path class="i" d="M70.7,112.07c-1.47,0-2.67-1.19-2.67-2.67,0-1.47,1.19-2.67,2.67-2.67,1.47,0,2.67,1.19,2.67,2.67,0,1.47-1.19,2.66-2.67,2.67Zm0-5.11c-1.35,0-2.44,1.09-2.44,2.44,0,1.35,1.09,2.44,2.44,2.44s2.44-1.09,2.44-2.44c0-1.35-1.09-2.44-2.44-2.44Z"/><ellipse class="p" cx="94.01" cy="102.82" rx="3.06" ry=".97"/><circle class="t" cx="94.01" cy="109.63" r="2.55"/><path class="i" d="M94.01,112.3c-1.47,0-2.67-1.19-2.67-2.67,0-1.47,1.19-2.67,2.67-2.67s2.67,1.19,2.67,2.67h0c0,1.47-1.19,2.66-2.67,2.67Zm0-5.11c-1.35,0-2.44,1.09-2.44,2.44s1.09,2.44,2.44,2.44,2.44-1.09,2.44-2.44h0c0-1.35-1.09-2.44-2.44-2.44Z"/><ellipse class="v" cx="82.5" cy="90.65" rx="2.04" ry="2.55"/><ellipse class="v" cx="77.28" cy="90.98" rx="1.21" ry="1.51"/><ellipse class="v" cx="87.72" cy="90.96" rx="1.21" ry="1.51"/><path class="o" d="M95.26,130.62c-2.6,0-4.99-1.28-6.31-1.99-1.4-.72-2.64-1.72-3.64-2.93-.67-.76-1.15-1.31-2.24-1.5-1.85-.31-3.14,.78-4.76,2.17-1.66,1.41-3.72,3.17-7.04,3.76-3.36,.59-5.88,.08-7.5-1.51-1.58-1.58-2.16-3.9-1.51-6.04,.59-1.82,2.16-3.77,4.23-3.77h.04c1.34,.02,2.97,.83,3.35,2.29,.3,1.15-.25,2.31-.86,3.01-.6,.69-1.34,1.06-1.97,.99-.59-.11-1.12-.45-1.45-.95-.34-.44-.48-1.01-.38-1.56,.23-1.12,1.5-1.55,1.56-1.57,.06-.02,.12,.01,.14,.07s-.01,.12-.07,.14c-.05,.02-1.2,.4-1.4,1.4-.09,.49,.04,.99,.35,1.38,.3,.44,.77,.75,1.3,.85,.54,.06,1.22-.28,1.77-.91,.57-.66,1.09-1.74,.81-2.8-.35-1.36-1.88-2.11-3.13-2.12h-.04c-2.09,0-3.54,2.15-4.01,3.61-.74,2.29,.2,4.57,1.45,5.81,1.57,1.54,4.02,2.03,7.3,1.45,3.26-.58,5.22-2.24,6.94-3.71,1.6-1.37,2.99-2.55,4.95-2.22,1.17,.2,1.68,.77,2.38,1.57,.99,1.19,2.2,2.17,3.58,2.88,1.73,.93,5.34,2.87,8.79,1.48,2.26-.92,4.56-3.27,4.37-5.81-.11-1.5-1.12-3.36-2.84-4.01-.93-.35-1.8-.35-2.57,0-.87,.4-1.76,1.33-1.77,2.52,.03,.9,.45,1.75,1.16,2.31,.55,.45,1.16,.64,1.67,.54,.59-.12,1.16-.7,1.4-1.4,.15-.46,.15-.95,0-1.41-.02-.06,.01-.12,.07-.14s.12,.01,.14,.07c.16,.5,.16,1.05,0,1.55-.22,.66-.79,1.4-1.57,1.56-.58,.12-1.26-.09-1.86-.59-.76-.61-1.21-1.52-1.24-2.49,.01-1.29,.96-2.3,1.9-2.73,.57-.26,1.5-.47,2.74,0,1.81,.68,2.87,2.63,2.99,4.2,.2,2.68-2.12,5.06-4.51,6.04-.85,.34-1.76,.51-2.67,.51Z"/></g></g><g id="g"><path class="n" d="M76.27,243.31c2.31,1.56,3.64-4.44,5-5.64,.89-1.05,2.18-.74,2.21,.7,.07,1.13-1.02,1.8-2.06,1.7-1.35-.08-2.1-1.45-2.21-2.65-.11-1.21,.41-2.4,1.3-3.19,2.19-1.9,4.45,.27,5.78,2.07,1.34,1.84,2.31,4.22,1.59,6.51-.69,2.14-2.88,2.41-4.51,1.09-.64-.42-1.1-1.23-1.89-1.38-.2-.06-.44-.07-.62,.08-.46,.45-.55,1.58-.04,2.07,1.88,.99,1.28-7.14,1.36-8.14,.66,2.2,.48,4.54,.17,6.79-.06,.76-.71,2.33-1.74,1.61-.92-.88-.48-2.99,.94-3.01,.99,.04,1.47,.98,2.2,1.49,1.34,1.11,3.07,1.03,3.72-.75,.92-2.66-.53-5.61-2.47-7.46-.76-.76-1.7-1.52-2.83-1.38-1.63,.21-2.72,2.02-2.54,3.56,.13,.99,.79,2.04,1.85,2.09,.44,.03,.97-.09,1.24-.45,.23-.34,.22-.94-.01-1.24-1.07-.94-2.87,3.88-3.54,4.63-.5,.92-2.07,2.16-2.89,.91h0Z"/></g></svg>