<?xml version="1.0" encoding="UTF-8"?><svg xmlns="http://www.w3.org/2000/svg" viewBox="0 0 164.41 255.12"><defs><style>.h{fill:#f4d167;}.i{fill:#040504;}.j{fill:#010101;}.k{fill:#020303;}.l{fill:#e9e9e9;}.m{fill:#fcf3e7;}.n{fill:#b5a8a9;}.o{fill:#ca1517;}.p{fill:#cc7030;}.q{fill:#e16c6a;}.r{fill:#3f6eb5;}.s{fill:#101010;}.t{fill:#97191e;}.u{fill:#1d1d1b;font-family:DINAlternate-Bold, DIN Alternate;font-size:18px;}</style></defs><g id="a"/><g id="b"/><g id="c"><g><path class="l" d="M13.62,.5H150.79c7.24,0,13.12,5.88,13.12,13.12V241.5c0,7.24-5.88,13.12-13.12,13.12H13.62c-7.24,0-13.12-5.88-13.12-13.12V13.62C.5,6.38,6.38,.5,13.62,.5Z"/><path class="i" d="M150.79,1c6.96,0,12.62,5.66,12.62,12.62V241.5c0,6.96-5.66,12.62-12.62,12.62H13.62c-6.96,0-12.62-5.66-12.62-12.62V13.62C1,6.66,6.66,1,13.62,1H150.79M150.79,0H13.62C6.1,0,0,6.1,0,13.62V241.5C0,249.02,6.1,255.12,13.62,255.12H150.79c7.52,0,13.62-6.1,13.62-13.62V13.62C164.41,6.1,158.31,0,150.79,0h0Z"/></g></g><g id="d"><text class="u" transform="translate(9.69 22.5)"><tspan x="0" y="0">Q</tspan></text><text class="u" transform="translate(154.73 232.62) rotate(-180)"><tspan x="0" y="0">Q</tspan></text></g><g id="e"><path class="o" d="M32.44,9.69c-1.28,0-2.09,.92-2.54,1.66-.3,.49-.43,.9-.43,.9,0,0-.13-.41-.43-.9-.45-.74-1.26-1.66-2.54-1.66-2.13,0-3.17,1.74-3.17,4.01,0,1.08,.24,1.99,.56,2.72,.29,.66,.65,1.18,.97,1.55,.39,.46,.7,.69,.72,.71h0l3.89,3.83,3.89-3.83h0s.34-.25,.73-.72c.31-.37,.67-.89,.97-1.55,.32-.73,.56-1.64,.56-2.72,0-2.27-1.04-4.01-3.17-4.01Z"/><path class="o" d="M131.97,245.43c1.28,0,2.09-.92,2.54-1.66,.3-.49,.43-.9,.43-.9,0,0,.13,.41,.43,.9,.45,.74,1.26,1.66,2.54,1.66,2.13,0,3.17-1.74,3.17-4.01,0-1.08-.24-1.99-.56-2.72-.29-.66-.65-1.18-.97-1.55-.39-.46-.7-.69-.72-.71h0l-3.89-3.83-3.89,3.83h0s-.34,.25-.73,.72c-.31,.37-.67,.89-.97,1.55-.32,.73-.56,1.64-.56,2.72,0,2.27,1.04,4.01,3.17,4.01Z"/></g><g id="f"><g><path class="h" d="M70.89,90.24h23.35v-6.81l1.95-2.92c.64,.49,1.49,.45,1.95,0,.59-.58,.24-1.54,0-1.95-.31-.53-1.08-1.27-1.95-.97-.71,.24-1.17,1.08-.97,1.95-1.3,1.62-2.59,3.24-3.89,4.86-.65-1.62-1.3-3.24-1.95-4.86,1.07-.79,1.42-2.05,.97-2.92-.33-.65-1.2-1.23-1.95-.97-.98,.34-.97,1.84-.97,1.95,.04,.76,.39,1.46,.97,1.95-.97,1.3-1.95,2.59-2.92,3.89-.65-.97-1.3-1.95-1.95-2.92v-1.95c.18-.08,.84-.38,.97-.97,.2-.87-.85-1.95-1.95-1.95s-2.15,1.08-1.95,1.95c.15,.61,.83,.91,.97,.97v1.95l-1.95,2.92-2.92-2.92v-.97c.59-2.01-.07-3.61-.97-3.89-.66-.2-1.56,.26-1.95,.97-.49,.91-.14,2.23,.97,2.92v1.95l-.97,1.95-4.86-2.92c.08-.78-.3-1.54-.97-1.95-.55-.32-1.37-.42-1.95,0-.88,.64-.9,2.28,0,2.92,.52,.37,1.29,.35,1.95,0,.97,.65,1.95,1.3,2.92,1.95v6.81Z"/><path class="t" d="M71.11,88.79c-2.71,.91-5.18,2.39-7.27,4.34-9.29,8.79-5.9,23.69-5.59,24.93-.77,.82-1.47,1.72-2.07,2.68-.91,1.41-2.45,3.82-2.8,7.05-.19,1.79,.21,1.64,0,2.92-.61,3.68-3.78,3.76-4.86,6.81-1.46,4.1,3.14,7.16,1.24,11.85-.52,1.29-.52,1.66-1.24,2.74-1.95,2.92,1.95,6.81,1.95,6.81l65.19,.97v-1.95s2.92-3.89-.97-8.76v-3.89c.54-.64,2.39-2.99,1.95-5.84-.32-2.06-1.73-3.65-1.95-3.89-1.02-1.12-1.92-1.44-2.92-2.92-.41-.6-.73-1.26-.97-1.95,.38-1.39,.47-2.84,.24-4.26-.72-4.5-4.36-6.94-5.11-7.42,3.08-11.54-1.43-23.44-10.7-29.19-11.01-6.82-23.13-1.5-24.11-1.05Z"/><path class="m" d="M64.08,111.25c0-1.91,.89-6.86,4.86-10.7,1.08-1.04,5.42-5.24,9.73-3.89,1.13,.37,2.14,1.05,2.92,1.95,.27,.34,.75,.82,1.37,.86,1.37,.09,1.98-2.02,3.49-2.8,2.22-1.15,5.49,1.05,6.81,1.95,5.44,3.67,7.21,10,7.78,12.65,0,.09,.04,.18,.1,.25,.3,.36,1.23-.12,1.85-.25,1.32-.28,3.08,.56,3.89,1.95,1.03,1.76,.1,3.7,0,3.89-.43,.84-1.11,1.52-1.95,1.95-.67,.27-1.32,.6-1.95,.97-.4,.24-.77,.49-1.09,.73,0,0-2.02,.63-2.8,2.19-.97,1.95-5.84,7.78-11.68,7.78v16.54l14.59,10.7-17.51,15.57-22.38-15.57,15.57-10.7v-16.54s-7.78,0-13.62-10.7c-.81,.33-1.71,.39-2.56,.18-2.18-.61-2.98-3.13-3.28-4.07-.48-1.59-.48-3.28,0-4.86,.5-.56,1.2-.91,1.95-.97,1.19-.07,2.36,.7,2.92,1.95,0,0,.97,0,.97-.97Z"/><path class="j" d="M76.04,114.28c-1.64,0-2.97-1.06-2.97-2.36s1.33-2.36,2.97-2.36,2.97,1.06,2.97,2.36-1.33,2.36-2.97,2.36Zm0-3.57c-.99,0-1.83,.56-1.83,1.22s.84,1.22,1.83,1.22,1.83-.56,1.83-1.22-.84-1.22-1.83-1.22Z"/><path class="j" d="M90.45,114.28c-1.64,0-2.97-1.06-2.97-2.36s1.33-2.36,2.97-2.36,2.97,1.06,2.97,2.36-1.33,2.36-2.97,2.36Zm0-3.57c-.99,0-1.83,.56-1.83,1.22s.84,1.22,1.83,1.22,1.83-.56,1.83-1.22-.84-1.22-1.83-1.22Z"/><path class="s" d="M75.78,107.39c-1.74,0-2.8-.4-2.8-.69s1.07-.69,2.8-.69,2.8,.4,2.8,.69-1.07,.69-2.8,.69Z"/><path class="j" d="M75.78,106.13c1.73,0,2.67,.4,2.69,.57-.02,.17-.96,.57-2.69,.57s-2.67-.4-2.69-.57c.02-.17,.96-.57,2.69-.57m0-.23c-1.61,0-2.92,.36-2.92,.8s1.31,.8,2.92,.8,2.92-.36,2.92-.8-1.31-.8-2.92-.8Z"/><ellipse class="s" cx="90.37" cy="106.7" rx="2.8" ry=".69"/><path class="j" d="M90.37,106.13c1.73,0,2.67,.4,2.69,.57-.02,.17-.96,.57-2.69,.57s-2.67-.4-2.69-.57c.02-.17,.96-.57,2.69-.57m0-.23c-1.61,0-2.92,.36-2.92,.8s1.31,.8,2.92,.8,2.92-.36,2.92-.8-1.31-.8-2.92-.8Z"/><path class="k" d="M82.57,124.27c-1.94,0-3.29-.45-3.29-.86s1.35-.86,3.29-.86,3.29,.45,3.29,.86-1.35,.86-3.29,.86Z"/><path class="j" d="M82.57,122.67c2.06,0,3.18,.49,3.18,.74s-1.12,.74-3.18,.74-3.18-.49-3.18-.74,1.12-.74,3.18-.74m0-.23c-1.88,0-3.41,.44-3.41,.97s1.52,.97,3.41,.97,3.41-.44,3.41-.97-1.52-.97-3.41-.97Z"/><path class="q" d="M80.62,123.9c-.1,1.07,.68,2.03,1.76,2.14,1.07,.1,2.03-.68,2.14-1.76,.01-.13,.01-.25,0-.38h-3.89Z"/><path class="p" d="M61.22,121.99s-3.95,5.8-3.95,7.74,1.95-.97,1.95-.97h0l.97-.97c-.28,1-1.14,4.21-.62,4.42,.5,.2,2.05-2.51,2.57-3.45,.08,.7,.46,3.89,.97,3.89s.89-3.19,.97-3.89c1.31,2.18,2.15,3.19,2.52,3.04,.58-.23,.06-3.19-1.55-8.88l-3.83-.93Z"/><path class="p" d="M99.78,123.01s-1.25,6.9-.45,8.68c.79,1.78,1.38-1.68,1.38-1.68h0l.49-1.28c.15,1.02,.68,4.31,1.23,4.29,.54-.02,.85-3.13,.94-4.2,.36,.61,2.01,3.37,2.47,3.16s-.48-3.28-.7-3.95c2.08,1.45,3.26,2.04,3.54,1.75,.43-.44-1.25-2.94-5.03-7.47l-3.88,.71Z"/><circle class="h" cx="75.76" cy="146.28" r="1.95"/><circle class="r" cx="78.68" cy="147.25" r="1.95"/><circle class="p" cx="82.57" cy="148.22" r="1.95"/><circle class="r" cx="86.46" cy="148.22" r="1.95"/><circle class="p" cx="88.4" cy="147.25" r="1.95"/><circle class="p" cx="77.7" cy="151.14" r="1.95"/><circle class="h" cx="80.62" cy="151.14" r="1.95"/><circle class="r" cx="84.51" cy="151.14" r="1.95"/><circle class="h" cx="88.4" cy="151.14" r="1.95"/><circle class="r" cx="78.68" cy="154.06" r="1.95"/><circle class="r" cx="86.46" cy="154.06" r="1.95"/><ellipse class="p" cx="82.57" cy="155.52" rx="1.95" ry="2.43"/><path class="q" d="M74.78,165.74c1.67,1.56,3.14,3.22,5.84,4.86,1.01,.62,1.51,.93,1.95,.97,2.53,.28,3.85-3.25,7.78-6.81,2.61-2.36,5.02-3.55,7.78-4.86,3.65-1.74,6.19-2.95,9.73-2.92,1.44,.01,5.62,.06,7.78,2.92,.36,.47,1.69,2.24,.97,3.89-.55,1.25-2.1,2.03-3.89,1.95l2.92,13.62H48.51l2.92-13.62c-2.06-.81-3.4-2.66-3.37-4.6,.03-1.71,1.12-2.87,1.42-3.18,1.89-.6,3.86-.93,5.84-.97,7.29-.16,12.76,3.6,14.59,4.86,1.71,1.19,3.33,2.49,4.86,3.89Z"/><ellipse class="r" cx="50.49" cy="171.59" rx="8.31" ry="1.62" transform="translate(-128.35 168.96) rotate(-72.76)"/><ellipse class="r" cx="53.89" cy="172.27" rx="7.4" ry="1.44" transform="translate(-126.55 177.1) rotate(-74.16)"/><ellipse class="r" cx="56.89" cy="172.54" rx="6.94" ry="1.35" transform="translate(-124.63 180.18) rotate(-74.16)"/><ellipse class="r" cx="59.65" cy="172.95" rx="6.72" ry="1.31" transform="translate(-123.3 174.22) rotate(-71.37)"/><ellipse class="r" cx="62.77" cy="173.24" rx="6.48" ry="1.26" transform="translate(-121.44 177.37) rotate(-71.37)"/><ellipse class="r" cx="65.53" cy="173.64" rx="6.01" ry="1.26" transform="translate(-119.95 180.26) rotate(-71.37)"/><ellipse class="r" cx="68.62" cy="174.08" rx="5.45" ry="1.14" transform="translate(-117.98 188.03) rotate(-72.76)"/><ellipse class="r" cx="71.48" cy="174.61" rx="5.04" ry="1.05" transform="translate(-116.01 195.72) rotate(-74.16)"/><ellipse class="r" cx="73.61" cy="174.95" rx="4.46" ry=".96" transform="translate(-112 214.65) rotate(-79.25)"/><ellipse class="r" cx="76.62" cy="175.46" rx="3.87" ry=".83" transform="translate(-106.23 232.21) rotate(-83.65)"/><ellipse class="r" cx="79.64" cy="175.95" rx="3.38" ry=".71" transform="translate(-104.03 235.65) rotate(-83.65)"/><ellipse class="r" cx="82.66" cy="176.41" rx=".61" ry="2.89"/><ellipse class="r" cx="113.24" cy="170.94" rx="1.99" ry="8.75" transform="translate(-46.61 42.52) rotate(-17.7)"/><ellipse class="r" cx="110.33" cy="171.96" rx="1.53" ry="7.68" transform="translate(-43.75 37.79) rotate(-16.27)"/><ellipse class="r" cx="107.61" cy="172.45" rx="1.42" ry="7.12" transform="translate(-44 37.04) rotate(-16.27)"/><ellipse class="r" cx="105.17" cy="173.01" rx="1.33" ry="6.72" transform="translate(-50.87 44) rotate(-19.12)"/><ellipse class="r" cx="102.35" cy="173.55" rx="1.23" ry="6.18" transform="translate(-51.21 43.1) rotate(-19.12)"/><ellipse class="r" cx="99.93" cy="174" rx="1.22" ry="5.69" transform="translate(-51.5 42.35) rotate(-19.13)"/><ellipse class="r" cx="97.24" cy="174.55" rx="1.08" ry="5.04" transform="translate(-48.47 37.84) rotate(-17.7)"/><ellipse class="r" cx="94.86" cy="175.08" rx=".96" ry="4.48" transform="translate(-45.26 33.59) rotate(-16.27)"/><ellipse class="r" cx="92.95" cy="175.3" rx="1" ry="4.23" transform="translate(-31.87 21.06) rotate(-11.05)"/><ellipse class="r" cx="90.25" cy="175.52" rx=".93" ry="3.83" transform="translate(-19.37 11.4) rotate(-6.53)"/><ellipse class="r" cx="87.56" cy="176.01" rx=".71" ry="3.29" transform="translate(-19.44 11.09) rotate(-6.53)"/><ellipse class="r" cx="84.9" cy="176.27" rx=".65" ry="3.03"/><circle class="h" cx="63.59" cy="121.47" r="2.43"/><circle class="h" cx="101.74" cy="121.56" r="2.43"/></g></g><g id="g"><path class="n" d="M76.27,243.31c2.31,1.56,3.64-4.44,5-5.64,.89-1.05,2.18-.74,2.21,.7,.07,1.13-1.02,1.8-2.06,1.7-1.35-.08-2.1-1.45-2.21-2.65-.11-1.21,.41-2.4,1.3-3.19,2.19-1.9,4.45,.27,5.78,2.07,1.34,1.84,2.31,4.22,1.59,6.51-.69,2.14-2.88,2.41-4.51,1.09-.64-.42-1.1-1.23-1.89-1.38-.2-.06-.44-.07-.62,.08-.46,.45-.55,1.58-.04,2.07,1.88,.99,1.28-7.14,1.36-8.14,.66,2.2,.48,4.54,.17,6.79-.06,.76-.71,2.33-1.74,1.61-.92-.88-.48-2.99,.94-3.01,.99,.04,1.47,.98,2.2,1.49,1.34,1.11,3.07,1.03,3.72-.75,.92-2.66-.53-5.61-2.47-7.46-.76-.76-1.7-1.52-2.83-1.38-1.63,.21-2.72,2.02-2.54,3.56,.13,.99,.79,2.04,1.85,2.09,.44,.03,.97-.09,1.24-.45,.23-.34,.22-.94-.01-1.24-1.07-.94-2.87,3.88-3.54,4.63-.5,.92-2.07,2.16-2.89,.91h0Z"/></g></svg>